  0
SECTION
  2
HEADER
  9
$ACADVER
  1
AC1015
  9
$ACADMAINTVER
 70
     6
  9
$DWGCODEPAGE
  3
ANSI_1252
  9
$INSBASE
 10
0.0
 20
0.0
 30
0.0
  9
$EXTMIN
 10
668.75
 20
580.2116840929
 30
0.0
  9
$EXTMAX
 10
788.75
 20
730.2116840929
 30
0.0
  9
$LIMMIN
 10
0.0
 20
0.0
  9
$LIMMAX
 10
420.0
 20
297.0
  9
$ORTHOMODE
 70
     0
  9
$REGENMODE
 70
     1
  9
$FILLMODE
 70
     1
  9
$QTEXTMODE
 70
     0
  9
$MIRRTEXT
 70
     1
  9
$LTSCALE
 40
1.0
  9
$ATTMODE
 70
     1
  9
$TEXTSIZE
 40
3.5
  9
$TRACEWID
 40
1.0
  9
$TEXTSTYLE
  7
Standard
  9
$CLAYER
  8
0
  9
$CELTYPE
  6
ByLayer
  9
$CECOLOR
 62
   256
  9
$CELTSCALE
 40
1.0
  9
$DISPSILH
 70
     0
  9
$DIMSCALE
 40
1.0
  9
$DIMASZ
 40
3.302
  9
$DIMEXO
 40
0.0
  9
$DIMDLI
 40
3.75
  9
$DIMRND
 40
0.0
  9
$DIMDLE
 40
0.0
  9
$DIMEXE
 40
1.0
  9
$DIMTP
 40
0.0
  9
$DIMTM
 40
0.0
  9
$DIMTXT
 40
3.5
  9
$DIMCEN
 40
2.5
  9
$DIMTSZ
 40
0.0
  9
$DIMTOL
 70
     0
  9
$DIMLIM
 70
     0
  9
$DIMTIH
 70
     1
  9
$DIMTOH
 70
     1
  9
$DIMSE1
 70
     0
  9
$DIMSE2
 70
     0
  9
$DIMTAD
 70
     1
  9
$DIMZIN
 70
     1
  9
$DIMBLK
  1

  9
$DIMASO
 70
     1
  9
$DIMSHO
 70
     1
  9
$DIMPOST
  1

  9
$DIMAPOST
  1

  9
$DIMALT
 70
     0
  9
$DIMALTD
 70
     3
  9
$DIMALTF
 40
0.0393700787
  9
$DIMLFAC
 40
1.0
  9
$DIMTOFL
 70
     1
  9
$DIMTVP
 40
0.0
  9
$DIMTIX
 70
     0
  9
$DIMSOXD
 70
     0
  9
$DIMSAH
 70
     0
  9
$DIMBLK1
  1

  9
$DIMBLK2
  1

  9
$DIMSTYLE
  2
ISO-25
  9
$DIMCLRD
 70
     0
  9
$DIMCLRE
 70
     0
  9
$DIMCLRT
 70
     0
  9
$DIMTFAC
 40
1.0
  9
$DIMGAP
 40
1.524
  9
$DIMJUST
 70
     0
  9
$DIMSD1
 70
     0
  9
$DIMSD2
 70
     0
  9
$DIMTOLJ
 70
     0
  9
$DIMTZIN
 70
     1
  9
$DIMALTZ
 70
     0
  9
$DIMALTTZ
 70
     0
  9
$DIMUPT
 70
     0
  9
$DIMDEC
 70
     2
  9
$DIMTDEC
 70
     2
  9
$DIMALTU
 70
     2
  9
$DIMALTTD
 70
     3
  9
$DIMTXSTY
  7
Standard
  9
$DIMAUNIT
 70
     0
  9
$DIMADEC
 70
     2
  9
$DIMALTRND
 40
0.0
  9
$DIMAZIN
 70
     0
  9
$DIMDSEP
 70
    44
  9
$DIMATFIT
 70
     3
  9
$DIMFRAC
 70
     0
  9
$DIMLDRBLK
  1

  9
$DIMLUNIT
 70
     2
  9
$DIMLWD
 70
    -2
  9
$DIMLWE
 70
    -2
  9
$DIMTMOVE
 70
     0
  9
$LUNITS
 70
     2
  9
$LUPREC
 70
     2
  9
$SKETCHINC
 40
1.0
  9
$FILLETRAD
 40
0.0
  9
$AUNITS
 70
     0
  9
$AUPREC
 70
     2
  9
$MENU
  1
.
  9
$ELEVATION
 40
0.0
  9
$PELEVATION
 40
0.0
  9
$THICKNESS
 40
0.0
  9
$LIMCHECK
 70
     0
  9
$CHAMFERA
 40
0.0
  9
$CHAMFERB
 40
0.0
  9
$CHAMFERC
 40
0.0
  9
$CHAMFERD
 40
0.0
  9
$SKPOLY
 70
     0
  9
$TDCREATE
 40
2460976.93890698
  9
$TDUCREATE
 40
2460977.147240313
  9
$TDUPDATE
 40
2460976.938931679
  9
$TDUUPDATE
 40
2460977.147265012
  9
$TDINDWG
 40
0.0000000116
  9
$TDUSRTIMER
 40
0.0000000116
  9
$USRTIMER
 70
     1
  9
$ANGBASE
 50
0.0
  9
$ANGDIR
 70
     0
  9
$PDMODE
 70
     0
  9
$PDSIZE
 40
-1.0
  9
$PLINEWID
 40
0.0
  9
$SPLFRAME
 70
     0
  9
$SPLINETYPE
 70
     6
  9
$SPLINESEGS
 70
     8
  9
$HANDSEED
  5
79
  9
$SURFTAB1
 70
     6
  9
$SURFTAB2
 70
     6
  9
$SURFTYPE
 70
     6
  9
$SURFU
 70
     6
  9
$SURFV
 70
     6
  9
$UCSBASE
  2

  9
$UCSNAME
  2

  9
$UCSORG
 10
0.0
 20
0.0
 30
0.0
  9
$UCSXDIR
 10
1.0
 20
0.0
 30
0.0
  9
$UCSYDIR
 10
0.0
 20
1.0
 30
0.0
  9
$UCSORTHOREF
  2

  9
$UCSORTHOVIEW
 70
     0
  9
$UCSORGTOP
 10
0.0
 20
0.0
 30
0.0
  9
$UCSORGBOTTOM
 10
0.0
 20
0.0
 30
0.0
  9
$UCSORGLEFT
 10
0.0
 20
0.0
 30
0.0
  9
$UCSORGRIGHT
 10
0.0
 20
0.0
 30
0.0
  9
$UCSORGFRONT
 10
0.0
 20
0.0
 30
0.0
  9
$UCSORGBACK
 10
0.0
 20
0.0
 30
0.0
  9
$PUCSBASE
  2

  9
$PUCSNAME
  2

  9
$PUCSORG
 10
0.0
 20
0.0
 30
0.0
  9
$PUCSXDIR
 10
1.0
 20
0.0
 30
0.0
  9
$PUCSYDIR
 10
0.0
 20
1.0
 30
0.0
  9
$PUCSORTHOREF
  2

  9
$PUCSORTHOVIEW
 70
     0
  9
$PUCSORGTOP
 10
0.0
 20
0.0
 30
0.0
  9
$PUCSORGBOTTOM
 10
0.0
 20
0.0
 30
0.0
  9
$PUCSORGLEFT
 10
0.0
 20
0.0
 30
0.0
  9
$PUCSORGRIGHT
 10
0.0
 20
0.0
 30
0.0
  9
$PUCSORGFRONT
 10
0.0
 20
0.0
 30
0.0
  9
$PUCSORGBACK
 10
0.0
 20
0.0
 30
0.0
  9
$USERI1
 70
     0
  9
$USERI2
 70
     0
  9
$USERI3
 70
     0
  9
$USERI4
 70
     0
  9
$USERI5
 70
     0
  9
$USERR1
 40
0.0
  9
$USERR2
 40
0.0
  9
$USERR3
 40
0.0
  9
$USERR4
 40
0.0
  9
$USERR5
 40
0.0
  9
$WORLDVIEW
 70
     1
  9
$SHADEDGE
 70
     3
  9
$SHADEDIF
 70
    70
  9
$TILEMODE
 70
     1
  9
$MAXACTVP
 70
    64
  9
$PINSBASE
 10
0.0
 20
0.0
 30
0.0
  9
$PLIMCHECK
 70
     0
  9
$PEXTMIN
 10
1.0000000000E+20
 20
1.0000000000E+20
 30
1.0000000000E+20
  9
$PEXTMAX
 10
-1.0000000000E+20
 20
-1.0000000000E+20
 30
-1.0000000000E+20
  9
$PLIMMIN
 10
0.0
 20
0.0
  9
$PLIMMAX
 10
420.0
 20
297.0
  9
$UNITMODE
 70
     0
  9
$VISRETAIN
 70
     1
  9
$PLINEGEN
 70
     0
  9
$PSLTSCALE
 70
     1
  9
$TREEDEPTH
 70
  3020
  9
$CMLSTYLE
  2
Standard
  9
$CMLJUST
 70
     0
  9
$CMLSCALE
 40
20.0
  9
$PROXYGRAPHICS
 70
     1
  9
$MEASUREMENT
 70
     1
  9
$CELWEIGHT
370
    -1
  9
$ENDCAPS
280
     0
  9
$JOINSTYLE
280
     0
  9
$LWDISPLAY
290
     1
  9
$INSUNITS
 70
     4
  9
$HYPERLINKBASE
  1

  9
$STYLESHEET
  1

  9
$XEDIT
290
     1
  9
$CEPSNTYPE
380
     0
  9
$PSTYLEMODE
290
     1
  9
$FINGERPRINTGUID
  2
{e4a90783-b1b1-4a77-a221-c3bc01289335}
  9
$VERSIONGUID
  2
{FAEB1C32-E019-11D5-929B-00C0DF256EC4}
  9
$EXTNAMES
290
     1
  9
$PSVPSCALE
 40
0.0
  9
$OLESTARTUP
290
     0
  0
ENDSEC
  0
SECTION
  2
CLASSES
  0
CLASS
  1
ACDBDICTIONARYWDFLT
  2
AcDbDictionaryWithDefault
  3
ObjectDBX Classes
 90
        0
280
     0
281
     0
  0
CLASS
  1
VISUALSTYLE
  2
AcDbVisualStyle
  3
ObjectDBX Classes
 90
     4095
280
     0
281
     0
  0
CLASS
  1
MATERIAL
  2
AcDbMaterial
  3
ObjectDBX Classes
 90
     1153
280
     0
281
     0
  0
CLASS
  1
SCALE
  2
AcDbScale
  3
ObjectDBX Classes
 90
     1153
280
     0
281
     0
  0
CLASS
  1
TABLESTYLE
  2
AcDbTableStyle
  3
ObjectDBX Classes
 90
     4095
280
     0
281
     0
  0
CLASS
  1
MLEADERSTYLE
  2
AcDbMLeaderStyle
  3
ACDB_MLEADERSTYLE_CLASS
 90
     4095
280
     0
281
     0
  0
CLASS
  1
SUN
  2
AcDbSun
  3
SCENEOE
 90
     1153
280
     0
281
     0
  0
CLASS
  1
ACDBPLACEHOLDER
  2
AcDbPlaceHolder
  3
ObjectDBX Classes
 90
        0
280
     0
281
     0
  0
CLASS
  1
LAYOUT
  2
AcDbLayout
  3
ObjectDBX Classes
 90
        0
280
     0
281
     0
  0
ENDSEC
  0
SECTION
  2
TABLES
  0
TABLE
  2
VPORT
  5
8
330
0
100
AcDbSymbolTable
 70
     1
  0
VPORT
  5
29
330
8
100
AcDbSymbolTableRecord
100
AcDbViewportTableRecord
  2
*Active
 70
     0
 10
0.0
 20
0.0
 11
1.0
 21
1.0
 12
728.75
 22
655.2116840929
 13
0.0
 23
0.0
 14
10.0
 24
10.0
 15
10.0
 25
10.0
 16
0.0
 26
0.0
 36
1.0
 17
0.0
 27
0.0
 37
0.0
 40
153.0
 41
0.8
 42
50.0
 43
0.0
 44
0.0
 50
0.0
 51
0.0
 71
     0
 72
   100
 73
     1
 74
     3
 75
     0
 76
     0
 77
     0
 78
     0
281
     0
 65
     1
110
0.0
120
0.0
130
0.0
111
1.0
121
0.0
131
0.0
112
0.0
122
1.0
132
0.0
 79
     0
146
0.0
  0
ENDTAB
  0
TABLE
  2
LTYPE
  5
5
330
0
100
AcDbSymbolTable
 70
     6
  0
LTYPE
  5
14
330
5
100
AcDbSymbolTableRecord
100
AcDbLinetypeTableRecord
  2
ByBlock
 70
     0
  3

 72
    65
 73
     0
 40
0.0
  0
LTYPE
  5
15
330
5
100
AcDbSymbolTableRecord
100
AcDbLinetypeTableRecord
  2
ByLayer
 70
     0
  3

 72
    65
 73
     0
 40
0.0
  0
LTYPE
  5
16
330
5
100
AcDbSymbolTableRecord
100
AcDbLinetypeTableRecord
  2
Continuous
 70
     0
  3
Solid line
 72
    65
 73
     0
 40
0.0
  0
LTYPE
  5
5E
330
5
100
AcDbSymbolTableRecord
100
AcDbLinetypeTableRecord
  2
HIDDEN
 70
     0
  3
Hidden __ __ __ __ __ __ __ __ __ __ __ __ __ __
 72
    65
 73
     2
 40
1.905
 49
1.27
 74
     0
 49
-0.635
 74
     0
  0
LTYPE
  5
5F
330
5
100
AcDbSymbolTableRecord
100
AcDbLinetypeTableRecord
  2
PHANTOM
 70
     0
  3
Phantom ______  __  __  ______  __  __  ______
 72
    65
 73
     6
 40
12.7
 49
6.35
 74
     0
 49
-1.27
 74
     0
 49
1.27
 74
     0
 49
-1.27
 74
     0
 49
1.27
 74
     0
 49
-1.27
 74
     0
  0
LTYPE
  5
60
330
5
100
AcDbSymbolTableRecord
100
AcDbLinetypeTableRecord
  2
CENTER
 70
     0
  3
Center ____ _ ____ _ ____ _ ____ _ ____ _ ____
 72
    65
 73
     4
 40
10.16
 49
6.35
 74
     0
 49
-1.27
 74
     0
 49
1.27
 74
     0
 49
-1.27
 74
     0
  0
LTYPE
  5
61
330
5
100
AcDbSymbolTableRecord
100
AcDbLinetypeTableRecord
  2
CENTERX2
 70
     0
  3
Center (2x) ________  __  ________  __  _____
 72
    65
 73
     4
 40
20.32
 49
12.7
 74
     0
 49
-2.54
 74
     0
 49
2.54
 74
     0
 49
-2.54
 74
     0
  0
LTYPE
  5
62
330
5
100
AcDbSymbolTableRecord
100
AcDbLinetypeTableRecord
  2
DOT2
 70
     0
  3
Dot (.5x) ........................................
 72
    65
 73
     2
 40
0.635
 49
0.0
 74
     0
 49
-0.635
 74
     0
  0
ENDTAB
  0
TABLE
  2
LAYER
  5
2
330
0
100
AcDbSymbolTable
 70
     1
  0
LAYER
  5
10
330
2
100
AcDbSymbolTableRecord
100
AcDbLayerTableRecord
  2
0
 70
     0
 62
     7
  6
Continuous
370
    -3
390
F
  0
ENDTAB
  0
TABLE
  2
STYLE
  5
3
330
0
100
AcDbSymbolTable
 70
     1
  0
STYLE
  5
11
330
3
100
AcDbSymbolTableRecord
100
AcDbTextStyleTableRecord
  2
Standard
 70
     0
 40
0.0
 41
1.0
 50
0.0
 71
     0
 42
3.5
  3
txt
  4

  0
ENDTAB
  0
TABLE
  2
VIEW
  5
6
330
0
100
AcDbSymbolTable
 70
     0
  0
ENDTAB
  0
TABLE
  2
UCS
  5
7
330
0
100
AcDbSymbolTable
 70
     0
  0
ENDTAB
  0
TABLE
  2
APPID
  5
9
330
0
100
AcDbSymbolTable
 70
     1
  0
APPID
  5
12
330
9
100
AcDbSymbolTableRecord
100
AcDbRegAppTableRecord
  2
ACAD
 70
     0
  0
ENDTAB
  0
TABLE
  2
DIMSTYLE
  5
A
330
0
100
AcDbSymbolTable
 70
     1
100
AcDbDimStyleTable
  0
DIMSTYLE
105
27
330
A
100
AcDbSymbolTableRecord
100
AcDbDimStyleTableRecord
  2
ISO-25
 70
     0
 41
2.5
 42
0.625
 43
3.75
 44
1.25
 73
     0
 74
     0
 77
     1
 78
     8
140
2.5
141
2.5
143
0.0393700787
147
0.625
171
     3
172
     1
178
     0
271
     2
272
     2
274
     3
278
    44
283
     0
284
     8
340
11
  0
ENDTAB
  0
TABLE
  2
BLOCK_RECORD
  5
1
330
0
100
AcDbSymbolTable
 70
     1
  0
BLOCK_RECORD
  5
1F
330
1
100
AcDbSymbolTableRecord
100
AcDbBlockTableRecord
  2
*Model_Space
340
22
  0
BLOCK_RECORD
  5
1B
330
1
100
AcDbSymbolTableRecord
100
AcDbBlockTableRecord
  2
*Paper_Space
340
1E
  0
BLOCK_RECORD
  5
23
330
1
100
AcDbSymbolTableRecord
100
AcDbBlockTableRecord
  2
*Paper_Space0
340
26
  0
ENDTAB
  0
ENDSEC
  0
SECTION
  2
BLOCKS
  0
BLOCK
  5
20
330
1F
100
AcDbEntity
  8
0
100
AcDbBlockBegin
  2
*Model_Space
 70
     0
 10
0.0
 20
0.0
 30
0.0
  3
*Model_Space
  1

  0
ENDBLK
  5
21
330
1F
100
AcDbEntity
  8
0
100
AcDbBlockEnd
  0
BLOCK
  5
1C
330
1B
100
AcDbEntity
 67
     1
  8
0
100
AcDbBlockBegin
  2
*Paper_Space
 70
     0
 10
0.0
 20
0.0
 30
0.0
  3
*Paper_Space
  1

  0
ENDBLK
  5
1D
330
1B
100
AcDbEntity
 67
     1
  8
0
100
AcDbBlockEnd
  0
BLOCK
  5
24
330
23
100
AcDbEntity
  8
0
100
AcDbBlockBegin
  2
*Paper_Space0
 70
     0
 10
0.0
 20
0.0
 30
0.0
  3
*Paper_Space0
  1

  0
ENDBLK
  5
25
330
23
100
AcDbEntity
  8
0
100
AcDbBlockEnd
  0
ENDSEC
  0
SECTION
  2
ENTITIES
  0
SPLINE
  5
63
330
1F
100
AcDbEntity
  8
0
  6
Continuous
 62
     7
370
    25
100
AcDbSpline
210
0.0
220
0.0
230
1.0
 70
     8
 71
     3
 72
    15
 73
    11
 74
     0
 42
0.00000001
 43
0.00000001
 40
0.0
 40
0.0
 40
0.0
 40
0.0
 40
0.1294804090824629
 40
0.2546405647579713
 40
0.3773288994792144
 40
0.5072537143122309
 40
0.6350828302017449
 40
0.7584938907199742
 40
0.8779172050394961
 40
1.0
 40
1.0
 40
1.0
 40
1.0
 10
788.7500000000001
 20
590.4948872179006
 30
0.0
 10
788.7097827667429
 20
589.7973739195922
 30
0.0
 10
788.6306901915638
 20
588.4256206059748
 30
0.0
 10
788.0296320261623
 20
586.4643629248974
 30
0.0
 10
787.0291370674203
 20
584.6783148995
 30
0.0
 10
785.6633002575888
 20
583.1361330831768
 30
0.0
 10
784.0589079870297
 20
581.841466231926
 30
0.0
 10
782.2912392721763
 20
580.8967543140075
 30
0.0
 10
780.3989523955696
 20
580.3013291517308
 30
0.0
 10
779.0960998303036
 20
580.2417843495605
 30
0.0
 10
778.4375000000001
 20
580.2116840929004
 30
0.0
  0
SPLINE
  5
64
330
1F
100
AcDbEntity
  8
0
  6
Continuous
 62
     7
370
    25
100
AcDbSpline
210
0.0
220
0.0
230
1.0
 70
     8
 71
     3
 72
    11
 73
     7
 74
     0
 42
0.00000001
 43
0.00000001
 40
0.0
 40
0.0
 40
0.0
 40
0.0
 40
0.3492888133835823
 40
0.6323129004168447
 40
0.8480211792406529
 40
1.0
 40
1.0
 40
1.0
 40
1.0
 10
785.8203125000001
 20
601.5105122179006
 30
0.0
 10
786.2644116607873
 20
600.2550115304308
 30
0.0
 10
787.0683584740557
 20
597.9821953085793
 30
0.0
 10
787.9565427005855
 20
594.8777922031796
 30
0.0
 10
788.5997110438673
 20
592.4729308631084
 30
0.0
 10
788.7060472653064
 20
591.0733756829727
 30
0.0
 10
788.7500000000001
 20
590.4948872179006
 30
0.0
  0
LINE
  5
65
330
1F
100
AcDbEntity
  8
0
  6
Continuous
 62
     7
370
    25
100
AcDbLine
 10
780.078125
 20
617.6237934679
 30
0.0
 11
785.8203125
 21
601.5105122179
 31
0.0
  0
LINE
  5
66
330
1F
100
AcDbEntity
  8
0
  6
Continuous
 62
     7
370
    25
100
AcDbLine
 10
765.01953125
 20
686.2663715929
 30
0.0
 11
780.078125
 21
617.6237934679
 31
0.0
  0
LINE
  5
67
330
1F
100
AcDbEntity
  8
0
  6
Continuous
 62
     7
370
    25
100
AcDbLine
 10
758.662109375
 20
719.4304340929
 30
0.0
 11
765.01953125
 21
686.2663715929
 31
0.0
  0
SPLINE
  5
68
330
1F
100
AcDbEntity
  8
0
  6
Continuous
 62
     7
370
    25
100
AcDbSpline
210
0.0
220
0.0
230
1.0
 70
     8
 71
     3
 72
    15
 73
    11
 74
     0
 42
0.00000001
 43
0.00000001
 40
0.0
 40
0.0
 40
0.0
 40
0.0
 40
0.1146653368679285
 40
0.2224797519161376
 40
0.3318181212049008
 40
0.4432750057253682
 40
0.5625113293410875
 40
0.6937527758424659
 40
0.8392082804577021
 40
1.0
 40
1.0
 40
1.0
 40
1.0
 10
748.0273437500001
 20
730.2116840929004
 30
0.0
 10
748.655955323481
 20
730.1784146931451
 30
0.0
 10
749.8756207493162
 20
730.113863643925
 30
0.0
 10
751.6338608925001
 20
729.5910231544983
 30
0.0
 10
753.2263954165477
 20
728.7321077789846
 30
0.0
 10
754.669963536215
 20
727.5331122307409
 30
0.0
 10
755.8899942072986
 20
725.9599920844622
 30
0.0
 10
757.0208468714578
 20
724.1049102484723
 30
0.0
 10
757.942496899313
 20
721.8845097466219
 30
0.0
 10
758.4143618821396
 20
720.2753209049571
 30
0.0
 10
758.6621093750001
 20
719.4304340929006
 30
0.0
  0
SPLINE
  5
69
330
1F
100
AcDbEntity
  8
0
  6
Continuous
 62
     7
370
    25
100
AcDbSpline
210
0.0
220
0.0
230
1.0
 70
     8
 71
     3
 72
    23
 73
    19
 74
     0
 42
0.00000001
 43
0.00000001
 40
0.0
 40
0.0
 40
0.0
 40
0.0
 40
0.1114596384954567
 40
0.2169285399094853
 40
0.3152264875227666
 40
0.4065222265440212
 40
0.4918578267237574
 40
0.5700351145379842
 40
0.6417787076602596
 40
0.7071271702113776
 40
0.7653566435234324
 40
0.8177444938547463
 40
0.8630239188029842
 40
0.902179086326412
 40
0.9349502031898259
 40
0.9619167450712222
 40
0.9831054259099852
 40
1.0
 40
1.0
 40
1.0
 40
1.0
 10
719.0234375000001
 20
693.0925434679006
 30
0.0
 10
719.9670722619232
 20
694.5890131444071
 30
0.0
 10
721.8036232670672
 20
697.501520185749
 30
0.0
 10
724.5323364575412
 20
701.6953269822449
 30
0.0
 10
727.0618186530812
 20
705.637006377695
 30
0.0
 10
729.5094698206568
 20
709.2501148832605
 30
0.0
 10
731.8200035717281
 20
712.5694744914292
 30
0.0
 10
733.9524645758487
 20
715.6348230449985
 30
0.0
 10
735.970581449462
 20
718.3926297442422
 30
0.0
 10
737.8765365919667
 20
720.8380751358105
 30
0.0
 10
739.6099876836169
 20
723.0277878767248
 30
0.0
 10
741.1976166210364
 20
724.9273927880693
 30
0.0
 10
742.6837744520077
 20
726.5109812303948
 30
0.0
 10
743.9742836564218
 20
727.8530825721017
 30
0.0
 10
745.191622842524
 20
728.8511523956789
 30
0.0
 10
746.2344455168835
 20
729.5940272249256
 30
0.0
 10
747.1554985371766
 20
730.099325205495
 30
0.0
 10
747.7594275043798
 20
730.1771564372651
 30
0.0
 10
748.0273437500001
 20
730.2116840929004
 30
0.0
  0
SPLINE
  5
6A
330
1F
100
AcDbEntity
  8
0
  6
Continuous
 62
     7
370
    25
100
AcDbSpline
210
0.0
220
0.0
230
1.0
 70
     8
 71
     3
 72
    15
 73
    11
 74
     0
 42
0.00000001
 43
0.00000001
 40
0.0
 40
0.0
 40
0.0
 40
0.0
 40
0.1085459584734825
 40
0.2218334081080394
 40
0.3401280644986474
 40
0.4627280854876543
 40
0.5898343203052107
 40
0.7219817596343989
 40
0.8587330670999521
 40
1.0
 40
1.0
 40
1.0
 40
1.0
 10
691.1914062500001
 20
644.8991840929004
 30
0.0
 10
692.1355555999888
 20
646.6781946344138
 30
0.0
 10
694.0650965153434
 20
650.3139262363455
 30
0.0
 10
697.0834510508668
 20
655.8564226361657
 30
0.0
 10
700.3017137632634
 20
661.5863683485328
 30
0.0
 10
703.7142386928
 20
667.5005709860977
 30
0.0
 10
707.2515625635926
 20
673.6394978891082
 30
0.0
 10
710.9958128725688
 20
679.9619279707147
 30
0.0
 10
714.9656204263229
 20
686.4550391173904
 30
0.0
 10
717.6562644902724
 20
690.8562137775274
 30
0.0
 10
719.0234375000001
 20
693.0925434679006
 30
0.0
  0
SPLINE
  5
6B
330
1F
100
AcDbEntity
  8
0
  6
Continuous
 62
     7
370
    25
100
AcDbSpline
210
0.0
220
0.0
230
1.0
 70
     8
 71
     3
 72
    15
 73
    11
 74
     0
 42
0.00000001
 43
0.00000001
 40
0.0
 40
0.0
 40
0.0
 40
0.0
 40
0.1262224689367924
 40
0.2441637291558724
 40
0.3567411864754871
 40
0.4700270901636309
 40
0.5875358770449418
 40
0.7118568811792438
 40
0.8485767407758279
 40
0.9999999999999999
 40
0.9999999999999999
 40
0.9999999999999999
 40
0.9999999999999999
 10
681.6992187500001
 20
634.5280903429004
 30
0.0
 10
681.7263854370239
 20
635.1746798202973
 30
0.0
 10
681.7789364579978
 20
636.4254373071692
 30
0.0
 10
682.21099641866
 20
638.2191281716093
 30
0.0
 10
683.0129035124655
 20
639.7962157966896
 30
0.0
 10
684.0317983651261
 20
641.2444336590968
 30
0.0
 10
685.4239963879866
 20
642.4347353014188
 30
0.0
 10
687.0581087617242
 20
643.4897856430349
 30
0.0
 10
689.024374926772
 20
644.2897484626135
 30
0.0
 10
690.4449002336311
 20
644.6892437197631
 30
0.0
 10
691.1914062500001
 20
644.8991840929004
 30
0.0
  0
SPLINE
  5
6C
330
1F
100
AcDbEntity
  8
0
  6
Continuous
 62
     7
370
    25
100
AcDbSpline
210
0.0
220
0.0
230
1.0
 70
     8
 71
     3
 72
    11
 73
     7
 74
     0
 42
0.00000001
 43
0.00000001
 40
0.0
 40
0.0
 40
0.0
 40
0.0
 40
0.2439249199826509
 40
0.4871368682686029
 40
0.73842588908576
 40
1.0
 40
1.0
 40
1.0
 40
1.0
 10
683.3691406250002
 20
628.5515278429006
 30
0.0
 10
683.1115456534684
 20
628.993972003155
 30
0.0
 10
682.5971086384945
 20
629.8775670971925
 30
0.0
 10
682.0613221067703
 20
631.3398348771442
 30
0.0
 10
681.7794129969412
 20
632.9058889301783
 30
0.0
 10
681.7263051782979
 20
633.9801752002776
 30
0.0
 10
681.6992187500001
 20
634.5280903429004
 30
0.0
  0
SPLINE
  5
6D
330
1F
100
AcDbEntity
  8
0
  6
Continuous
 62
     7
370
    25
100
AcDbSpline
210
0.0
220
0.0
230
1.0
 70
     8
 71
     3
 72
    23
 73
    19
 74
     0
 42
0.00000001
 43
0.00000001
 40
0.0
 40
0.0
 40
0.0
 40
0.0
 40
0.017953252608432
 40
0.0414916409671302
 40
0.0707838950662147
 40
0.1064185245094432
 40
0.1474396035627491
 40
0.1948281699004843
 40
0.2484034324174622
 40
0.3076529178924022
 40
0.3728547594949302
 40
0.4447064518654399
 40
0.5218399032087113
 40
0.6056313291310029
 40
0.6950999414071146
 40
0.7908512668558233
 40
0.892587882306199
 40
1.0
 40
1.0
 40
1.0
 40
1.0
 10
668.7500000000002
 20
592.1648090929004
 30
0.0
 10
668.764521986574
 20
592.399799417812
 30
0.0
 10
668.7980836517604
 20
592.9428839721617
 30
0.0
 10
668.9922708414166
 20
593.8525548382127
 30
0.0
 10
669.3015133128339
 20
594.968599370725
 30
0.0
 10
669.6558435820654
 20
596.311869997404
 30
0.0
 10
670.2232582291712
 20
597.8358828739366
 30
0.0
 10
670.8086989938248
 20
599.6016541976296
 30
0.0
 10
671.596013765608
 20
601.5480947607803
 30
0.0
 10
672.4314705332084
 20
603.7253445023213
 30
0.0
 10
673.4123538868929
 20
606.1027054628717
 30
0.0
 10
674.4810819098997
 20
608.697065096208
 30
0.0
 10
675.6974019317994
 20
611.4935083356207
 30
0.0
 10
677.0155973138077
 20
614.4970716141758
 30
0.0
 10
678.4099795753403
 20
617.7336716813475
 30
0.0
 10
679.972129359619
 20
621.1530380621938
 30
0.0
 10
681.6441763703016
 20
624.7803552238628
 30
0.0
 10
682.7838437916967
 20
627.2719329841949
 30
0.0
 10
683.3691406250001
 20
628.5515278429004
 30
0.0
  0
SPLINE
  5
6E
330
1F
100
AcDbEntity
  8
0
  6
Continuous
 62
     7
370
    25
100
AcDbSpline
210
0.0
220
0.0
230
1.0
 70
     8
 71
     3
 72
    15
 73
    11
 74
     0
 42
0.00000001
 43
0.00000001
 40
0.0
 40
0.0
 40
0.0
 40
0.0
 40
0.1199400295303184
 40
0.2391521725620844
 40
0.3593386792942782
 40
0.4881385560589572
 40
0.6178676300337549
 40
0.7423793815937645
 40
0.8687368802723715
 40
1.0
 40
1.0
 40
1.0
 40
1.0
 10
678.7109375000001
 20
582.0866840929006
 30
0.0
 10
678.0813154363705
 20
582.1169667677411
 30
0.0
 10
676.8258923303425
 20
582.1773483393271
 30
0.0
 10
675.0223870057799
 20
582.7754481205217
 30
0.0
 10
673.3080822750088
 20
583.66913889967
 30
0.0
 10
671.7453553302621
 20
584.9133158643406
 30
0.0
 10
670.4494293265506
 20
586.4553313095843
 30
0.0
 10
669.4304904140815
 20
588.1840208527634
 30
0.0
 10
668.8791713190275
 20
590.1304986009264
 30
0.0
 10
668.7936002554292
 20
591.4781515768199
 30
0.0
 10
668.7500000000002
 20
592.1648090929004
 30
0.0
  0
SPLINE
  5
6F
330
1F
100
AcDbEntity
  8
0
  6
Continuous
 62
     7
370
    25
100
AcDbSpline
210
0.0
220
0.0
230
1.0
 70
     8
 71
     3
 72
    11
 73
     7
 74
     0
 42
0.00000001
 43
0.00000001
 40
0.0
 40
0.0
 40
0.0
 40
0.0
 40
0.2804617491186225
 40
0.5277351034636225
 40
0.7594896155857234
 40
1.0
 40
1.0
 40
1.0
 40
1.0
 10
687.1191406250001
 20
587.6237934679006
 30
0.0
 10
686.5920238644007
 20
586.7820453283005
 30
0.0
 10
685.6001666180332
 20
585.1981571762153
 30
0.0
 10
683.5721319825158
 20
583.395667858147
 30
0.0
 10
681.235537148273
 20
582.2787690685817
 30
0.0
 10
679.5628082762825
 20
582.1514989547173
 30
0.0
 10
678.7109375000001
 20
582.0866840929006
 30
0.0
  0
SPLINE
  5
70
330
1F
100
AcDbEntity
  8
0
  6
Continuous
 62
     7
370
    25
100
AcDbSpline
210
0.0
220
0.0
230
1.0
 70
     8
 71
     3
 72
    15
 73
    11
 74
     0
 42
0.00000001
 43
0.00000001
 40
0.0
 40
0.0
 40
0.0
 40
0.0
 40
0.0882854160612533
 40
0.187743462670765
 40
0.2971153024649789
 40
0.4164268129139527
 40
0.5466613290316711
 40
0.6877901429990453
 40
0.8385900315005543
 40
1.0
 40
1.0
 40
1.0
 40
1.0
 10
704.8437500000001
 20
625.6511372179006
 30
0.0
 10
704.3782459247858
 20
624.5072124648824
 30
0.0
 10
703.3883276475993
 20
622.0745978412232
 30
0.0
 10
701.7520323511977
 20
618.2537513143716
 30
0.0
 10
699.8772882764064
 20
614.0635050311148
 30
0.0
 10
697.7429957276819
 20
609.5188714745145
 30
0.0
 10
695.4510293985842
 20
604.5575040362702
 30
0.0
 10
692.8602106786553
 20
599.2503904461715
 30
0.0
 10
690.0804583212403
 20
593.5505159119793
 30
0.0
 10
688.1283597715213
 20
589.6436246309922
 30
0.0
 10
687.1191406250001
 20
587.6237934679006
 30
0.0
  0
LINE
  5
71
330
1F
100
AcDbEntity
  8
0
  6
Continuous
 62
     7
370
    25
100
AcDbLine
 10
730.068359375
 20
631.2761372179
 30
0.0
 11
704.84375
 21
625.6511372179
 31
0.0
  0
SPLINE
  5
72
330
1F
100
AcDbEntity
  8
0
  6
Continuous
 62
     7
370
    25
100
AcDbSpline
210
0.0
220
0.0
230
1.0
 70
     8
 71
     3
 72
    11
 73
     7
 74
     0
 42
0.00000001
 43
0.00000001
 40
0.0
 40
0.0
 40
0.0
 40
0.0
 40
0.204299851857274
 40
0.4384669345890096
 40
0.7037539790425933
 40
0.9999999999999999
 40
0.9999999999999999
 40
0.9999999999999999
 40
0.9999999999999999
 10
755.4101562500001
 20
636.4030903429006
 30
0.0
 10
753.6700877251722
 20
636.1302034474882
 30
0.0
 10
749.9355646449053
 20
635.5445354725324
 30
0.0
 10
743.9811712344188
 20
634.3757148081437
 30
0.0
 10
737.2747237223244
 20
632.9346220358739
 30
0.0
 10
732.5571782298668
 20
631.8489181774164
 30
0.0
 10
730.0683593750001
 20
631.2761372179006
 30
0.0
  0
SPLINE
  5
73
330
1F
100
AcDbEntity
  8
0
  6
Continuous
 62
     7
370
    25
100
AcDbSpline
210
0.0
220
0.0
230
1.0
 70
     8
 71
     3
 72
    15
 73
    11
 74
     0
 42
0.00000001
 43
0.00000001
 40
0.0
 40
0.0
 40
0.0
 40
0.0
 40
0.0796673271471751
 40
0.1719932334990461
 40
0.2767880543848175
 40
0.3951697954908341
 40
0.5269632605466193
 40
0.6713109700872765
 40
0.8292841044475774
 40
1.0
 40
1.0
 40
1.0
 40
1.0
 10
762.2949218750001
 20
604.6745747179006
 30
0.0
 10
762.0578039305634
 20
605.5038841073055
 30
0.0
 10
761.5458916643344
 20
607.2942743282725
 30
0.0
 10
760.7837947081564
 20
610.1928405016176
 30
0.0
 10
760.0023055818499
 20
613.5182478895495
 30
0.0
 10
759.1454377537875
 20
617.2647328533869
 30
0.0
 10
758.2750752863199
 20
621.446745775322
 30
0.0
 10
757.3710327813124
 20
626.0590019051547
 30
0.0
 10
756.4060857496129
 20
631.0887077368816
 30
0.0
 10
755.7506034257566
 20
634.5864290733913
 30
0.0
 10
755.4101562500001
 20
636.4030903429006
 30
0.0
  0
SPLINE
  5
74
330
1F
100
AcDbEntity
  8
0
  6
Continuous
 62
     7
370
    25
100
AcDbSpline
210
0.0
220
0.0
230
1.0
 70
     8
 71
     3
 72
    15
 73
    11
 74
     0
 42
0.00000001
 43
0.00000001
 40
0.0
 40
0.0
 40
0.0
 40
0.0
 40
0.0749346325642597
 40
0.1550415229925898
 40
0.2476671127625861
 40
0.3572156546185526
 40
0.4854540619104264
 40
0.6351704557625901
 40
0.8057568465679148
 40
1.0
 40
1.0
 40
1.0
 40
1.0
 10
778.4375000000001
 20
580.2116840929004
 30
0.0
 10
777.6614872951694
 20
580.2880894867465
 30
0.0
 10
776.0558986974625
 20
580.4461740495365
 30
0.0
 10
773.784333401148
 20
581.7356911286564
 30
0.0
 10
771.6202298222164
 20
583.6963641225765
 30
0.0
 10
769.6044107594066
 20
586.463173084219
 30
0.0
 10
767.6026040399536
 20
589.923518680422
 30
0.0
 10
765.7394472337053
 20
594.1619839026066
 30
0.0
 10
763.9183088295955
 20
599.145045257629
 30
0.0
 10
762.858948347077
 20
602.7534055321469
 30
0.0
 10
762.2949218750001
 20
604.6745747179006
 30
0.0
  0
LINE
  5
75
330
1F
100
AcDbEntity
  8
0
  6
Continuous
 62
     7
370
    25
100
AcDbLine
 10
742.8125
 20
694.4694965929
 30
0.0
 11
717.3828125
 21
649.7624653429
 31
0.0
  0
LINE
  5
76
330
1F
100
AcDbEntity
  8
0
  6
Continuous
 62
     7
370
    25
100
AcDbLine
 10
751.015625
 20
656.6472309679
 30
0.0
 11
742.8125
 21
694.4694965929
 31
0.0
  0
SPLINE
  5
77
330
1F
100
AcDbEntity
  8
0
  6
Continuous
 62
     7
370
    25
100
AcDbSpline
210
0.0
220
0.0
230
1.0
 70
     8
 71
     3
 72
    15
 73
    11
 74
     0
 42
0.00000001
 43
0.00000001
 40
0.0
 40
0.0
 40
0.0
 40
0.0
 40
0.0887758503359626
 40
0.1877088626690696
 40
0.2970042634614042
 40
0.4163117041619737
 40
0.5468292076782146
 40
0.6877215768808573
 40
0.8386715354855728
 40
0.9999999999999999
 40
0.9999999999999999
 40
0.9999999999999999
 40
0.9999999999999999
 10
717.3828125000001
 20
649.7624653429004
 30
0.0
 10
718.3681757030804
 20
650.0106574042636
 30
0.0
 10
720.4516410313902
 20
650.5354380668609
 30
0.0
 10
723.768702538083
 20
651.2797994832781
 30
0.0
 10
727.4223803191373
 20
652.1200308294913
 30
0.0
 10
731.4542087292272
 20
652.9215089238398
 30
0.0
 10
735.8392056317927
 20
653.7985821742188
 30
0.0
 10
740.5785649480614
 20
654.7523674069736
 30
0.0
 10
745.683930192585
 20
655.6690124145896
 30
0.0
 10
749.1994475773328
 20
656.3140126358071
 30
0.0
 10
751.0156250000001
 20
656.6472309679004
 30
0.0
  0
ENDSEC
  0
SECTION
  2
OBJECTS
  0
DICTIONARY
  5
C
330
0
100
AcDbDictionary
281
     1
  3
ACAD_GROUP
350
D
  3
ACAD_LAYOUT
350
1A
  3
ACAD_MLINESTYLE
350
17
  3
ACAD_PLOTSETTINGS
350
19
  3
ACAD_PLOTSTYLENAME
350
E
  3
ACAD_SCALELIST
350
47
  3
DWGPROPS
350
78
  0
DICTIONARY
  5
D
102
{ACAD_REACTORS
330
C
102
}
330
C
100
AcDbDictionary
281
     1
  0
DICTIONARY
  5
1A
102
{ACAD_REACTORS
330
C
102
}
330
C
100
AcDbDictionary
281
     1
  3
Layout1
350
1E
  3
Layout2
350
26
  3
Model
350
22
  0
DICTIONARY
  5
17
102
{ACAD_REACTORS
330
C
102
}
330
C
100
AcDbDictionary
281
     1
  3
Standard
350
18
  0
DICTIONARY
  5
19
102
{ACAD_REACTORS
330
C
102
}
330
C
100
AcDbDictionary
281
     1
  0
ACDBDICTIONARYWDFLT
  5
E
102
{ACAD_REACTORS
330
C
102
}
330
C
100
AcDbDictionary
281
     1
  3
Normal
350
F
100
AcDbDictionaryWithDefault
340
F
  0
DICTIONARY
  5
47
102
{ACAD_REACTORS
330
C
102
}
330
C
100
AcDbDictionary
281
     1
  3
A0
350
48
  3
A1
350
49
  3
A2
350
4A
  3
A3
350
4B
  3
A4
350
4C
  3
A5
350
4D
  3
A6
350
4E
  3
A7
350
4F
  3
A8
350
50
  3
A9
350
51
  3
B0
350
52
  3
B1
350
53
  3
B2
350
54
  3
B3
350
55
  3
B4
350
56
  3
B5
350
57
  3
B6
350
58
  0
XRECORD
  5
78
102
{ACAD_REACTORS
330
C
102
}
330
C
100
AcDbXrecord
280
     1
  1
DWGPROPS COOKIE
  2

  3

  4

  6

  7

  8
Harold
  9

300
=
301
=
302
=
303
=
304
=
305
=
306
=
307
=
308
=
309
=
 40
0.0
 41
2460977.147240313
 42
2460977.147265012
  1

 90
        0
  0
LAYOUT
  5
1E
102
{ACAD_REACTORS
330
1A
102
}
330
1A
100
AcDbPlotSettings
  1

  2
none_device
  4

  6

 40
0.0
 41
0.0
 42
0.0
 43
0.0
 44
0.0
 45
0.0
 46
0.0
 47
0.0
 48
0.0
 49
0.0
140
0.0
141
0.0
142
1.0
143
1.0
 70
   688
 72
     1
 73
     0
 74
     5
  7

 75
    16
147
1.0
148
0.0
149
0.0
100
AcDbLayout
  1
Layout1
 70
     1
 71
     1
 10
0.0
 20
0.0
 11
420.0
 21
297.0
 12
0.0
 22
0.0
 32
0.0
 14
1.0000000000E+20
 24
1.0000000000E+20
 34
1.0000000000E+20
 15
-1.0000000000E+20
 25
-1.0000000000E+20
 35
-1.0000000000E+20
146
0.0
 13
0.0
 23
0.0
 33
0.0
 16
1.0
 26
0.0
 36
0.0
 17
0.0
 27
1.0
 37
0.0
 76
     0
330
1B
  0
LAYOUT
  5
26
102
{ACAD_REACTORS
330
1A
102
}
330
1A
100
AcDbPlotSettings
  1

  2
none_device
  4

  6

 40
0.0
 41
0.0
 42
0.0
 43
0.0
 44
0.0
 45
0.0
 46
0.0
 47
0.0
 48
0.0
 49
0.0
140
0.0
141
0.0
142
1.0
143
1.0
 70
   688
 72
     1
 73
     0
 74
     5
  7

 75
    16
147
1.0
148
0.0
149
0.0
100
AcDbLayout
  1
Layout2
 70
     1
 71
     2
 10
0.0
 20
0.0
 11
0.0
 21
0.0
 12
0.0
 22
0.0
 32
0.0
 14
0.0
 24
0.0
 34
0.0
 15
0.0
 25
0.0
 35
0.0
146
0.0
 13
0.0
 23
0.0
 33
0.0
 16
1.0
 26
0.0
 36
0.0
 17
0.0
 27
1.0
 37
0.0
 76
     0
330
23
  0
LAYOUT
  5
22
102
{ACAD_REACTORS
330
1A
102
}
330
1A
100
AcDbPlotSettings
  1

  2
none_device
  4
ANSI_A_(11.00_x_8.50_Inches)
  6

 40
6.35
 41
19.05
 42
6.35000508
 43
19.05000254
 44
279.4
 45
215.9
 46
-905.07502754
 47
-844.7373384013
 48
0.0
 49
0.0
140
0.0
141
0.0
142
0.0561
143
1.0
 70
  1696
 72
     0
 73
     0
 74
     0
  7

 75
     0
147
0.0179189148
148
-1300.4909072572
149
0.0
100
AcDbLayout
  1
Model
 70
     1
 71
     0
 10
0.0
 20
0.0
 11
420.0
 21
297.0
 12
0.0
 22
0.0
 32
0.0
 14
668.75
 24
580.2116840929
 34
0.0
 15
788.75
 25
730.2116840929
 35
0.0
146
0.0
 13
0.0
 23
0.0
 33
0.0
 16
1.0
 26
0.0
 36
0.0
 17
0.0
 27
1.0
 37
0.0
 76
     0
330
1F
331
29
  0
MLINESTYLE
  5
18
102
{ACAD_REACTORS
330
17
102
}
330
17
100
AcDbMlineStyle
  2
Standard
 70
     0
  3

 62
   256
 51
90.0
 52
90.0
 71
     2
 49
0.5
 62
   256
  6
BYLAYER
 49
-0.5
 62
   256
  6
BYLAYER
  0
ACDBPLACEHOLDER
  5
F
102
{ACAD_REACTORS
330
E
102
}
330
E
  0
SCALE
  5
48
102
{ACAD_REACTORS
330
47
102
}
330
47
100
AcDbScale
 70
     0
300
1:1
140
1.0
141
1.0
290
     1
  0
SCALE
  5
49
102
{ACAD_REACTORS
330
47
102
}
330
47
100
AcDbScale
 70
     0
300
1:2
140
1.0
141
2.0
290
     0
  0
SCALE
  5
4A
102
{ACAD_REACTORS
330
47
102
}
330
47
100
AcDbScale
 70
     0
300
1:4
140
1.0
141
4.0
290
     0
  0
SCALE
  5
4B
102
{ACAD_REACTORS
330
47
102
}
330
47
100
AcDbScale
 70
     0
300
1:5
140
1.0
141
5.0
290
     0
  0
SCALE
  5
4C
102
{ACAD_REACTORS
330
47
102
}
330
47
100
AcDbScale
 70
     0
300
1:8
140
1.0
141
8.0
290
     0
  0
SCALE
  5
4D
102
{ACAD_REACTORS
330
47
102
}
330
47
100
AcDbScale
 70
     0
300
1:10
140
1.0
141
10.0
290
     0
  0
SCALE
  5
4E
102
{ACAD_REACTORS
330
47
102
}
330
47
100
AcDbScale
 70
     0
300
1:16
140
1.0
141
16.0
290
     0
  0
SCALE
  5
4F
102
{ACAD_REACTORS
330
47
102
}
330
47
100
AcDbScale
 70
     0
300
1:20
140
1.0
141
20.0
290
     0
  0
SCALE
  5
50
102
{ACAD_REACTORS
330
47
102
}
330
47
100
AcDbScale
 70
     0
300
1:30
140
1.0
141
30.0
290
     0
  0
SCALE
  5
51
102
{ACAD_REACTORS
330
47
102
}
330
47
100
AcDbScale
 70
     0
300
1:40
140
1.0
141
40.0
290
     0
  0
SCALE
  5
52
102
{ACAD_REACTORS
330
47
102
}
330
47
100
AcDbScale
 70
     0
300
1:50
140
1.0
141
50.0
290
     0
  0
SCALE
  5
53
102
{ACAD_REACTORS
330
47
102
}
330
47
100
AcDbScale
 70
     0
300
1:100
140
1.0
141
100.0
290
     0
  0
SCALE
  5
54
102
{ACAD_REACTORS
330
47
102
}
330
47
100
AcDbScale
 70
     0
300
2:1
140
2.0
141
1.0
290
     0
  0
SCALE
  5
55
102
{ACAD_REACTORS
330
47
102
}
330
47
100
AcDbScale
 70
     0
300
4:1
140
4.0
141
1.0
290
     0
  0
SCALE
  5
56
102
{ACAD_REACTORS
330
47
102
}
330
47
100
AcDbScale
 70
     0
300
8:1
140
8.0
141
1.0
290
     0
  0
SCALE
  5
57
102
{ACAD_REACTORS
330
47
102
}
330
47
100
AcDbScale
 70
     0
300
10:1
140
10.0
141
1.0
290
     0
  0
SCALE
  5
58
102
{ACAD_REACTORS
330
47
102
}
330
47
100
AcDbScale
 70
     0
300
100:1
140
100.0
141
1.0
290
     0
  0
ENDSEC
  0
EOF
