  0
SECTION
  2
HEADER
  9
$ACADVER
  1
AC1015
  9
$ACADMAINTVER
 70
     6
  9
$DWGCODEPAGE
  3
ANSI_1252
  9
$INSBASE
 10
0.0
 20
0.0
 30
0.0
  9
$EXTMIN
 10
310.0
 20
293.75
 30
0.0
  9
$EXTMAX
 10
860.0
 20
402.5
 30
0.0
  9
$LIMMIN
 10
0.0
 20
0.0
  9
$LIMMAX
 10
420.0
 20
297.0
  9
$ORTHOMODE
 70
     0
  9
$REGENMODE
 70
     1
  9
$FILLMODE
 70
     1
  9
$QTEXTMODE
 70
     0
  9
$MIRRTEXT
 70
     1
  9
$LTSCALE
 40
1.0
  9
$ATTMODE
 70
     1
  9
$TEXTSIZE
 40
3.5
  9
$TRACEWID
 40
1.0
  9
$TEXTSTYLE
  7
Standard
  9
$CLAYER
  8
0
  9
$CELTYPE
  6
ByLayer
  9
$CECOLOR
 62
   256
  9
$CELTSCALE
 40
1.0
  9
$DISPSILH
 70
     0
  9
$DIMSCALE
 40
1.0
  9
$DIMASZ
 40
3.302
  9
$DIMEXO
 40
0.0
  9
$DIMDLI
 40
3.75
  9
$DIMRND
 40
0.0
  9
$DIMDLE
 40
0.0
  9
$DIMEXE
 40
1.0
  9
$DIMTP
 40
0.0
  9
$DIMTM
 40
0.0
  9
$DIMTXT
 40
3.5
  9
$DIMCEN
 40
2.5
  9
$DIMTSZ
 40
0.0
  9
$DIMTOL
 70
     0
  9
$DIMLIM
 70
     0
  9
$DIMTIH
 70
     1
  9
$DIMTOH
 70
     1
  9
$DIMSE1
 70
     0
  9
$DIMSE2
 70
     0
  9
$DIMTAD
 70
     1
  9
$DIMZIN
 70
     1
  9
$DIMBLK
  1

  9
$DIMASO
 70
     1
  9
$DIMSHO
 70
     1
  9
$DIMPOST
  1

  9
$DIMAPOST
  1

  9
$DIMALT
 70
     0
  9
$DIMALTD
 70
     3
  9
$DIMALTF
 40
0.0393700787
  9
$DIMLFAC
 40
1.0
  9
$DIMTOFL
 70
     1
  9
$DIMTVP
 40
0.0
  9
$DIMTIX
 70
     0
  9
$DIMSOXD
 70
     0
  9
$DIMSAH
 70
     0
  9
$DIMBLK1
  1

  9
$DIMBLK2
  1

  9
$DIMSTYLE
  2
ISO-25
  9
$DIMCLRD
 70
     0
  9
$DIMCLRE
 70
     0
  9
$DIMCLRT
 70
     0
  9
$DIMTFAC
 40
1.0
  9
$DIMGAP
 40
1.524
  9
$DIMJUST
 70
     0
  9
$DIMSD1
 70
     0
  9
$DIMSD2
 70
     0
  9
$DIMTOLJ
 70
     0
  9
$DIMTZIN
 70
     1
  9
$DIMALTZ
 70
     0
  9
$DIMALTTZ
 70
     0
  9
$DIMUPT
 70
     0
  9
$DIMDEC
 70
     2
  9
$DIMTDEC
 70
     2
  9
$DIMALTU
 70
     2
  9
$DIMALTTD
 70
     3
  9
$DIMTXSTY
  7
Standard
  9
$DIMAUNIT
 70
     0
  9
$DIMADEC
 70
     2
  9
$DIMALTRND
 40
0.0
  9
$DIMAZIN
 70
     0
  9
$DIMDSEP
 70
    44
  9
$DIMATFIT
 70
     3
  9
$DIMFRAC
 70
     0
  9
$DIMLDRBLK
  1

  9
$DIMLUNIT
 70
     2
  9
$DIMLWD
 70
    -2
  9
$DIMLWE
 70
    -2
  9
$DIMTMOVE
 70
     0
  9
$LUNITS
 70
     2
  9
$LUPREC
 70
     2
  9
$SKETCHINC
 40
1.0
  9
$FILLETRAD
 40
0.0
  9
$AUNITS
 70
     0
  9
$AUPREC
 70
     2
  9
$MENU
  1
.
  9
$ELEVATION
 40
0.0
  9
$PELEVATION
 40
0.0
  9
$THICKNESS
 40
0.0
  9
$LIMCHECK
 70
     0
  9
$CHAMFERA
 40
0.0
  9
$CHAMFERB
 40
0.0
  9
$CHAMFERC
 40
0.0
  9
$CHAMFERD
 40
0.0
  9
$SKPOLY
 70
     0
  9
$TDCREATE
 40
2460978.92577375
  9
$TDUCREATE
 40
2460979.134107084
  9
$TDUPDATE
 40
2460978.925810348
  9
$TDUUPDATE
 40
2460979.134143681
  9
$TDINDWG
 40
0.0000000116
  9
$TDUSRTIMER
 40
0.0000000116
  9
$USRTIMER
 70
     1
  9
$ANGBASE
 50
0.0
  9
$ANGDIR
 70
     0
  9
$PDMODE
 70
     0
  9
$PDSIZE
 40
-1.0
  9
$PLINEWID
 40
0.0
  9
$SPLFRAME
 70
     0
  9
$SPLINETYPE
 70
     6
  9
$SPLINESEGS
 70
     8
  9
$HANDSEED
  5
E6
  9
$SURFTAB1
 70
     6
  9
$SURFTAB2
 70
     6
  9
$SURFTYPE
 70
     6
  9
$SURFU
 70
     6
  9
$SURFV
 70
     6
  9
$UCSBASE
  2

  9
$UCSNAME
  2

  9
$UCSORG
 10
0.0
 20
0.0
 30
0.0
  9
$UCSXDIR
 10
1.0
 20
0.0
 30
0.0
  9
$UCSYDIR
 10
0.0
 20
1.0
 30
0.0
  9
$UCSORTHOREF
  2

  9
$UCSORTHOVIEW
 70
     0
  9
$UCSORGTOP
 10
0.0
 20
0.0
 30
0.0
  9
$UCSORGBOTTOM
 10
0.0
 20
0.0
 30
0.0
  9
$UCSORGLEFT
 10
0.0
 20
0.0
 30
0.0
  9
$UCSORGRIGHT
 10
0.0
 20
0.0
 30
0.0
  9
$UCSORGFRONT
 10
0.0
 20
0.0
 30
0.0
  9
$UCSORGBACK
 10
0.0
 20
0.0
 30
0.0
  9
$PUCSBASE
  2

  9
$PUCSNAME
  2

  9
$PUCSORG
 10
0.0
 20
0.0
 30
0.0
  9
$PUCSXDIR
 10
1.0
 20
0.0
 30
0.0
  9
$PUCSYDIR
 10
0.0
 20
1.0
 30
0.0
  9
$PUCSORTHOREF
  2

  9
$PUCSORTHOVIEW
 70
     0
  9
$PUCSORGTOP
 10
0.0
 20
0.0
 30
0.0
  9
$PUCSORGBOTTOM
 10
0.0
 20
0.0
 30
0.0
  9
$PUCSORGLEFT
 10
0.0
 20
0.0
 30
0.0
  9
$PUCSORGRIGHT
 10
0.0
 20
0.0
 30
0.0
  9
$PUCSORGFRONT
 10
0.0
 20
0.0
 30
0.0
  9
$PUCSORGBACK
 10
0.0
 20
0.0
 30
0.0
  9
$USERI1
 70
     0
  9
$USERI2
 70
     0
  9
$USERI3
 70
     0
  9
$USERI4
 70
     0
  9
$USERI5
 70
     0
  9
$USERR1
 40
0.0
  9
$USERR2
 40
0.0
  9
$USERR3
 40
0.0
  9
$USERR4
 40
0.0
  9
$USERR5
 40
0.0
  9
$WORLDVIEW
 70
     1
  9
$SHADEDGE
 70
     3
  9
$SHADEDIF
 70
    70
  9
$TILEMODE
 70
     1
  9
$MAXACTVP
 70
    64
  9
$PINSBASE
 10
0.0
 20
0.0
 30
0.0
  9
$PLIMCHECK
 70
     0
  9
$PEXTMIN
 10
1.0000000000E+20
 20
1.0000000000E+20
 30
1.0000000000E+20
  9
$PEXTMAX
 10
-1.0000000000E+20
 20
-1.0000000000E+20
 30
-1.0000000000E+20
  9
$PLIMMIN
 10
0.0
 20
0.0
  9
$PLIMMAX
 10
420.0
 20
297.0
  9
$UNITMODE
 70
     0
  9
$VISRETAIN
 70
     1
  9
$PLINEGEN
 70
     0
  9
$PSLTSCALE
 70
     1
  9
$TREEDEPTH
 70
  3020
  9
$CMLSTYLE
  2
Standard
  9
$CMLJUST
 70
     0
  9
$CMLSCALE
 40
20.0
  9
$PROXYGRAPHICS
 70
     1
  9
$MEASUREMENT
 70
     1
  9
$CELWEIGHT
370
    -1
  9
$ENDCAPS
280
     0
  9
$JOINSTYLE
280
     0
  9
$LWDISPLAY
290
     1
  9
$INSUNITS
 70
     4
  9
$HYPERLINKBASE
  1

  9
$STYLESHEET
  1

  9
$XEDIT
290
     1
  9
$CEPSNTYPE
380
     0
  9
$PSTYLEMODE
290
     1
  9
$FINGERPRINTGUID
  2
{c929cb85-9a98-4429-9b36-1ad4a9d3f233}
  9
$VERSIONGUID
  2
{FAEB1C32-E019-11D5-929B-00C0DF256EC4}
  9
$EXTNAMES
290
     1
  9
$PSVPSCALE
 40
0.0
  9
$OLESTARTUP
290
     0
  0
ENDSEC
  0
SECTION
  2
CLASSES
  0
CLASS
  1
ACDBDICTIONARYWDFLT
  2
AcDbDictionaryWithDefault
  3
ObjectDBX Classes
 90
        0
280
     0
281
     0
  0
CLASS
  1
VISUALSTYLE
  2
AcDbVisualStyle
  3
ObjectDBX Classes
 90
     4095
280
     0
281
     0
  0
CLASS
  1
MATERIAL
  2
AcDbMaterial
  3
ObjectDBX Classes
 90
     1153
280
     0
281
     0
  0
CLASS
  1
SCALE
  2
AcDbScale
  3
ObjectDBX Classes
 90
     1153
280
     0
281
     0
  0
CLASS
  1
TABLESTYLE
  2
AcDbTableStyle
  3
ObjectDBX Classes
 90
     4095
280
     0
281
     0
  0
CLASS
  1
MLEADERSTYLE
  2
AcDbMLeaderStyle
  3
ACDB_MLEADERSTYLE_CLASS
 90
     4095
280
     0
281
     0
  0
CLASS
  1
SUN
  2
AcDbSun
  3
SCENEOE
 90
     1153
280
     0
281
     0
  0
CLASS
  1
ACDBPLACEHOLDER
  2
AcDbPlaceHolder
  3
ObjectDBX Classes
 90
        0
280
     0
281
     0
  0
CLASS
  1
LAYOUT
  2
AcDbLayout
  3
ObjectDBX Classes
 90
        0
280
     0
281
     0
  0
ENDSEC
  0
SECTION
  2
TABLES
  0
TABLE
  2
VPORT
  5
8
330
0
100
AcDbSymbolTable
 70
     1
  0
VPORT
  5
29
330
8
100
AcDbSymbolTableRecord
100
AcDbViewportTableRecord
  2
*Active
 70
     0
 10
0.0
 20
0.0
 11
1.0
 21
1.0
 12
585.0
 22
348.125
 13
0.0
 23
0.0
 14
10.0
 24
10.0
 15
10.0
 25
10.0
 16
0.0
 26
0.0
 36
1.0
 17
0.0
 27
0.0
 37
0.0
 40
110.925
 41
5.0574712644
 42
50.0
 43
0.0
 44
0.0
 50
0.0
 51
0.0
 71
     0
 72
   100
 73
     1
 74
     3
 75
     0
 76
     0
 77
     0
 78
     0
281
     0
 65
     1
110
0.0
120
0.0
130
0.0
111
1.0
121
0.0
131
0.0
112
0.0
122
1.0
132
0.0
 79
     0
146
0.0
  0
ENDTAB
  0
TABLE
  2
LTYPE
  5
5
330
0
100
AcDbSymbolTable
 70
     6
  0
LTYPE
  5
14
330
5
100
AcDbSymbolTableRecord
100
AcDbLinetypeTableRecord
  2
ByBlock
 70
     0
  3

 72
    65
 73
     0
 40
0.0
  0
LTYPE
  5
15
330
5
100
AcDbSymbolTableRecord
100
AcDbLinetypeTableRecord
  2
ByLayer
 70
     0
  3

 72
    65
 73
     0
 40
0.0
  0
LTYPE
  5
16
330
5
100
AcDbSymbolTableRecord
100
AcDbLinetypeTableRecord
  2
Continuous
 70
     0
  3
Solid line
 72
    65
 73
     0
 40
0.0
  0
LTYPE
  5
5E
330
5
100
AcDbSymbolTableRecord
100
AcDbLinetypeTableRecord
  2
HIDDEN
 70
     0
  3
Hidden __ __ __ __ __ __ __ __ __ __ __ __ __ __
 72
    65
 73
     2
 40
1.905
 49
1.27
 74
     0
 49
-0.635
 74
     0
  0
LTYPE
  5
5F
330
5
100
AcDbSymbolTableRecord
100
AcDbLinetypeTableRecord
  2
PHANTOM
 70
     0
  3
Phantom ______  __  __  ______  __  __  ______
 72
    65
 73
     6
 40
12.7
 49
6.35
 74
     0
 49
-1.27
 74
     0
 49
1.27
 74
     0
 49
-1.27
 74
     0
 49
1.27
 74
     0
 49
-1.27
 74
     0
  0
LTYPE
  5
60
330
5
100
AcDbSymbolTableRecord
100
AcDbLinetypeTableRecord
  2
CENTER
 70
     0
  3
Center ____ _ ____ _ ____ _ ____ _ ____ _ ____
 72
    65
 73
     4
 40
10.16
 49
6.35
 74
     0
 49
-1.27
 74
     0
 49
1.27
 74
     0
 49
-1.27
 74
     0
  0
LTYPE
  5
61
330
5
100
AcDbSymbolTableRecord
100
AcDbLinetypeTableRecord
  2
CENTERX2
 70
     0
  3
Center (2x) ________  __  ________  __  _____
 72
    65
 73
     4
 40
20.32
 49
12.7
 74
     0
 49
-2.54
 74
     0
 49
2.54
 74
     0
 49
-2.54
 74
     0
  0
LTYPE
  5
62
330
5
100
AcDbSymbolTableRecord
100
AcDbLinetypeTableRecord
  2
DOT2
 70
     0
  3
Dot (.5x) ........................................
 72
    65
 73
     2
 40
0.635
 49
0.0
 74
     0
 49
-0.635
 74
     0
  0
ENDTAB
  0
TABLE
  2
LAYER
  5
2
330
0
100
AcDbSymbolTable
 70
     1
  0
LAYER
  5
10
330
2
100
AcDbSymbolTableRecord
100
AcDbLayerTableRecord
  2
0
 70
     0
 62
     7
  6
Continuous
370
    -3
390
F
  0
ENDTAB
  0
TABLE
  2
STYLE
  5
3
330
0
100
AcDbSymbolTable
 70
     1
  0
STYLE
  5
11
330
3
100
AcDbSymbolTableRecord
100
AcDbTextStyleTableRecord
  2
Standard
 70
     0
 40
0.0
 41
1.0
 50
0.0
 71
     0
 42
3.5
  3
txt
  4

  0
ENDTAB
  0
TABLE
  2
VIEW
  5
6
330
0
100
AcDbSymbolTable
 70
     0
  0
ENDTAB
  0
TABLE
  2
UCS
  5
7
330
0
100
AcDbSymbolTable
 70
     0
  0
ENDTAB
  0
TABLE
  2
APPID
  5
9
330
0
100
AcDbSymbolTable
 70
     1
  0
APPID
  5
12
330
9
100
AcDbSymbolTableRecord
100
AcDbRegAppTableRecord
  2
ACAD
 70
     0
  0
ENDTAB
  0
TABLE
  2
DIMSTYLE
  5
A
330
0
100
AcDbSymbolTable
 70
     1
100
AcDbDimStyleTable
  0
DIMSTYLE
105
27
330
A
100
AcDbSymbolTableRecord
100
AcDbDimStyleTableRecord
  2
ISO-25
 70
     0
 41
2.5
 42
0.625
 43
3.75
 44
1.25
 73
     0
 74
     0
 77
     1
 78
     8
140
2.5
141
2.5
143
0.0393700787
147
0.625
171
     3
172
     1
178
     0
271
     2
272
     2
274
     3
278
    44
283
     0
284
     8
340
11
  0
ENDTAB
  0
TABLE
  2
BLOCK_RECORD
  5
1
330
0
100
AcDbSymbolTable
 70
     1
  0
BLOCK_RECORD
  5
1F
330
1
100
AcDbSymbolTableRecord
100
AcDbBlockTableRecord
  2
*Model_Space
340
22
  0
BLOCK_RECORD
  5
1B
330
1
100
AcDbSymbolTableRecord
100
AcDbBlockTableRecord
  2
*Paper_Space
340
1E
  0
BLOCK_RECORD
  5
23
330
1
100
AcDbSymbolTableRecord
100
AcDbBlockTableRecord
  2
*Paper_Space0
340
26
  0
ENDTAB
  0
ENDSEC
  0
SECTION
  2
BLOCKS
  0
BLOCK
  5
20
330
1F
100
AcDbEntity
  8
0
100
AcDbBlockBegin
  2
*Model_Space
 70
     0
 10
0.0
 20
0.0
 30
0.0
  3
*Model_Space
  1

  0
ENDBLK
  5
21
330
1F
100
AcDbEntity
  8
0
100
AcDbBlockEnd
  0
BLOCK
  5
1C
330
1B
100
AcDbEntity
 67
     1
  8
0
100
AcDbBlockBegin
  2
*Paper_Space
 70
     0
 10
0.0
 20
0.0
 30
0.0
  3
*Paper_Space
  1

  0
ENDBLK
  5
1D
330
1B
100
AcDbEntity
 67
     1
  8
0
100
AcDbBlockEnd
  0
BLOCK
  5
24
330
23
100
AcDbEntity
  8
0
100
AcDbBlockBegin
  2
*Paper_Space0
 70
     0
 10
0.0
 20
0.0
 30
0.0
  3
*Paper_Space0
  1

  0
ENDBLK
  5
25
330
23
100
AcDbEntity
  8
0
100
AcDbBlockEnd
  0
ENDSEC
  0
SECTION
  2
ENTITIES
  0
SPLINE
  5
63
330
1F
100
AcDbEntity
  8
0
  6
Continuous
 62
     7
370
    25
100
AcDbSpline
210
0.0
220
0.0
230
1.0
 70
     8
 71
     3
 72
     9
 73
     5
 74
     0
 42
0.00000001
 43
0.00000001
 40
0.0
 40
0.0
 40
0.0
 40
0.0
 40
0.4266740168893549
 40
1.0
 40
1.0
 40
1.0
 40
1.0
 10
396.2499999999999
 20
396.09375
 30
0.0
 10
396.2212095538095
 20
395.7014478380459
 30
0.0
 10
396.153733107973
 20
394.7820054852766
 30
0.0
 10
395.9169842638227
 20
393.8902009575826
 30
0.0
 10
395.7812499999999
 20
393.3789062500001
 30
0.0
  0
SPLINE
  5
64
330
1F
100
AcDbEntity
  8
0
  6
Continuous
 62
     7
370
    25
100
AcDbSpline
210
0.0
220
0.0
230
1.0
 70
     8
 71
     3
 72
    15
 73
    11
 74
     0
 42
0.00000001
 43
0.00000001
 40
0.0
 40
0.0
 40
0.0
 40
0.0
 40
0.1188072428829581
 40
0.2360024617674163
 40
0.3550382117168848
 40
0.4839683093945231
 40
0.6139031697579556
 40
0.7382972253876414
 40
0.8654994876928709
 40
1.0
 40
1.0
 40
1.0
 40
1.0
 10
390.0195312499999
 20
402.5000000000001
 30
0.0
 10
390.4122939998923
 20
402.4760492907181
 30
0.0
 10
391.1924903382287
 20
402.4284728449186
 30
0.0
 10
392.3281347503913
 20
402.0877814792931
 30
0.0
 10
393.3858710645403
 20
401.4938999440911
 30
0.0
 10
394.3656567729914
 20
400.7098898852853
 30
0.0
 10
395.1975068341325
 20
399.7453764509396
 30
0.0
 10
395.8316208156098
 20
398.6449671325747
 30
0.0
 10
396.1864096383275
 20
397.40424059691
 30
0.0
 10
396.2284127580333
 20
396.5386268157087
 30
0.0
 10
396.2499999999999
 20
396.09375
 30
0.0
  0
SPLINE
  5
65
330
1F
100
AcDbEntity
  8
0
  6
Continuous
 62
     7
370
    25
100
AcDbSpline
210
0.0
220
0.0
230
1.0
 70
     8
 71
     3
 72
    15
 73
    11
 74
     0
 42
0.00000001
 43
0.00000001
 40
0.0
 40
0.0
 40
0.0
 40
0.0
 40
0.1777834113386312
 40
0.3362622433330631
 40
0.4760612211452339
 40
0.6015115454819132
 40
0.7113264953776969
 40
0.8121913839252446
 40
0.9049127008033448
 40
1.0
 40
1.0
 40
1.0
 40
1.0
 10
384.08203125
 20
395.3515625000001
 30
0.0
 10
384.2517126622348
 20
395.9161657095555
 30
0.0
 10
384.5726506614573
 20
396.9840647919762
 30
0.0
 10
385.2186202249314
 20
398.4244112862477
 30
0.0
 10
385.8435959822289
 20
399.6844525087674
 30
0.0
 10
386.5682298900549
 20
400.6975163198776
 30
0.0
 10
387.3314843103104
 20
401.5195338450928
 30
0.0
 10
388.1847637793401
 20
402.0626616112679
 30
0.0
 10
389.0789600623224
 20
402.4340916293566
 30
0.0
 10
389.7033853846464
 20
402.4778468029384
 30
0.0
 10
390.0195312499999
 20
402.5000000000001
 30
0.0
  0
SPLINE
  5
66
330
1F
100
AcDbEntity
  8
0
  6
Continuous
 62
     7
370
    25
100
AcDbSpline
210
0.0
220
0.0
230
1.0
 70
     8
 71
     3
 72
    11
 73
     7
 74
     0
 42
0.00000001
 43
0.00000001
 40
0.0
 40
0.0
 40
0.0
 40
0.0
 40
0.2431657346027224
 40
0.4914779529081216
 40
0.7429428249510632
 40
1.0
 40
1.0
 40
1.0
 40
1.0
 10
382.4999999999999
 20
385.0585937500001
 30
0.0
 10
382.519706779359
 20
385.9056839717008
 30
0.0
 10
382.5595374224128
 20
387.6177926648527
 30
0.0
 10
382.8577163926936
 20
390.1922664131745
 30
0.0
 10
383.3711114435793
 20
392.7807664819794
 30
0.0
 10
383.8433269698422
 20
394.4883708891155
 30
0.0
 10
384.0820312499999
 20
395.3515625000001
 30
0.0
  0
SPLINE
  5
67
330
1F
100
AcDbEntity
  8
0
  6
Continuous
 62
     7
370
    25
100
AcDbSpline
210
0.0
220
0.0
230
1.0
 70
     8
 71
     3
 72
    15
 73
    11
 74
     0
 42
0.00000001
 43
0.00000001
 40
0.0
 40
0.0
 40
0.0
 40
0.0
 40
0.088143630356728
 40
0.187133281086214
 40
0.2962849662049396
 40
0.415605687389631
 40
0.5457734112800432
 40
0.686788162567314
 40
0.8379704996830901
 40
0.9999999999999999
 40
0.9999999999999999
 40
0.9999999999999999
 40
0.9999999999999999
 10
382.3437499999999
 20
356.2500000000001
 30
0.0
 10
382.3567281196352
 20
357.0963529545031
 30
0.0
 10
382.3842813086726
 20
358.8932020823659
 30
0.0
 10
382.4288202731901
 20
361.7381489374112
 30
0.0
 10
382.4403623494886
 20
364.8828257331642
 30
0.0
 10
382.4626479058539
 20
368.3268120586241
 30
0.0
 10
382.4798214840903
 20
372.0768235597822
 30
0.0
 10
382.5059964549648
 20
376.1327823192833
 30
0.0
 10
382.4983282572804
 20
380.4947957176774
 30
0.0
 10
382.4994300335092
 20
383.5026055478244
 30
0.0
 10
382.4999999999999
 20
385.0585937500001
 30
0.0
  0
SPLINE
  5
68
330
1F
100
AcDbEntity
  8
0
  6
Continuous
 62
     7
370
    25
100
AcDbSpline
210
0.0
220
0.0
230
1.0
 70
     8
 71
     3
 72
    15
 73
    11
 74
     0
 42
0.00000001
 43
0.00000001
 40
0.0
 40
0.0
 40
0.0
 40
0.0
 40
0.1463634665805776
 40
0.2863482805976864
 40
0.4207364836873341
 40
0.5488209934845997
 40
0.6706534941959619
 40
0.786294053120574
 40
0.8958466252572466
 40
0.9999999999999999
 40
0.9999999999999999
 40
0.9999999999999999
 40
0.9999999999999999
 10
352.9101562499999
 20
353.0468750000001
 30
0.0
 10
354.3350751662512
 20
353.2930678763448
 30
0.0
 10
357.1228137405837
 20
353.7747243202901
 30
0.0
 10
361.2334353634458
 20
354.3928842317528
 30
0.0
 10
365.1708119253232
 20
354.9471335033666
 30
0.0
 10
368.9411651591755
 20
355.3959100677704
 30
0.0
 10
372.5354052517285
 20
355.7527059263822
 30
0.0
 10
375.9550444172634
 20
355.9994619975784
 30
0.0
 10
379.2037360373388
 20
356.190957849329
 30
0.0
 10
381.3148575664495
 20
356.2306535821789
 30
0.0
 10
382.3437499999999
 20
356.2500000000001
 30
0.0
  0
LINE
  5
69
330
1F
100
AcDbEntity
  8
0
  6
Continuous
 62
     7
370
    25
100
AcDbLine
 10
323.75
 20
347.8515625
 30
0.0
 11
352.91015625
 21
353.046875
 31
0.0
  0
LINE
  5
6A
330
1F
100
AcDbEntity
  8
0
  6
Continuous
 62
     7
370
    25
100
AcDbLine
 10
323.75
 20
364.51171875
 30
0.0
 11
323.75
 21
347.8515625
 31
0.0
  0
SPLINE
  5
6B
330
1F
100
AcDbEntity
  8
0
  6
Continuous
 62
     7
370
    25
100
AcDbSpline
210
0.0
220
0.0
230
1.0
 70
     8
 71
     3
 72
    23
 73
    19
 74
     0
 42
0.00000001
 43
0.00000001
 40
0.0
 40
0.0
 40
0.0
 40
0.0
 40
0.044541040693853
 40
0.0940465491326245
 40
0.1484996567264038
 40
0.2085573355435056
 40
0.2735601361769568
 40
0.3441810607793865
 40
0.4197445972334958
 40
0.5003180538754132
 40
0.5808558800900433
 40
0.6564523291476586
 40
0.7264254165834981
 40
0.7914547051272086
 40
0.85149007721541
 40
0.9059607520282784
 40
0.955454663502434
 40
1.0
 40
1.0
 40
1.0
 40
1.0
 10
324.9999999999999
 20
396.0546875000001
 30
0.0
 10
325.0032004938179
 20
395.5858934766638
 30
0.0
 10
325.0099582029873
 20
394.5960544548996
 30
0.0
 10
324.9530381085559
 20
393.0340267205621
 30
0.0
 10
324.9319349088919
 20
391.3078675412438
 30
0.0
 10
324.8340968437903
 20
389.4209371553306
 30
0.0
 10
324.774655033157
 20
387.362291583072
 30
0.0
 10
324.637723764829
 20
385.1437620713161
 30
0.0
 10
324.5406057195516
 20
382.7591905534235
 30
0.0
 10
324.3648040948493
 20
380.27438141765
 30
0.0
 10
324.2490270619593
 20
377.7858793413452
 30
0.0
 10
324.0931031562606
 20
375.4112364404033
 30
0.0
 10
324.0140561231722
 20
373.1961650230309
 30
0.0
 10
323.8962457274405
 20
371.1467270321986
 30
0.0
 10
323.8569353470446
 20
369.2575244558326
 30
0.0
 10
323.7790284973935
 20
367.5330997223584
 30
0.0
 10
323.772996906148
 20
365.9699812106898
 30
0.0
 10
323.7573919110606
 20
364.9804490367196
 30
0.0
 10
323.7499999999999
 20
364.5117187500001
 30
0.0
  0
SPLINE
  5
6C
330
1F
100
AcDbEntity
  8
0
  6
Continuous
 62
     7
370
    25
100
AcDbSpline
210
0.0
220
0.0
230
1.0
 70
     8
 71
     3
 72
    15
 73
    11
 74
     0
 42
0.00000001
 43
0.00000001
 40
0.0
 40
0.0
 40
0.0
 40
0.0
 40
0.1292679815290443
 40
0.2514547843733707
 40
0.3710132683107856
 40
0.4954218313657514
 40
0.6203187517960679
 40
0.7433279527161099
 40
0.8668464467784285
 40
1.0
 40
1.0
 40
1.0
 40
1.0
 10
318.7499999999999
 20
402.5000000000001
 30
0.0
 10
319.1826121191972
 20
402.479680296342
 30
0.0
 10
320.0241382717938
 20
402.4401539833182
 30
0.0
 10
321.2167980242889
 20
402.0679112696824
 30
0.0
 10
322.3089971761779
 20
401.4988182682117
 30
0.0
 10
323.2273069187478
 20
400.6641658360514
 30
0.0
 10
324.0164772506025
 20
399.6973275985297
 30
0.0
 10
324.5906508560012
 20
398.5884385497668
 30
0.0
 10
324.9358251234171
 20
397.3575298912549
 30
0.0
 10
324.9780796519431
 20
396.4997021256644
 30
0.0
 10
324.9999999999999
 20
396.0546875000001
 30
0.0
  0
SPLINE
  5
6D
330
1F
100
AcDbEntity
  8
0
  6
Continuous
 62
     7
370
    25
100
AcDbSpline
210
0.0
220
0.0
230
1.0
 70
     8
 71
     3
 72
    15
 73
    11
 74
     0
 42
0.00000001
 43
0.00000001
 40
0.0
 40
0.0
 40
0.0
 40
0.0
 40
0.1329410827595404
 40
0.2581395338365097
 40
0.3800691725052867
 40
0.5047667974173985
 40
0.6291903947429844
 40
0.7494917268379562
 40
0.8709382888039419
 40
1.0
 40
1.0
 40
1.0
 40
1.0
 10
312.4999999999999
 20
396.0546875000001
 30
0.0
 10
312.5222246247139
 20
396.4997011800484
 30
0.0
 10
312.5653794880884
 20
397.3638104646575
 30
0.0
 10
312.9093370249511
 20
398.5976797951342
 30
0.0
 10
313.4622887356491
 20
399.7195398917153
 30
0.0
 10
314.247509098116
 20
400.6932505572299
 30
0.0
 10
315.2024303207422
 20
401.4856802070994
 30
0.0
 10
316.2721768935418
 20
402.099343220855
 30
0.0
 10
317.4807866909637
 20
402.4318733024519
 30
0.0
 10
318.318441003537
 20
402.4768355019469
 30
0.0
 10
318.7499999999999
 20
402.5000000000001
 30
0.0
  0
SPLINE
  5
6E
330
1F
100
AcDbEntity
  8
0
  6
Continuous
 62
     7
370
    25
100
AcDbSpline
210
0.0
220
0.0
230
1.0
 70
     8
 71
     3
 72
    23
 73
    19
 74
     0
 42
0.00000001
 43
0.00000001
 40
0.0
 40
0.0
 40
0.0
 40
0.0
 40
0.0444210100023334
 40
0.0938462617863143
 40
0.1483045904582853
 40
0.2083901618683376
 40
0.2735262511673807
 40
0.3436616662052913
 40
0.4194841323961208
 40
0.5003034495160417
 40
0.5811590763272546
 40
0.656947985328481
 40
0.7271140838274182
 40
0.7922231301174003
 40
0.8523314938982748
 40
0.9067718536752217
 40
0.9562089812957741
 40
1.0
 40
1.0
 40
1.0
 40
1.0
 10
311.2499999999999
 20
364.8632812500001
 30
0.0
 10
311.2573907369043
 20
365.3255009387566
 30
0.0
 10
311.2730048129977
 20
366.3020116014263
 30
0.0
 10
311.2790520388026
 20
367.8456055343735
 30
0.0
 10
311.3569706187915
 20
369.5504890405506
 30
0.0
 10
311.3962731733631
 20
371.4201722322077
 30
0.0
 10
311.5140926232933
 20
373.450065478653
 30
0.0
 10
311.5931375422985
 20
375.6456189128267
 30
0.0
 10
311.749076573628
 20
378.0007156327168
 30
0.0
 10
311.8647649827728
 20
380.4697034184365
 30
0.0
 10
312.0406997065882
 20
382.9349570782105
 30
0.0
 10
312.1369868876824
 20
385.2935454901126
 30
0.0
 10
312.275198783225
 20
387.4859502419778
 30
0.0
 10
312.3339679980447
 20
389.5186031622188
 30
0.0
 10
312.4319355137681
 20
391.3859845403326
 30
0.0
 10
312.4529825103604
 20
393.0926235384364
 30
0.0
 10
312.5097841616019
 20
394.6286051828168
 30
0.0
 10
312.5031269961659
 20
395.5989147808164
 30
0.0
 10
312.4999999999999
 20
396.0546875000001
 30
0.0
  0
LINE
  5
6F
330
1F
100
AcDbEntity
  8
0
  6
Continuous
 62
     7
370
    25
100
AcDbLine
 10
311.25
 20
343.0078125
 30
0.0
 11
311.25
 21
364.86328125
 31
0.0
  0
SPLINE
  5
70
330
1F
100
AcDbEntity
  8
0
  6
Continuous
 62
     7
370
    25
100
AcDbSpline
210
0.0
220
0.0
230
1.0
 70
     8
 71
     3
 72
    23
 73
    19
 74
     0
 42
0.00000001
 43
0.00000001
 40
0.0
 40
0.0
 40
0.0
 40
0.0
 40
0.0441520144730871
 40
0.0939398546038149
 40
0.1484404535148644
 40
0.2085754535226933
 40
0.2734332299471178
 40
0.3434543012281109
 40
0.4191435283756094
 40
0.4995253384787869
 40
0.5803968940552391
 40
0.655597826806916
 40
0.7261055211130893
 40
0.7909479902618652
 40
0.8510958280685277
 40
0.9060559136100736
 40
0.9553808080262713
 40
1.0
 40
1.0
 40
1.0
 40
1.0
 10
309.9999999999999
 20
301.4453125000001
 30
0.0
 10
310.00740525075
 20
302.0572766434534
 30
0.0
 10
310.023161002488
 20
303.3593196724029
 30
0.0
 10
310.0288548728271
 20
305.4170846545993
 30
0.0
 10
310.1070242543914
 20
307.6950918203594
 30
0.0
 10
310.1460190009885
 20
310.182977265114
 30
0.0
 10
310.2642641112604
 20
312.8837663245707
 30
0.0
 10
310.3431450345066
 20
315.8015981963891
 30
0.0
 10
310.4986673482705
 20
318.9318677400486
 30
0.0
 10
310.6154470787991
 20
322.2142293909509
 30
0.0
 10
310.7897842708404
 20
325.4873853493663
 30
0.0
 10
310.888090123809
 20
328.6266927817603
 30
0.0
 10
311.0245290019083
 20
331.542221017214
 30
0.0
 10
311.0842803838912
 20
334.2515725716588
 30
0.0
 10
311.1822615033929
 20
336.7442351168219
 30
0.0
 10
311.2026748049358
 20
339.0235745581869
 30
0.0
 10
311.2600410968205
 20
341.0870102785966
 30
0.0
 10
311.2532333647987
 20
342.3892890060954
 30
0.0
 10
311.2499999999999
 20
343.0078125000001
 30
0.0
  0
SPLINE
  5
71
330
1F
100
AcDbEntity
  8
0
  6
Continuous
 62
     7
370
    25
100
AcDbSpline
210
0.0
220
0.0
230
1.0
 70
     8
 71
     3
 72
    15
 73
    11
 74
     0
 42
0.00000001
 43
0.00000001
 40
0.0
 40
0.0
 40
0.0
 40
0.0
 40
0.1293755752698852
 40
0.2516640779709218
 40
0.3722579698485578
 40
0.4982458100864609
 40
0.6247769640869638
 40
0.7470031224032709
 40
0.8706244247301148
 40
1.0
 40
1.0
 40
1.0
 40
1.0
 10
316.2499999999999
 20
295.0000000000001
 30
0.0
 10
315.8177423948042
 20
295.0209086339234
 30
0.0
 10
314.9769058502663
 20
295.0615805464307
 30
0.0
 10
313.7763074089276
 20
295.4265671812038
 30
0.0
 10
312.6957938825477
 20
296.0309948974556
 30
0.0
 10
311.7469715465699
 20
296.8481763210464
 30
0.0
 10
310.9668324790119
 20
297.8359425807165
 30
0.0
 10
310.4127738260477
 20
298.9551964225773
 30
0.0
 10
310.0667072729794
 20
300.1684640155258
 30
0.0
 10
310.0225703806634
 20
301.0132912966605
 30
0.0
 10
309.9999999999999
 20
301.4453125000001
 30
0.0
  0
SPLINE
  5
72
330
1F
100
AcDbEntity
  8
0
  6
Continuous
 62
     7
370
    25
100
AcDbSpline
210
0.0
220
0.0
230
1.0
 70
     8
 71
     3
 72
    15
 73
    11
 74
     0
 42
0.00000001
 43
0.00000001
 40
0.0
 40
0.0
 40
0.0
 40
0.0
 40
0.1295733296753147
 40
0.2533835908306589
 40
0.3766833558256624
 40
0.5034079164492937
 40
0.628110349058496
 40
0.7479512460189118
 40
0.8704266703246852
 40
1.0
 40
1.0
 40
1.0
 40
1.0
 10
322.4999999999999
 20
301.42578125
 30
0.0
 10
322.4769612137752
 20
300.9939802581493
 30
0.0
 10
322.4319083437392
 20
300.1495836055856
 30
0.0
 10
322.0916519927882
 20
298.9303375523467
 30
0.0
 10
321.5104452025593
 20
297.8205149242166
 30
0.0
 10
320.7343740298988
 20
296.8367225133472
 30
0.0
 10
319.8081680834268
 20
296.0018355936618
 30
0.0
 10
318.7170203337091
 20
295.4319134065631
 30
0.0
 10
317.5240783878854
 20
295.059893243973
 30
0.0
 10
316.682591786628
 20
295.0203357388866
 30
0.0
 10
316.2499999999999
 20
295.0000000000001
 30
0.0
  0
SPLINE
  5
73
330
1F
100
AcDbEntity
  8
0
  6
Continuous
 62
     7
370
    25
100
AcDbSpline
210
0.0
220
0.0
230
1.0
 70
     8
 71
     3
 72
    23
 73
    19
 74
     0
 42
0.00000001
 43
0.00000001
 40
0.0
 40
0.0
 40
0.0
 40
0.0
 40
0.0459458273907283
 40
0.0971392058581438
 40
0.152402759978926
 40
0.2123519686461323
 40
0.2775318859465819
 40
0.3468293395819286
 40
0.4207740035818857
 40
0.4994267632785586
 40
0.5780472622337863
 40
0.6520216536523211
 40
0.7212922558506912
 40
0.7859145127882482
 40
0.8464253188117108
 40
0.9022854784904103
 40
0.95346894504477
 40
1.0
 40
1.0
 40
1.0
 40
1.0
 10
323.7499999999999
 20
334.9804687500001
 30
0.0
 10
323.7531910919266
 20
334.4661056439889
 30
0.0
 10
323.7599377358151
 20
333.37863314696
 30
0.0
 10
323.703386567227
 20
331.6733312075629
 30
0.0
 10
323.6824710445121
 20
329.8104996740257
 30
0.0
 10
323.5836813430373
 20
327.7933286075261
 30
0.0
 10
323.5259734387782
 20
325.6174927431924
 30
0.0
 10
323.3877772007373
 20
323.2882674012444
 30
0.0
 10
323.2908115163171
 20
320.8061020730731
 30
0.0
 10
323.1147961231362
 20
318.2235648021265
 30
0.0
 10
322.9988911858119
 20
315.6374724886376
 30
0.0
 10
322.8423308030341
 20
313.1586220915219
 30
0.0
 10
322.7639418186075
 20
310.8329112602337
 30
0.0
 10
322.6457005481176
 20
308.6597165071253
 30
0.0
 10
322.6063917439266
 20
306.6338618988298
 30
0.0
 10
322.5288621861631
 20
304.7596201682258
 30
0.0
 10
322.5229408059235
 20
303.0402997672598
 30
0.0
 10
322.5074002955744
 20
301.9465961803018
 30
0.0
 10
322.4999999999999
 20
301.42578125
 30
0.0
  0
LINE
  5
74
330
1F
100
AcDbEntity
  8
0
  6
Continuous
 62
     7
370
    25
100
AcDbLine
 10
352.40234375
 20
340.390625
 30
0.0
 11
323.75
 21
334.98046875
 31
0.0
  0
SPLINE
  5
75
330
1F
100
AcDbEntity
  8
0
  6
Continuous
 62
     7
370
    25
100
AcDbSpline
210
0.0
220
0.0
230
1.0
 70
     8
 71
     3
 72
    15
 73
    11
 74
     0
 42
0.00000001
 43
0.00000001
 40
0.0
 40
0.0
 40
0.0
 40
0.0
 40
0.1035091184353333
 40
0.2125058049710841
 40
0.328491067360872
 40
0.4500838173284241
 40
0.5780704083279875
 40
0.7124068831201795
 40
0.852666453158595
 40
1.0
 40
1.0
 40
1.0
 40
1.0
 10
381.2499999999999
 20
343.7500000000001
 30
0.0
 10
380.2472620935277
 20
343.7215725634455
 30
0.0
 10
378.1886258186665
 20
343.6632106009479
 30
0.0
 10
375.0090038789967
 20
343.4923743514898
 30
0.0
 10
371.6640249488252
 20
343.1845024676034
 30
0.0
 10
368.1396647693738
 20
342.8217353534538
 30
0.0
 10
364.4501654154467
 20
342.339784722448
 30
0.0
 10
360.5846903884189
 20
341.8085731120307
 30
0.0
 10
356.5525140538235
 20
341.126551833032
 30
0.0
 10
353.8082343560773
 20
340.6399238348857
 30
0.0
 10
352.4023437499999
 20
340.3906250000001
 30
0.0
  0
LINE
  5
76
330
1F
100
AcDbEntity
  8
0
  6
Continuous
 62
     7
370
    25
100
AcDbLine
 10
381.25
 20
334.00390625
 30
0.0
 11
381.25
 21
343.75
 31
0.0
  0
SPLINE
  5
77
330
1F
100
AcDbEntity
  8
0
  6
Continuous
 62
     7
370
    25
100
AcDbSpline
210
0.0
220
0.0
230
1.0
 70
     8
 71
     3
 72
    23
 73
    19
 74
     0
 42
0.00000001
 43
0.00000001
 40
0.0
 40
0.0
 40
0.0
 40
0.0
 40
0.0447019565524223
 40
0.0946035731980853
 40
0.1490387693126413
 40
0.2093449361564323
 40
0.2741821880759548
 40
0.3449052265572927
 40
0.4201568039096807
 40
0.500657769446714
 40
0.5811196220335688
 40
0.6570541324834739
 40
0.7270973553220271
 40
0.7919637308557889
 40
0.8515980197055382
 40
0.9066999348445172
 40
0.9559411345122787
 40
0.9999999999999999
 40
0.9999999999999999
 40
0.9999999999999999
 40
0.9999999999999999
 10
382.4999999999999
 20
303.8867187500001
 30
0.0
 10
382.5031746996914
 20
304.3359828363318
 30
0.0
 10
382.5098933750651
 20
305.2867686889982
 30
0.0
 10
382.4532767035021
 20
306.7836800685477
 30
0.0
 10
382.4316993623329
 20
308.4382507544069
 30
0.0
 10
382.3344987827346
 20
310.2405207322872
 30
0.0
 10
382.2743035378831
 20
312.2080514582901
 30
0.0
 10
382.1382222335754
 20
314.3223840934869
 30
0.0
 10
382.0402275365876
 20
316.5963175144648
 30
0.0
 10
381.8649351295304
 20
318.9638616494668
 30
0.0
 10
381.7485298963647
 20
321.3417228274845
 30
0.0
 10
381.5933707244723
 20
323.6121671271318
 30
0.0
 10
381.5141724713178
 20
325.7296437065024
 30
0.0
 10
381.3965786739187
 20
327.6813651151768
 30
0.0
 10
381.3562193486217
 20
329.4859546568684
 30
0.0
 10
381.2794568776945
 20
331.1322538649295
 30
0.0
 10
381.272966559494
 20
332.6237703171436
 30
0.0
 10
381.2573666892331
 20
333.5612177175852
 30
0.0
 10
381.2499999999999
 20
334.0039062500001
 30
0.0
  0
SPLINE
  5
78
330
1F
100
AcDbEntity
  8
0
  6
Continuous
 62
     7
370
    25
100
AcDbSpline
210
0.0
220
0.0
230
1.0
 70
     8
 71
     3
 72
    15
 73
    11
 74
     0
 42
0.00000001
 43
0.00000001
 40
0.0
 40
0.0
 40
0.0
 40
0.0
 40
0.1262003501345595
 40
0.2473041398989785
 40
0.369374809897612
 40
0.4948092811897524
 40
0.6217557097496704
 40
0.7455664154187361
 40
0.8698897326881255
 40
1.0
 40
1.0
 40
1.0
 40
1.0
 10
388.7499999999999
 20
297.5000000000001
 30
0.0
 10
388.3303100750957
 20
297.5205233345815
 30
0.0
 10
387.5078792673204
 20
297.5607411755078
 30
0.0
 10
386.331512577172
 20
297.9398095077145
 30
0.0
 10
385.2374318770126
 20
298.5010344893163
 30
0.0
 10
384.2878502543251
 20
299.3152299314156
 30
0.0
 10
383.483036362568
 20
300.2780042294998
 30
0.0
 10
382.9099489503689
 20
301.3924249779833
 30
0.0
 10
382.5676688918317
 20
302.6102174423025
 30
0.0
 10
382.5228957440395
 20
303.454815013792
 30
0.0
 10
382.4999999999999
 20
303.8867187500001
 30
0.0
  0
SPLINE
  5
79
330
1F
100
AcDbEntity
  8
0
  6
Continuous
 62
     7
370
    25
100
AcDbSpline
210
0.0
220
0.0
230
1.0
 70
     8
 71
     3
 72
    15
 73
    11
 74
     0
 42
0.00000001
 43
0.00000001
 40
0.0
 40
0.0
 40
0.0
 40
0.0
 40
0.1316343309078906
 40
0.2555516659136108
 40
0.3789580632706238
 40
0.5042582755800235
 40
0.627788730668645
 40
0.7477332686855491
 40
0.8703146124452784
 40
1.0
 40
1.0
 40
1.0
 40
1.0
 10
394.9999999999999
 20
303.9062500000001
 30
0.0
 10
394.9775377340097
 20
303.4678360446862
 30
0.0
 10
394.9339300409832
 20
302.6167099298843
 30
0.0
 10
394.5909296388896
 20
301.391729455138
 30
0.0
 10
394.0154803026082
 20
300.2842839638535
 30
0.0
 10
393.2337606120797
 20
299.3152980237269
 30
0.0
 10
392.3019775245826
 20
298.5028813873236
 30
0.0
 10
391.2176637338674
 20
297.9310969619592
 30
0.0
 10
390.0239050739696
 20
297.5601131711979
 30
0.0
 10
389.1825329408167
 20
297.5204104114595
 30
0.0
 10
388.7499999999999
 20
297.5000000000001
 30
0.0
  0
SPLINE
  5
7A
330
1F
100
AcDbEntity
  8
0
  6
Continuous
 62
     7
370
    25
100
AcDbSpline
210
0.0
220
0.0
230
1.0
 70
     8
 71
     3
 72
    23
 73
    19
 74
     0
 42
0.00000001
 43
0.00000001
 40
0.0
 40
0.0
 40
0.0
 40
0.0
 40
0.0439450941561448
 40
0.0937052666841486
 40
0.1480191198516116
 40
0.2074994176175001
 40
0.2728436747407275
 40
0.3427060279485731
 40
0.4184444559467189
 40
0.4986985353190684
 40
0.5796364782227675
 40
0.654693736632445
 40
0.725234150024097
 40
0.7905496457660992
 40
0.8507000865641072
 40
0.9056407175791602
 40
0.9554134754058168
 40
1.0
 40
1.0
 40
1.0
 40
1.0
 10
393.7499999999999
 20
334.1015625000001
 30
0.0
 10
393.757407214703
 20
333.6588748300057
 30
0.0
 10
393.7732018111752
 20
332.714920402983
 30
0.0
 10
393.7788282347534
 20
331.2233817877994
 30
0.0
 10
393.8565904715985
 20
329.5771120364572
 30
0.0
 10
393.896999456438
 20
327.7725346871479
 30
0.0
 10
394.013543280653
 20
325.8142471899617
 30
0.0
 10
394.0935137111305
 20
323.69029980586
 30
0.0
 10
394.2483753281695
 20
321.4198383312294
 30
0.0
 10
394.3657436594607
 20
319.0355286416703
 30
0.0
 10
394.5395067554722
 20
316.6613739910775
 30
0.0
 10
394.6382527681105
 20
314.3809819386901
 30
0.0
 10
394.7749732923818
 20
312.2601614360183
 30
0.0
 10
394.8338785203929
 20
310.2860701543742
 30
0.0
 10
394.9322352923418
 20
308.4708177594092
 30
0.0
 10
394.9528897484142
 20
306.8097126893717
 30
0.0
 10
395.0099230572575
 20
305.3063007203319
 30
0.0
 10
395.0031842244538
 20
304.3555143370551
 30
0.0
 10
394.9999999999999
 20
303.9062500000001
 30
0.0
  0
SPLINE
  5
7B
330
1F
100
AcDbEntity
  8
0
  6
Continuous
 62
     7
370
    25
100
AcDbSpline
210
0.0
220
0.0
230
1.0
 70
     8
 71
     3
 72
    23
 73
    19
 74
     0
 42
0.00000001
 43
0.00000001
 40
0.0
 40
0.0
 40
0.0
 40
0.0
 40
0.0445943651581269
 40
0.0941535686464055
 40
0.1491622127511138
 40
0.2091496101604139
 40
0.2740894381743099
 40
0.3445122174907662
 40
0.4198857992703025
 40
0.5002534721065744
 40
0.5805982301074658
 40
0.6559929812686243
 40
0.7259013995620757
 40
0.7908582381690462
 40
0.8508313092520178
 40
0.9058511101652978
 40
0.9554028821882375
 40
1.0
 40
1.0
 40
1.0
 40
1.0
 10
394.9999999999999
 20
373.4960937500001
 30
0.0
 10
395.0032086714687
 20
372.9101208635607
 30
0.0
 10
395.0099832464251
 20
371.6729367890107
 30
0.0
 10
394.9527356720396
 20
369.7136852295893
 30
0.0
 10
394.9323886851477
 20
367.5514917708765
 30
0.0
 10
394.8340360638945
 20
365.1890955478689
 30
0.0
 10
394.7747784158911
 20
362.6228996260592
 30
0.0
 10
394.6376878797373
 20
359.8571998537237
 30
0.0
 10
394.5406197140106
 20
356.8870362728949
 30
0.0
 10
394.364780512021
 20
353.7898210193499
 30
0.0
 10
394.2490636443629
 20
350.689637960027
 30
0.0
 10
394.0929810748876
 20
347.7287361191123
 30
0.0
 10
394.0140610041176
 20
344.9670870192713
 30
0.0
 10
393.8963232211285
 20
342.4095685200007
 30
0.0
 10
393.8565187253308
 20
340.0453533546339
 30
0.0
 10
393.7792630106152
 20
337.8845454226134
 30
0.0
 10
393.7729515851806
 20
335.9244236136588
 30
0.0
 10
393.7573773261344
 20
334.6874845976467
 30
0.0
 10
393.7499999999999
 20
334.1015625000001
 30
0.0
  0
LINE
  5
7C
330
1F
100
AcDbEntity
  8
0
  6
Continuous
 62
     7
370
    25
100
AcDbLine
 10
395.0
 20
385.25390625
 30
0.0
 11
395.0
 21
373.49609375
 31
0.0
  0
SPLINE
  5
7D
330
1F
100
AcDbEntity
  8
0
  6
Continuous
 62
     7
370
    25
100
AcDbSpline
210
0.0
220
0.0
230
1.0
 70
     8
 71
     3
 72
    11
 73
     7
 74
     0
 42
0.00000001
 43
0.00000001
 40
0.0
 40
0.0
 40
0.0
 40
0.0
 40
0.1928887031484256
 40
0.4241310354709306
 40
0.6919953157343948
 40
1.0
 40
1.0
 40
1.0
 40
1.0
 10
395.7812499999999
 20
393.3789062500001
 30
0.0
 10
395.6627885466968
 20
392.8660811743766
 30
0.0
 10
395.4023109861516
 20
391.7384618436986
 30
0.0
 10
395.161545133881
 20
389.8632362618216
 30
0.0
 10
395.0391208413578
 20
387.6644591371793
 30
0.0
 10
395.0136324941998
 20
386.0939149796796
 30
0.0
 10
394.9999999999999
 20
385.2539062500001
 30
0.0
  0
SPLINE
  5
7E
330
1F
100
AcDbEntity
  8
0
  6
Continuous
 62
     7
370
    25
100
AcDbSpline
210
0.0
220
0.0
230
1.0
 70
     8
 71
     3
 72
    15
 73
    11
 74
     0
 42
0.00000001
 43
0.00000001
 40
0.0
 40
0.0
 40
0.0
 40
0.0
 40
0.1294804090824533
 40
0.2546405647579676
 40
0.3773288994792049
 40
0.5072537143122308
 40
0.6350828302017457
 40
0.7584938907199692
 40
0.8779172050394926
 40
0.9999999999999999
 40
0.9999999999999999
 40
0.9999999999999999
 40
0.9999999999999999
 10
492.4999999999999
 20
304.35546875
 30
0.0
 10
492.4731885111618
 20
303.8904598844612
 30
0.0
 10
492.4204601277088
 20
302.9759576753829
 30
0.0
 10
492.0197546841079
 20
301.6684525546646
 30
0.0
 10
491.3527580449465
 20
300.4777538710663
 30
0.0
 10
490.4422001717258
 20
299.4496326601842
 30
0.0
 10
489.3726053246861
 20
298.5865214260171
 30
0.0
 10
488.1941595147844
 20
297.9567134807381
 30
0.0
 10
486.9326349303794
 20
297.5597633725534
 30
0.0
 10
486.0640665535356
 20
297.5200668377734
 30
0.0
 10
485.6249999999999
 20
297.5000000000001
 30
0.0
  0
SPLINE
  5
7F
330
1F
100
AcDbEntity
  8
0
  6
Continuous
 62
     7
370
    25
100
AcDbSpline
210
0.0
220
0.0
230
1.0
 70
     8
 71
     3
 72
    11
 73
     7
 74
     0
 42
0.00000001
 43
0.00000001
 40
0.0
 40
0.0
 40
0.0
 40
0.0
 40
0.349288813383583
 40
0.6323129004168405
 40
0.848021179240651
 40
1.0
 40
1.0
 40
1.0
 40
1.0
 10
490.5468749999999
 20
311.6992187500001
 30
0.0
 10
490.8429411071914
 20
310.8622182916869
 30
0.0
 10
491.3789056493702
 20
309.3470074771193
 30
0.0
 10
491.9710284670568
 20
307.2774054068526
 30
0.0
 10
492.3998073625783
 20
305.6741645134721
 30
0.0
 10
492.4706981768706
 20
304.7411277267148
 30
0.0
 10
492.4999999999999
 20
304.35546875
 30
0.0
  0
LINE
  5
80
330
1F
100
AcDbEntity
  8
0
  6
Continuous
 62
     7
370
    25
100
AcDbLine
 10
486.71875
 20
322.44140625
 30
0.0
 11
490.546875
 21
311.69921875
 31
0.0
  0
LINE
  5
81
330
1F
100
AcDbEntity
  8
0
  6
Continuous
 62
     7
370
    25
100
AcDbLine
 10
476.6796875
 20
368.203125
 30
0.0
 11
486.71875
 21
322.44140625
 31
0.0
  0
LINE
  5
82
330
1F
100
AcDbEntity
  8
0
  6
Continuous
 62
     7
370
    25
100
AcDbLine
 10
472.44140625
 20
390.3125
 30
0.0
 11
476.6796875
 21
368.203125
 31
0.0
  0
SPLINE
  5
83
330
1F
100
AcDbEntity
  8
0
  6
Continuous
 62
     7
370
    25
100
AcDbSpline
210
0.0
220
0.0
230
1.0
 70
     8
 71
     3
 72
    15
 73
    11
 74
     0
 42
0.00000001
 43
0.00000001
 40
0.0
 40
0.0
 40
0.0
 40
0.0
 40
0.1146653368679328
 40
0.2224797519161393
 40
0.3318181212049031
 40
0.443275005725369
 40
0.56251132934109
 40
0.6937527758424665
 40
0.839208280457701
 40
0.9999999999999999
 40
0.9999999999999999
 40
0.9999999999999999
 40
0.9999999999999999
 10
465.3515624999999
 20
397.5000000000001
 30
0.0
 10
465.7706368823202
 20
397.4778204001631
 30
0.0
 10
466.5837471662105
 20
397.4347863673499
 30
0.0
 10
467.7559072616667
 20
397.0862260410653
 30
0.0
 10
468.8175969443648
 20
396.5136157907227
 30
0.0
 10
469.7799756908097
 20
395.7142854252269
 30
0.0
 10
470.5933294715323
 20
394.6655386610412
 30
0.0
 10
471.3472312476385
 20
393.428817437048
 30
0.0
 10
471.9616645995416
 20
391.9485504358142
 30
0.0
 10
472.2762412547595
 20
390.8757578747042
 30
0.0
 10
472.4414062499999
 20
390.3125000000001
 30
0.0
  0
SPLINE
  5
84
330
1F
100
AcDbEntity
  8
0
  6
Continuous
 62
     7
370
    25
100
AcDbSpline
210
0.0
220
0.0
230
1.0
 70
     8
 71
     3
 72
    23
 73
    19
 74
     0
 42
0.00000001
 43
0.00000001
 40
0.0
 40
0.0
 40
0.0
 40
0.0
 40
0.1114596384954545
 40
0.2169285399094848
 40
0.3152264875227667
 40
0.4065222265440203
 40
0.4918578267237577
 40
0.5700351145379844
 40
0.6417787076602582
 40
0.7071271702113779
 40
0.7653566435234331
 40
0.8177444938547465
 40
0.8630239188029853
 40
0.9021790863264132
 40
0.9349502031898272
 40
0.9619167450712236
 40
0.9831054259099875
 40
1.0
 40
1.0
 40
1.0
 40
1.0
 10
446.0156249999999
 20
372.7539062500001
 30
0.0
 10
446.6447148412819
 20
373.7515527010046
 30
0.0
 10
447.8690821780444
 20
375.6932240618991
 30
0.0
 10
449.6882243050273
 20
378.489095259563
 30
0.0
 10
451.3745457687207
 20
381.1168815231965
 30
0.0
 10
453.0063132137711
 20
383.5256205269067
 30
0.0
 10
454.5466690478185
 20
385.7385269323527
 30
0.0
 10
455.9683097172322
 20
387.7820926347318
 30
0.0
 10
457.3137209663078
 20
389.6206304342278
 30
0.0
 10
458.5843577279776
 20
391.2509273619401
 30
0.0
 10
459.7399917890777
 20
392.710735855883
 30
0.0
 10
460.7984110806906
 20
393.9771391301126
 30
0.0
 10
461.7891829680052
 20
395.0328647583297
 30
0.0
 10
462.6495224376144
 20
395.9275989861342
 30
0.0
 10
463.4610818950158
 20
396.592978868519
 30
0.0
 10
464.1562970112554
 20
397.0882287546835
 30
0.0
 10
464.7703323581179
 20
397.4250940750632
 30
0.0
 10
465.1729516695866
 20
397.4769815629098
 30
0.0
 10
465.3515624999999
 20
397.5000000000001
 30
0.0
  0
SPLINE
  5
85
330
1F
100
AcDbEntity
  8
0
  6
Continuous
 62
     7
370
    25
100
AcDbSpline
210
0.0
220
0.0
230
1.0
 70
     8
 71
     3
 72
    15
 73
    11
 74
     0
 42
0.00000001
 43
0.00000001
 40
0.0
 40
0.0
 40
0.0
 40
0.0
 40
0.1085459584734803
 40
0.2218334081080388
 40
0.3401280644986465
 40
0.4627280854876528
 40
0.5898343203052092
 40
0.7219817596343987
 40
0.8587330670999518
 40
1.0
 40
1.0
 40
1.0
 40
1.0
 10
427.4609374999999
 20
340.6250000000001
 30
0.0
 10
428.0903703999923
 20
341.8110070276755
 30
0.0
 10
429.3767310102285
 20
344.23482809563
 30
0.0
 10
431.3889673672446
 20
347.9298256955103
 30
0.0
 10
433.5344758421753
 20
351.7497895037548
 30
0.0
 10
435.8094924618665
 20
355.6925912621317
 30
0.0
 10
438.1677083757282
 20
359.7852091974719
 30
0.0
 10
440.6638752483792
 20
364.0001625852095
 30
0.0
 10
443.3104136175482
 20
368.3289033496599
 30
0.0
 10
445.1041763268479
 20
371.2630197897512
 30
0.0
 10
446.0156249999999
 20
372.7539062500001
 30
0.0
  0
SPLINE
  5
86
330
1F
100
AcDbEntity
  8
0
  6
Continuous
 62
     7
370
    25
100
AcDbSpline
210
0.0
220
0.0
230
1.0
 70
     8
 71
     3
 72
    15
 73
    11
 74
     0
 42
0.00000001
 43
0.00000001
 40
0.0
 40
0.0
 40
0.0
 40
0.0
 40
0.126222468936795
 40
0.2441637291558773
 40
0.3567411864754865
 40
0.4700270901636294
 40
0.5875358770449356
 40
0.7118568811792408
 40
0.8485767407758217
 40
1.0
 40
1.0
 40
1.0
 40
1.0
 10
421.1328124999999
 20
333.7109375
 30
0.0
 10
421.1509236246822
 20
334.1419971515978
 30
0.0
 10
421.1859576386648
 20
334.9758354761792
 30
0.0
 10
421.4739976124396
 20
336.1716293858057
 30
0.0
 10
422.0086023416436
 20
337.2230211358595
 30
0.0
 10
422.6878655767505
 20
338.1884997107974
 30
0.0
 10
423.6159975919907
 20
338.9820341390121
 30
0.0
 10
424.7054058411495
 20
339.6854010334231
 30
0.0
 10
426.0162499511811
 20
340.2187095798086
 30
0.0
 10
426.9632668224206
 20
340.4850397512418
 30
0.0
 10
427.4609374999999
 20
340.6250000000001
 30
0.0
  0
SPLINE
  5
87
330
1F
100
AcDbEntity
  8
0
  6
Continuous
 62
     7
370
    25
100
AcDbSpline
210
0.0
220
0.0
230
1.0
 70
     8
 71
     3
 72
    11
 73
     7
 74
     0
 42
0.00000001
 43
0.00000001
 40
0.0
 40
0.0
 40
0.0
 40
0.0
 40
0.243924919982655
 40
0.4871368682686104
 40
0.7384258890857512
 40
1.0
 40
1.0
 40
1.0
 40
1.0
 10
422.2460937499999
 20
329.7265625000001
 30
0.0
 10
422.0743637689789
 20
330.0215252735031
 30
0.0
 10
421.7314057589961
 20
330.6105886695281
 30
0.0
 10
421.3742147378466
 20
331.5854338561625
 30
0.0
 10
421.186275331294
 20
332.6294698915187
 30
0.0
 10
421.1508701188651
 20
333.3456607382515
 30
0.0
 10
421.1328124999999
 20
333.7109375
 30
0.0
  0
SPLINE
  5
88
330
1F
100
AcDbEntity
  8
0
  6
Continuous
 62
     7
370
    25
100
AcDbSpline
210
0.0
220
0.0
230
1.0
 70
     8
 71
     3
 72
    23
 73
    19
 74
     0
 42
0.00000001
 43
0.00000001
 40
0.0
 40
0.0
 40
0.0
 40
0.0
 40
0.01795325260843
 40
0.0414916409671299
 40
0.0707838950662112
 40
0.1064185245094404
 40
0.1474396035627487
 40
0.1948281699004849
 40
0.2484034324174585
 40
0.307652917892401
 40
0.3728547594949291
 40
0.4447064518654388
 40
0.5218399032087105
 40
0.6056313291310009
 40
0.6950999414071145
 40
0.7908512668558222
 40
0.8925878823061975
 40
1.0
 40
1.0
 40
1.0
 40
1.0
 10
412.4999999999999
 20
305.4687500000001
 30
0.0
 10
412.5096813243824
 20
305.6254102166077
 30
0.0
 10
412.5320557678401
 20
305.9874665861742
 30
0.0
 10
412.6615138942776
 20
306.5939138302082
 30
0.0
 10
412.8676755418891
 20
307.3379435185497
 30
0.0
 10
413.1038957213765
 20
308.2334572696688
 30
0.0
 10
413.4821721527807
 20
309.2494658540242
 30
0.0
 10
413.8724659958832
 20
310.4266467364862
 30
0.0
 10
414.3973425104049
 20
311.7242737785866
 30
0.0
 10
414.9543136888054
 20
313.1757736062806
 30
0.0
 10
415.608235924595
 20
314.760680913314
 30
0.0
 10
416.3207212732662
 20
316.4902540022051
 30
0.0
 10
417.1316012878661
 20
318.3545494951468
 30
0.0
 10
418.0103982092048
 20
320.3569250141836
 30
0.0
 10
418.9399863835598
 20
322.5146583922978
 30
0.0
 10
419.9814195730793
 20
324.794235979529
 30
0.0
 10
421.0961175802008
 20
327.2124474206414
 30
0.0
 10
421.8558958611309
 20
328.873499260863
 30
0.0
 10
422.2460937499999
 20
329.7265625000001
 30
0.0
  0
SPLINE
  5
89
330
1F
100
AcDbEntity
  8
0
  6
Continuous
 62
     7
370
    25
100
AcDbSpline
210
0.0
220
0.0
230
1.0
 70
     8
 71
     3
 72
    15
 73
    11
 74
     0
 42
0.00000001
 43
0.00000001
 40
0.0
 40
0.0
 40
0.0
 40
0.0
 40
0.1199400295303178
 40
0.2391521725620839
 40
0.3593386792942733
 40
0.4881385560589527
 40
0.6178676300337542
 40
0.7423793815937586
 40
0.8687368802723693
 40
1.0
 40
1.0
 40
1.0
 40
1.0
 10
419.1406249999999
 20
298.7500000000001
 30
0.0
 10
418.7208769575802
 20
298.7701884498938
 30
0.0
 10
417.8839282202281
 20
298.810442830951
 30
0.0
 10
416.6815913371865
 20
299.2091760184142
 30
0.0
 10
415.5387215166725
 20
299.8049698711797
 30
0.0
 10
414.4969035535079
 20
300.6344211809602
 30
0.0
 10
413.6329528843669
 20
301.6624314777891
 30
0.0
 10
412.9536602760541
 20
302.8148911732419
 30
0.0
 10
412.5861142126848
 20
304.1125430053507
 30
0.0
 10
412.5290668369526
 20
305.010978322613
 30
0.0
 10
412.4999999999999
 20
305.4687500000001
 30
0.0
  0
SPLINE
  5
8A
330
1F
100
AcDbEntity
  8
0
  6
Continuous
 62
     7
370
    25
100
AcDbSpline
210
0.0
220
0.0
230
1.0
 70
     8
 71
     3
 72
    11
 73
     7
 74
     0
 42
0.00000001
 43
0.00000001
 40
0.0
 40
0.0
 40
0.0
 40
0.0
 40
0.2804617491186258
 40
0.5277351034636198
 40
0.7594896155857247
 40
1.0
 40
1.0
 40
1.0
 40
1.0
 10
424.7460937499999
 20
302.4414062500001
 30
0.0
 10
424.394682576267
 20
301.8802408236001
 30
0.0
 10
423.733444412022
 20
300.8243153888765
 30
0.0
 10
422.3814213216768
 20
299.6226558434976
 30
0.0
 10
420.8236914321819
 20
298.8780566504541
 30
0.0
 10
419.7085388508547
 20
298.793209907878
 30
0.0
 10
419.1406249999999
 20
298.7500000000001
 30
0.0
  0
SPLINE
  5
8B
330
1F
100
AcDbEntity
  8
0
  6
Continuous
 62
     7
370
    25
100
AcDbSpline
210
0.0
220
0.0
230
1.0
 70
     8
 71
     3
 72
    15
 73
    11
 74
     0
 42
0.00000001
 43
0.00000001
 40
0.0
 40
0.0
 40
0.0
 40
0.0
 40
0.0882854160612513
 40
0.1877434626707639
 40
0.297115302464979
 40
0.4164268129139502
 40
0.5466613290316705
 40
0.6877901429990455
 40
0.8385900315005553
 40
0.9999999999999999
 40
0.9999999999999999
 40
0.9999999999999999
 40
0.9999999999999999
 10
436.5624999999999
 20
327.79296875
 30
0.0
 10
436.2521639498571
 20
327.0303522479879
 30
0.0
 10
435.5922184317326
 20
325.4086091655486
 30
0.0
 10
434.5013549007983
 20
322.8613781476474
 30
0.0
 10
433.251525517604
 20
320.0678806254762
 30
0.0
 10
431.8286638184545
 20
317.0381249210763
 30
0.0
 10
430.3006862657224
 20
313.730546628913
 30
0.0
 10
428.5734737857703
 20
310.192470902181
 30
0.0
 10
426.7203055474931
 20
306.3925545460524
 30
0.0
 10
425.4189065143472
 20
303.7879603587277
 30
0.0
 10
424.7460937499999
 20
302.4414062500001
 30
0.0
  0
LINE
  5
8C
330
1F
100
AcDbEntity
  8
0
  6
Continuous
 62
     7
370
    25
100
AcDbLine
 10
453.37890625
 20
331.54296875
 30
0.0
 11
436.5625
 21
327.79296875
 31
0.0
  0
SPLINE
  5
8D
330
1F
100
AcDbEntity
  8
0
  6
Continuous
 62
     7
370
    25
100
AcDbSpline
210
0.0
220
0.0
230
1.0
 70
     8
 71
     3
 72
    11
 73
     7
 74
     0
 42
0.00000001
 43
0.00000001
 40
0.0
 40
0.0
 40
0.0
 40
0.0
 40
0.2042998518572764
 40
0.43846693458901
 40
0.7037539790425927
 40
1.0
 40
1.0
 40
1.0
 40
1.0
 10
470.2734374999999
 20
334.9609375000001
 30
0.0
 10
469.1133918167814
 20
334.7790129030585
 30
0.0
 10
466.62370976327
 20
334.3885675864214
 30
0.0
 10
462.6541141562789
 20
333.6093538101622
 30
0.0
 10
458.1831491482162
 20
332.6486252953156
 30
0.0
 10
455.0381188199111
 20
331.9248227230107
 30
0.0
 10
453.3789062499999
 20
331.5429687500001
 30
0.0
  0
SPLINE
  5
8E
330
1F
100
AcDbEntity
  8
0
  6
Continuous
 62
     7
370
    25
100
AcDbSpline
210
0.0
220
0.0
230
1.0
 70
     8
 71
     3
 72
    15
 73
    11
 74
     0
 42
0.00000001
 43
0.00000001
 40
0.0
 40
0.0
 40
0.0
 40
0.0
 40
0.0796673271471759
 40
0.1719932334990469
 40
0.2767880543848175
 40
0.3951697954908336
 40
0.5269632605466203
 40
0.6713109700872762
 40
0.8292841044475779
 40
1.0
 40
1.0
 40
1.0
 40
1.0
 10
474.8632812499999
 20
313.8085937500001
 30
0.0
 10
474.7052026203754
 20
314.3614666762701
 30
0.0
 10
474.3639277762229
 20
315.5550601569149
 30
0.0
 10
473.8558631387706
 20
317.4874376058114
 30
0.0
 10
473.3348703878997
 20
319.7043758644326
 30
0.0
 10
472.7636251691916
 20
322.2020325069909
 30
0.0
 10
472.183383524213
 20
324.9900411216144
 30
0.0
 10
471.5806885208746
 20
328.0648785415027
 30
0.0
 10
470.9373904997418
 20
331.4180157626541
 30
0.0
 10
470.5004022838376
 20
333.7498299869938
 30
0.0
 10
470.2734374999999
 20
334.9609375000001
 30
0.0
  0
SPLINE
  5
8F
330
1F
100
AcDbEntity
  8
0
  6
Continuous
 62
     7
370
    25
100
AcDbSpline
210
0.0
220
0.0
230
1.0
 70
     8
 71
     3
 72
    15
 73
    11
 74
     0
 42
0.00000001
 43
0.00000001
 40
0.0
 40
0.0
 40
0.0
 40
0.0
 40
0.0749346325642564
 40
0.1550415229925864
 40
0.2476671127625856
 40
0.3572156546185529
 40
0.4854540619104241
 40
0.6351704557625895
 40
0.8057568465679157
 40
1.0
 40
1.0
 40
1.0
 40
1.0
 10
485.6249999999999
 20
297.5000000000001
 30
0.0
 10
485.1076581967795
 20
297.5509369292308
 30
0.0
 10
484.0372657983081
 20
297.6563266377574
 30
0.0
 10
482.5228889340983
 20
298.5160046905039
 30
0.0
 10
481.0801532148112
 20
299.8231200197843
 30
0.0
 10
479.7362738396042
 20
301.6676593275456
 30
0.0
 10
478.4017360266355
 20
303.9745563916811
 30
0.0
 10
477.1596314891365
 20
306.8001998731374
 30
0.0
 10
475.9455392197302
 20
310.1222407764856
 30
0.0
 10
475.2392988980513
 20
312.527814292831
 30
0.0
 10
474.8632812499999
 20
313.8085937500001
 30
0.0
  0
LINE
  5
90
330
1F
100
AcDbEntity
  8
0
  6
Continuous
 62
     7
370
    25
100
AcDbLine
 10
461.875
 20
373.671875
 30
0.0
 11
444.921875
 21
343.8671875
 31
0.0
  0
LINE
  5
91
330
1F
100
AcDbEntity
  8
0
  6
Continuous
 62
     7
370
    25
100
AcDbLine
 10
467.34375
 20
348.45703125
 30
0.0
 11
461.875
 21
373.671875
 31
0.0
  0
SPLINE
  5
92
330
1F
100
AcDbEntity
  8
0
  6
Continuous
 62
     7
370
    25
100
AcDbSpline
210
0.0
220
0.0
230
1.0
 70
     8
 71
     3
 72
    15
 73
    11
 74
     0
 42
0.00000001
 43
0.00000001
 40
0.0
 40
0.0
 40
0.0
 40
0.0
 40
0.0887758503359625
 40
0.1877088626690695
 40
0.2970042634614038
 40
0.416311704161973
 40
0.5468292076782142
 40
0.6877215768808563
 40
0.8386715354855696
 40
0.9999999999999999
 40
0.9999999999999999
 40
0.9999999999999999
 40
0.9999999999999999
 10
444.9218749999999
 20
343.8671875000001
 30
0.0
 10
445.5787838020536
 20
344.0326488742421
 30
0.0
 10
446.9677606875934
 20
344.3825026493071
 30
0.0
 10
449.1791350253883
 20
344.8787435935851
 30
0.0
 10
451.6149202127581
 20
345.4388978243939
 30
0.0
 10
454.3028058194846
 20
345.9732165539596
 30
0.0
 10
457.2261370878615
 20
346.5579320542121
 30
0.0
 10
460.385709965374
 20
347.1937888760488
 30
0.0
 10
463.7892867950565
 20
347.8048855477928
 30
0.0
 10
466.1329650515551
 20
348.2348856952712
 30
0.0
 10
467.3437499999999
 20
348.4570312500001
 30
0.0
  0
SPLINE
  5
93
330
1F
100
AcDbEntity
  8
0
  6
Continuous
 62
     7
370
    25
100
AcDbSpline
210
0.0
220
0.0
230
1.0
 70
     8
 71
     3
 72
    15
 73
    11
 74
     0
 42
0.00000001
 43
0.00000001
 40
0.0
 40
0.0
 40
0.0
 40
0.0
 40
0.1280801597511239
 40
0.2515378985673954
 40
0.3772872964035246
 40
0.5075384609387829
 40
0.6373161746016747
 40
0.7591146284372653
 40
0.8772645673850122
 40
1.0
 40
1.0
 40
1.0
 40
1.0
 10
583.75
 20
305.6445312500001
 30
0.0
 10
583.7302658477017
 20
305.1925285310326
 30
0.0
 10
583.6915097498894
 20
304.3048358993497
 30
0.0
 10
583.2979285556044
 20
303.0216826800749
 30
0.0
 10
582.6625966200436
 20
301.8390895116348
 30
0.0
 10
581.807988381246
 20
300.7734551127763
 30
0.0
 10
580.7889295680867
 20
299.8863083902764
 30
0.0
 10
579.6616365174142
 20
299.2182219654192
 30
0.0
 10
578.4290688025575
 20
298.8337848478868
 30
0.0
 10
577.5806977973589
 20
298.7782804763475
 30
0.0
 10
577.1484375000001
 20
298.7500000000002
 30
0.0
  0
SPLINE
  5
94
330
1F
100
AcDbEntity
  8
0
  6
Continuous
 62
     7
370
    25
100
AcDbSpline
210
0.0
220
0.0
230
1.0
 70
     8
 71
     3
 72
    11
 73
     7
 74
     0
 42
0.00000001
 43
0.00000001
 40
0.0
 40
0.0
 40
0.0
 40
0.0
 40
0.2681257713378425
 40
0.5171071553455453
 40
0.7602073978809505
 40
1.0
 40
1.0
 40
1.0
 40
1.0
 10
582.0117187499999
 20
310.1367187500001
 30
0.0
 10
582.276845791105
 20
309.7861488833744
 30
0.0
 10
582.7881695976416
 20
309.1100401095846
 30
0.0
 10
583.3558059725568
 20
307.9929998996632
 30
0.0
 10
583.6705748003249
 20
306.8269159682083
 30
0.0
 10
583.7236461064921
 20
306.0368556140104
 30
0.0
 10
583.75
 20
305.6445312500001
 30
0.0
  0
SPLINE
  5
95
330
1F
100
AcDbEntity
  8
0
  6
Continuous
 62
     7
370
    25
100
AcDbSpline
210
0.0
220
0.0
230
1.0
 70
     8
 71
     3
 72
    15
 73
    11
 74
     0
 42
0.00000001
 43
0.00000001
 40
0.0
 40
0.0
 40
0.0
 40
0.0
 40
0.1471862458994194
 40
0.2872561693761408
 40
0.4213414322749984
 40
0.548690022767281
 40
0.6701478561048867
 40
0.7853968898964845
 40
0.8951002499769531
 40
1.0
 40
1.0
 40
1.0
 40
1.0
 10
551.0156249999999
 20
333.4765625000001
 30
0.0
 10
552.6949382807478
 20
332.5564685430035
 30
0.0
 10
555.9723715576301
 20
330.7607663431282
 30
0.0
 10
560.6767966465317
 20
327.944249786766
 30
0.0
 10
565.0421257625355
 20
325.0743509595465
 30
0.0
 10
569.106471713386
 20
322.1916261035561
 30
0.0
 10
572.8123851982288
 20
319.2390323699975
 30
0.0
 10
576.2051357506317
 20
316.2710152073755
 30
0.0
 10
579.2738126972502
 20
313.2655749852963
 30
0.0
 10
581.1128045418258
 20
311.1639904207782
 30
0.0
 10
582.01171875
 20
310.1367187500002
 30
0.0
  0
SPLINE
  5
96
330
1F
100
AcDbEntity
  8
0
  6
Continuous
 62
     7
370
    25
100
AcDbSpline
210
0.0
220
0.0
230
1.0
 70
     8
 71
     3
 72
    15
 73
    11
 74
     0
 42
0.00000001
 43
0.00000001
 40
0.0
 40
0.0
 40
0.0
 40
0.0
 40
0.1162142313837598
 40
0.234695765205366
 40
0.3544909625878082
 40
0.477579620520099
 40
0.6027000440959659
 40
0.7318823625884296
 40
0.8640489302100186
 40
1.0
 40
1.0
 40
1.0
 40
1.0
 10
569.53125
 20
342.9492187500002
 30
0.0
 10
568.8988287000798
 20
342.4405307643665
 30
0.0
 10
567.6216477632046
 20
341.4132304534018
 30
0.0
 10
565.5890764016685
 20
339.998062661862
 30
0.0
 10
563.4516343252816
 20
338.6549673377089
 30
0.0
 10
561.187206424053
 20
337.4379107828191
 30
0.0
 10
558.8136878126105
 20
336.2906314146979
 30
0.0
 10
556.3133341012947
 20
335.2736130647417
 30
0.0
 10
553.7148077521798
 20
334.2996618995128
 30
0.0
 10
551.9237794207146
 20
333.7534986792015
 30
0.0
 10
551.0156249999999
 20
333.4765625000001
 30
0.0
  0
SPLINE
  5
97
330
1F
100
AcDbEntity
  8
0
  6
Continuous
 62
     7
370
    25
100
AcDbSpline
210
0.0
220
0.0
230
1.0
 70
     8
 71
     3
 72
    15
 73
    11
 74
     0
 42
0.00000001
 43
0.00000001
 40
0.0
 40
0.0
 40
0.0
 40
0.0
 40
0.1197518329278911
 40
0.2373939777313509
 40
0.355622382701169
 40
0.4744490755321282
 40
0.597655979377753
 40
0.7247583124359818
 40
0.8587061591171977
 40
1.0
 40
1.0
 40
1.0
 40
1.0
 10
578.75
 20
360.7617187500001
 30
0.0
 10
578.7259845040825
 20
359.9328947234613
 30
0.0
 10
578.6783765972672
 20
358.2898482022623
 30
0.0
 10
578.2263327412517
 20
355.8638632089208
 30
0.0
 10
577.512597168332
 20
353.5109498882687
 30
0.0
 10
576.4646803085235
 20
351.2447689610846
 30
0.0
 10
575.187781986102
 20
349.0286930421843
 30
0.0
 10
573.5734048023717
 20
346.911622450131
 30
0.0
 10
571.7013472945898
 20
344.8465060513362
 30
0.0
 10
570.2673729976834
 20
343.5928013300108
 30
0.0
 10
569.5312499999999
 20
342.9492187500001
 30
0.0
  0
SPLINE
  5
98
330
1F
100
AcDbEntity
  8
0
  6
Continuous
 62
     7
370
    25
100
AcDbSpline
210
0.0
220
0.0
230
1.0
 70
     8
 71
     3
 72
    23
 73
    19
 74
     0
 42
0.00000001
 43
0.00000001
 40
0.0
 40
0.0
 40
0.0
 40
0.0
 40
0.0803180061348903
 40
0.1572598023249267
 40
0.2313332456000404
 40
0.3021049680768924
 40
0.3697419541449454
 40
0.4347214771702421
 40
0.4972998516958974
 40
0.5577081480855426
 40
0.6159340616741051
 40
0.6726469541960732
 40
0.7282219968019609
 40
0.7828242238355255
 40
0.8369318449373706
 40
0.8908028139075727
 40
0.9451966471621336
 40
1.0
 40
1.0
 40
1.0
 40
1.0
 10
551.796875
 20
395.5468750000001
 30
0.0
 10
552.8898274571861
 20
394.957988463728
 30
0.0
 10
555.0297895359133
 20
393.804969548761
 30
0.0
 10
558.0810783408878
 20
391.938453321795
 30
0.0
 10
560.9303952584252
 20
390.0314037997715
 30
0.0
 10
563.5716507043239
 20
388.0779027933038
 30
0.0
 10
566.0050645877091
 20
386.085825251172
 30
0.0
 10
568.2202958800781
 20
384.0345695505557
 30
0.0
 10
570.2121530546289
 20
381.9175345872056
 30
0.0
 10
572.0168825598996
 20
379.7735932108815
 30
0.0
 10
573.609860544974
 20
377.5781342623927
 30
0.0
 10
574.986336494006
 20
375.3268346613532
 30
0.0
 10
576.132058194472
 20
373.01359277569
 30
0.0
 10
577.1107143491274
 20
370.6671481100376
 30
0.0
 10
577.8222453038055
 20
368.2528450813525
 30
0.0
 10
578.351333017058
 20
365.7988573674057
 30
0.0
 10
578.7043418998677
 20
363.2979861751145
 30
0.0
 10
578.7347426295805
 20
361.6092522977332
 30
0.0
 10
578.7500000000001
 20
360.7617187500001
 30
0.0
  0
SPLINE
  5
99
330
1F
100
AcDbEntity
  8
0
  6
Continuous
 62
     7
370
    25
100
AcDbSpline
210
0.0
220
0.0
230
1.0
 70
     8
 71
     3
 72
    11
 73
     7
 74
     0
 42
0.00000001
 43
0.00000001
 40
0.0
 40
0.0
 40
0.0
 40
0.0
 40
0.2751606373060226
 40
0.533436988501266
 40
0.7731517062501664
 40
1.0
 40
1.0
 40
1.0
 40
1.0
 10
536.40625
 20
400.0000000000001
 30
0.0
 10
537.8689777147557
 20
399.7893578570852
 30
0.0
 10
540.7046778890102
 20
399.3809989018653
 30
0.0
 10
544.7428671096219
 20
398.40129795154
 30
0.0
 10
548.4443255990553
 20
397.1718609738215
 30
0.0
 10
550.7000943366912
 20
396.0784863145815
 30
0.0
 10
551.796875
 20
395.5468750000001
 30
0.0
  0
LINE
  5
9A
330
1F
100
AcDbEntity
  8
0
  6
Continuous
 62
     7
370
    25
100
AcDbLine
 10
520.37109375
 20
401.25
 30
0.0
 11
536.40625
 21
400.0
 31
0.0
  0
SPLINE
  5
9B
330
1F
100
AcDbEntity
  8
0
  6
Continuous
 62
     7
370
    25
100
AcDbSpline
210
0.0
220
0.0
230
1.0
 70
     8
 71
     3
 72
    11
 73
     7
 74
     0
 42
0.00000001
 43
0.00000001
 40
0.0
 40
0.0
 40
0.0
 40
0.0
 40
0.254728007558196
 40
0.4962862881459581
 40
0.7371579739172729
 40
1.0
 40
1.0
 40
1.0
 40
1.0
 10
513.3789062499999
 20
398.0859375000001
 30
0.0
 10
513.8149144097889
 20
398.6153813656132
 30
0.0
 10
514.6643886128702
 20
399.6468962483526
 30
0.0
 10
516.3698466250954
 20
400.7030492222036
 30
0.0
 10
518.3085981539379
 20
401.2838449963318
 30
0.0
 10
519.6638907451477
 20
401.2616050105274
 30
0.0
 10
520.3710937499999
 20
401.2500000000001
 30
0.0
  0
SPLINE
  5
9C
330
1F
100
AcDbEntity
  8
0
  6
Continuous
 62
     7
370
    25
100
AcDbSpline
210
0.0
220
0.0
230
1.0
 70
     8
 71
     3
 72
    11
 73
     7
 74
     0
 42
0.00000001
 43
0.00000001
 40
0.0
 40
0.0
 40
0.0
 40
0.0
 40
0.2581730535174068
 40
0.5079889626023534
 40
0.7511676219348952
 40
1.0
 40
1.0
 40
1.0
 40
1.0
 10
511.25
 20
391.4843750000001
 30
0.0
 10
511.2771085724268
 20
392.0919645668744
 30
0.0
 10
511.3304482041087
 20
393.2874758317386
 30
0.0
 10
511.7264425749403
 20
395.0188640481458
 30
0.0
 10
512.3952941606776
 20
396.6429825301135
 30
0.0
 10
513.0485334206392
 20
397.601281891131
 30
0.0
 10
513.3789062499999
 20
398.0859375000001
 30
0.0
  0
SPLINE
  5
9D
330
1F
100
AcDbEntity
  8
0
  6
Continuous
 62
     7
370
    25
100
AcDbSpline
210
0.0
220
0.0
230
1.0
 70
     8
 71
     3
 72
    15
 73
    11
 74
     0
 42
0.00000001
 43
0.00000001
 40
0.0
 40
0.0
 40
0.0
 40
0.0
 40
0.0947186929497124
 40
0.2090928335123077
 40
0.3441718873408099
 40
0.4999999999999986
 40
0.65582811265919
 40
0.7909071664876923
 40
0.9052813070502875
 40
1.0
 40
1.0
 40
1.0
 40
1.0
 10
512.5
 20
371.5234375000001
 30
0.0
 10
512.4910155436606
 20
372.1550784707595
 30
0.0
 10
512.4711822311955
 20
373.5494347084312
 30
0.0
 10
512.341405504659
 20
375.8414373456804
 30
0.0
 10
512.1463683417996
 20
378.5370841379245
 30
0.0
 10
511.8750000000002
 20
381.5039062500002
 30
0.0
 10
511.6036316582005
 20
384.4707283620757
 30
0.0
 10
511.4085944953409
 20
387.1663751543199
 30
0.0
 10
511.2788177688046
 20
389.458377791569
 30
0.0
 10
511.2589844563394
 20
390.8527340292408
 30
0.0
 10
511.25
 20
391.4843750000001
 30
0.0
  0
SPLINE
  5
9E
330
1F
100
AcDbEntity
  8
0
  6
Continuous
 62
     7
370
    25
100
AcDbSpline
210
0.0
220
0.0
230
1.0
 70
     8
 71
     3
 72
    23
 73
    19
 74
     0
 42
0.00000001
 43
0.00000001
 40
0.0
 40
0.0
 40
0.0
 40
0.0
 40
0.0447685087364471
 40
0.0944142066442885
 40
0.1489543043068895
 40
0.2089400230504032
 40
0.2743804951539854
 40
0.3447453106017057
 40
0.4200407958771322
 40
0.5008087209476965
 40
0.581576646018259
 40
0.6574091449719507
 40
0.7277739604196726
 40
0.7926765901372391
 40
0.8521240473692595
 40
0.9066641450318603
 40
0.9557707921251951
 40
1.0
 40
1.0
 40
1.0
 40
1.0
 10
509.9999999999999
 20
335.4101562500001
 30
0.0
 10
510.0041799194344
 20
335.950564974469
 30
0.0
 10
510.0129951287944
 20
337.0902558514817
 30
0.0
 10
510.0759611880008
 20
338.8873808596526
 30
0.0
 10
510.1747342312059
 20
340.8666765057376
 30
0.0
 10
510.3129660936685
 20
343.034725589462
 30
0.0
 10
510.4887660995527
 20
345.3916243575277
 30
0.0
 10
510.7046666510611
 20
347.9307127384668
 30
0.0
 10
510.9595653008694
 20
350.6520682125507
 30
0.0
 10
511.2498172890192
 20
353.4961108996571
 30
0.0
 10
511.5418013581813
 20
356.3465016350078
 30
0.0
 10
511.7942714697054
 20
359.0745963764266
 30
0.0
 10
512.0104245682445
 20
361.6136437097281
 30
0.0
 10
512.1869326355188
 20
363.9574585308106
 30
0.0
 10
512.3259773628201
 20
366.1124477840147
 30
0.0
 10
512.4234279406948
 20
368.0787878672229
 30
0.0
 10
512.4870558964323
 20
369.8628612698723
 30
0.0
 10
512.4958382787341
 20
370.9895376146916
 30
0.0
 10
512.5
 20
371.5234375000001
 30
0.0
  0
SPLINE
  5
9F
330
1F
100
AcDbEntity
  8
0
  6
Continuous
 62
     7
370
    25
100
AcDbSpline
210
0.0
220
0.0
230
1.0
 70
     8
 71
     3
 72
    23
 73
    19
 74
     0
 42
0.00000001
 43
0.00000001
 40
0.0
 40
0.0
 40
0.0
 40
0.0
 40
0.044527845905026
 40
0.0940887886256864
 40
0.1486654940788532
 40
0.2089243990306502
 40
0.2735698257727794
 40
0.3439116550013948
 40
0.419264000300172
 40
0.4996961888557245
 40
0.5800916933760951
 40
0.656104056648204
 40
0.72641512556918
 40
0.7910879257553683
 40
0.8513239812529327
 40
0.9059187006041551
 40
0.9554677377452577
 40
1.0
 40
1.0
 40
1.0
 40
1.0
 10
511.2500000000001
 20
304.2968750000001
 30
0.0
 10
511.2531931073927
 20
304.7591590341344
 30
0.0
 10
511.2599402473096
 20
305.7359802543984
 30
0.0
 10
511.2030209032795
 20
307.2784710774377
 30
0.0
 10
511.1818711774703
 20
308.9851068747518
 30
0.0
 10
511.0845529958141
 20
310.8460025950761
 30
0.0
 10
511.0244807209562
 20
312.872093785593
 30
0.0
 10
510.8876892864262
 20
315.0515393294918
 30
0.0
 10
510.7905000925005
 20
317.397073233828
 30
0.0
 10
510.6149014969976
 20
319.8427971680958
 30
0.0
 10
510.4984311685083
 20
322.2987292880279
 30
0.0
 10
510.3430779030614
 20
324.6473470794726
 30
0.0
 10
510.2647100454192
 20
326.8364227470912
 30
0.0
 10
510.1457760623072
 20
328.859750404056
 30
0.0
 10
510.1070548235218
 20
330.7229524067353
 30
0.0
 10
510.0290326660319
 20
332.4278310574845
 30
0.0
 10
510.0230089126502
 20
333.9714260907543
 30
0.0
 10
510.0073920539962
 20
334.9479366229852
 30
0.0
 10
510.0
 20
335.4101562500002
 30
0.0
  0
SPLINE
  5
A0
330
1F
100
AcDbEntity
  8
0
  6
Continuous
 62
     7
370
    25
100
AcDbSpline
210
0.0
220
0.0
230
1.0
 70
     8
 71
     3
 72
    15
 73
    11
 74
     0
 42
0.00000001
 43
0.00000001
 40
0.0
 40
0.0
 40
0.0
 40
0.0
 40
0.1306596816159815
 40
0.254864739686629
 40
0.376998683255626
 40
0.5018340945806099
 40
0.6264072463484316
 40
0.7469373752989055
 40
0.871142433369558
 40
1.0
 40
1.0
 40
1.0
 40
1.0
 10
518.125
 20
297.5000000000001
 30
0.0
 10
517.6534688991293
 20
297.5192114996359
 30
0.0
 10
516.7337004610678
 20
297.5566854456391
 30
0.0
 10
515.4201264638875
 20
297.9472911019321
 30
0.0
 10
514.2262850984391
 20
298.5620911159916
 30
0.0
 10
513.1717496855346
 20
299.3997749099521
 30
0.0
 10
512.3119339887143
 20
300.4305696502373
 30
0.0
 10
511.6939764611345
 20
301.6166016203264
 30
0.0
 10
511.3089883962808
 20
302.9189428697627
 30
0.0
 10
511.2699023287499
 20
303.8319690188177
 30
0.0
 10
511.25
 20
304.2968750000001
 30
0.0
  0
SPLINE
  5
A1
330
1F
100
AcDbEntity
  8
0
  6
Continuous
 62
     7
370
    25
100
AcDbSpline
210
0.0
220
0.0
230
1.0
 70
     8
 71
     3
 72
    15
 73
    11
 74
     0
 42
0.00000001
 43
0.00000001
 40
0.0
 40
0.0
 40
0.0
 40
0.0
 40
0.1287816551856207
 40
0.2529135426566768
 40
0.3742238822775913
 40
0.4987236465976708
 40
0.6232234109177464
 40
0.7452854040040429
 40
0.869417291475094
 40
1.0
 40
1.0
 40
1.0
 40
1.0
 10
524.9999999999999
 20
304.3164062500001
 30
0.0
 10
524.9796491220276
 20
303.8517131558319
 30
0.0
 10
524.9396821512911
 20
302.9391050943437
 30
0.0
 10
524.560192353468
 20
301.6307686511715
 30
0.0
 10
523.9162636393895
 20
300.4536118498853
 30
0.0
 10
523.0546081022152
 20
299.4269549771046
 30
0.0
 10
522.0286851677159
 20
298.5542094919704
 30
0.0
 10
520.8283095977191
 20
297.9492944411983
 30
0.0
 10
519.5167172013693
 20
297.5561504376334
 30
0.0
 10
518.5966726525807
 20
297.5190301778524
 30
0.0
 10
518.1250000000001
 20
297.5000000000002
 30
0.0
  0
LINE
  5
A2
330
1F
100
AcDbEntity
  8
0
  6
Continuous
 62
     7
370
    25
100
AcDbLine
 10
525.0
 20
330.29296875
 30
0.0
 11
525.0
 21
304.31640625
 31
0.0
  0
SPLINE
  5
A3
330
1F
100
AcDbEntity
  8
0
  6
Continuous
 62
     7
370
    25
100
AcDbSpline
210
0.0
220
0.0
230
1.0
 70
     8
 71
     3
 72
    15
 73
    11
 74
     0
 42
0.00000001
 43
0.00000001
 40
0.0
 40
0.0
 40
0.0
 40
0.0
 40
0.1333354637539862
 40
0.2633353431761519
 40
0.390268742990012
 40
0.515055487391121
 40
0.637718276588523
 40
0.7591005426933126
 40
0.8797759650420824
 40
1.0
 40
1.0
 40
1.0
 40
1.0
 10
572.5781249999999
 20
300.8789062500001
 30
0.0
 10
570.7875306776822
 20
302.6442074078283
 30
0.0
 10
567.2511364050615
 20
306.1306480974835
 30
0.0
 10
561.6753930703214
 20
310.9419509391134
 30
0.0
 10
555.9342211497071
 20
315.2892955998446
 30
0.0
 10
550.0544680102353
 20
319.2030908818992
 30
0.0
 10
544.023689309996
 20
322.677072690987
 30
0.0
 10
537.8358852649659
 20
325.6867194570683
 30
0.0
 10
531.5053989013379
 20
328.2741781268081
 30
0.0
 10
527.1657558194983
 20
329.6208796733982
 30
0.0
 10
524.9999999999999
 20
330.2929687500001
 30
0.0
  0
SPLINE
  5
A4
330
1F
100
AcDbEntity
  8
0
  6
Continuous
 62
     7
370
    25
100
AcDbSpline
210
0.0
220
0.0
230
1.0
 70
     8
 71
     3
 72
    11
 73
     7
 74
     0
 42
0.00000001
 43
0.00000001
 40
0.0
 40
0.0
 40
0.0
 40
0.0
 40
0.2318985050313083
 40
0.4707661179125053
 40
0.721434888010652
 40
1.0
 40
1.0
 40
1.0
 40
1.0
 10
577.1484375
 20
298.7500000000001
 30
0.0
 10
576.7483950013924
 20
298.7787274019582
 30
0.0
 10
575.9362877648925
 20
298.8370455334
 30
0.0
 10
574.746836763107
 20
299.2455789024292
 30
0.0
 10
573.604750527748
 20
299.9339103512222
 30
0.0
 10
572.9321512580236
 20
300.553029527817
 30
0.0
 10
572.5781249999999
 20
300.8789062500001
 30
0.0
  0
LINE
  5
A5
330
1F
100
AcDbEntity
  8
0
  6
Continuous
 62
     7
370
    25
100
AcDbLine
 10
534.70703125
 20
386.69921875
 30
0.0
 11
525.0
 21
387.5
 31
0.0
  0
SPLINE
  5
A6
330
1F
100
AcDbEntity
  8
0
  6
Continuous
 62
     7
370
    25
100
AcDbSpline
210
0.0
220
0.0
230
1.0
 70
     8
 71
     3
 72
    15
 73
    11
 74
     0
 42
0.00000001
 43
0.00000001
 40
0.0
 40
0.0
 40
0.0
 40
0.0
 40
0.1340729938805936
 40
0.2651166295485673
 40
0.3927296984371639
 40
0.5175418929313617
 40
0.6397004297019601
 40
0.7606696338990995
 40
0.8802551551924788
 40
1.0
 40
1.0
 40
1.0
 40
1.0
 10
554.6484374999999
 20
378.3007812500001
 30
0.0
 10
553.8605243757381
 20
378.8826506646296
 30
0.0
 10
552.3025009003509
 20
380.0332422459688
 30
0.0
 10
549.8840511235308
 20
381.5820975729114
 30
0.0
 10
547.4118733645163
 20
382.9030900512676
 30
0.0
 10
544.9330856171316
 20
384.065078627976
 30
0.0
 10
542.4213730791175
 20
385.0294673919782
 30
0.0
 10
539.8808647942645
 20
385.787597743912
 30
0.0
 10
537.3105197029179
 20
386.3702771394154
 30
0.0
 10
535.5752457947025
 20
386.589522895445
 30
0.0
 10
534.7070312500001
 20
386.6992187500002
 30
0.0
  0
SPLINE
  5
A7
330
1F
100
AcDbEntity
  8
0
  6
Continuous
 62
     7
370
    25
100
AcDbSpline
210
0.0
220
0.0
230
1.0
 70
     8
 71
     3
 72
    15
 73
    11
 74
     0
 42
0.00000001
 43
0.00000001
 40
0.0
 40
0.0
 40
0.0
 40
0.0
 40
0.1102957877331147
 40
0.2209798505029011
 40
0.3334791118679991
 40
0.4508348992323727
 40
0.5752730840277168
 40
0.7073794505781392
 40
0.8483921929594669
 40
1.0
 40
1.0
 40
1.0
 40
1.0
 10
565.0000000000001
 20
361.1523437500002
 30
0.0
 10
564.9709932781894
 20
361.9164992932874
 30
0.0
 10
564.9128777220014
 20
363.4475004419909
 30
0.0
 10
564.4058065386357
 20
365.7136396759728
 30
0.0
 10
563.5585910338327
 20
367.9178800372513
 30
0.0
 10
562.4486204591171
 20
370.112371504514
 30
0.0
 10
560.956002108989
 20
372.2350503403456
 30
0.0
 10
559.1740999210932
 20
374.3369311677386
 30
0.0
 10
557.0422216653942
 20
376.3695545448102
 30
0.0
 10
555.4653965314625
 20
377.6416854462032
 30
0.0
 10
554.6484374999999
 20
378.3007812500001
 30
0.0
  0
SPLINE
  5
A8
330
1F
100
AcDbEntity
  8
0
  6
Continuous
 62
     7
370
    25
100
AcDbSpline
210
0.0
220
0.0
230
1.0
 70
     8
 71
     3
 72
    11
 73
     7
 74
     0
 42
0.00000001
 43
0.00000001
 40
0.0
 40
0.0
 40
0.0
 40
0.0
 40
0.3182144746352713
 40
0.5884945301607131
 40
0.809818302784121
 40
1.0
 40
1.0
 40
1.0
 40
1.0
 10
561.6210937499999
 20
354.8632812500001
 30
0.0
 10
562.1337258728443
 20
355.4425167856218
 30
0.0
 10
563.0817694859591
 20
356.5137343811721
 30
0.0
 10
564.1344640350322
 20
358.1743693136884
 30
0.0
 10
564.8466224951414
 20
359.6918438306417
 30
0.0
 10
564.9515203318504
 20
360.6907079221883
 30
0.0
 10
565.0
 20
361.1523437500001
 30
0.0
  0
SPLINE
  5
A9
330
1F
100
AcDbEntity
  8
0
  6
Continuous
 62
     7
370
    25
100
AcDbSpline
210
0.0
220
0.0
230
1.0
 70
     8
 71
     3
 72
    11
 73
     7
 74
     0
 42
0.00000001
 43
0.00000001
 40
0.0
 40
0.0
 40
0.0
 40
0.0
 40
0.242748911135334
 40
0.4902112163512687
 40
0.7405834090753165
 40
1.0
 40
1.0
 40
1.0
 40
1.0
 10
554.98046875
 20
349.4921875000001
 30
0.0
 10
555.5728533286008
 20
349.8536939695332
 30
0.0
 10
556.7691246670194
 20
350.5837261880911
 30
0.0
 10
558.4572248135173
 20
351.8638158268211
 30
0.0
 10
560.1027219710018
 20
353.2725298717345
 30
0.0
 10
561.1090187649776
 20
354.3267960495591
 30
0.0
 10
561.6210937499999
 20
354.8632812500001
 30
0.0
  0
SPLINE
  5
AA
330
1F
100
AcDbEntity
  8
0
  6
Continuous
 62
     7
370
    25
100
AcDbSpline
210
0.0
220
0.0
230
1.0
 70
     8
 71
     3
 72
    15
 73
    11
 74
     0
 42
0.00000001
 43
0.00000001
 40
0.0
 40
0.0
 40
0.0
 40
0.0
 40
0.1576819103726475
 40
0.3046140276181597
 40
0.4426898191450108
 40
0.571511445827621
 40
0.6904501586249392
 40
0.8008694275345978
 40
0.9043637579434965
 40
1.0
 40
1.0
 40
1.0
 40
1.0
 10
530.6054687499999
 20
345.0000000000001
 30
0.0
 10
531.9207888796435
 20
345.0175307864237
 30
0.0
 10
534.4617586164451
 20
345.0513972169305
 30
0.0
 10
538.1509881196247
 20
345.2390928652219
 30
0.0
 10
541.5880278903743
 20
345.5816686029358
 30
0.0
 10
544.7670121358357
 20
346.093744807673
 30
0.0
 10
547.6930510656331
 20
346.7078912454675
 30
0.0
 10
550.3650104637516
 20
347.4691831620536
 30
0.0
 10
552.7931894252625
 20
348.3645992525185
 30
0.0
 10
554.2708122871954
 20
349.1263447481587
 30
0.0
 10
554.98046875
 20
349.4921875000001
 30
0.0
  0
SPLINE
  5
AB
330
1F
100
AcDbEntity
  8
0
  6
Continuous
 62
     7
370
    25
100
AcDbSpline
210
0.0
220
0.0
230
1.0
 70
     8
 71
     3
 72
    11
 73
     7
 74
     0
 42
0.00000001
 43
0.00000001
 40
0.0
 40
0.0
 40
0.0
 40
0.0
 40
0.2055366365577653
 40
0.4948286585649768
 40
0.7874979879968571
 40
1.0
 40
1.0
 40
1.0
 40
1.0
 10
524.9999999999999
 20
345.1367187500001
 30
0.0
 10
525.3841662126251
 20
345.1321042983358
 30
0.0
 10
526.3090448855617
 20
345.120995023779
 30
0.0
 10
527.7795197988921
 20
345.0508491729828
 30
0.0
 10
529.264238812056
 20
345.0212060602269
 30
0.0
 10
530.2083325612219
 20
345.0062790828771
 30
0.0
 10
530.6054687499999
 20
345.0000000000001
 30
0.0
  0
LINE
  5
AC
330
1F
100
AcDbEntity
  8
0
  6
Continuous
 62
     7
370
    25
100
AcDbLine
 10
525.78125
 20
358.30078125
 30
0.0
 11
525.0
 21
345.13671875
 31
0.0
  0
SPLINE
  5
AD
330
1F
100
AcDbEntity
  8
0
  6
Continuous
 62
     7
370
    25
100
AcDbSpline
210
0.0
220
0.0
230
1.0
 70
     8
 71
     3
 72
    11
 73
     7
 74
     0
 42
0.00000001
 43
0.00000001
 40
0.0
 40
0.0
 40
0.0
 40
0.0
 40
0.2131706101756843
 40
0.4501367541264862
 40
0.7123574670531124
 40
1.0
 40
1.0
 40
1.0
 40
1.0
 10
526.25
 20
371.4843750000001
 30
0.0
 10
526.2490135468024
 20
370.5467705309345
 30
0.0
 10
526.2469305258832
 20
368.5668998911131
 30
0.0
 10
526.1266949427476
 20
365.4358955436261
 30
0.0
 10
526.0068644833145
 20
361.9774184161918
 30
0.0
 10
525.858737610344
 20
359.5635274351065
 30
0.0
 10
525.78125
 20
358.3007812500001
 30
0.0
  0
SPLINE
  5
AE
330
1F
100
AcDbEntity
  8
0
  6
Continuous
 62
     7
370
    25
100
AcDbSpline
210
0.0
220
0.0
230
1.0
 70
     8
 71
     3
 72
    11
 73
     7
 74
     0
 42
0.00000001
 43
0.00000001
 40
0.0
 40
0.0
 40
0.0
 40
0.0
 40
0.2932067417348604
 40
0.5569019266982306
 40
0.7931217653826588
 40
1.0
 40
1.0
 40
1.0
 40
1.0
 10
525.7421874999999
 20
379.4921875000001
 30
0.0
 10
525.8133125006655
 20
378.7109442629686
 30
0.0
 10
525.9484036983395
 20
377.2270907153028
 30
0.0
 10
526.1483422461174
 20
375.1137301043111
 30
0.0
 10
526.2124099422335
 20
373.223000233484
 30
0.0
 10
526.2380356180754
 20
372.0377547379721
 30
0.0
 10
526.25
 20
371.4843750000001
 30
0.0
  0
LINE
  5
AF
330
1F
100
AcDbEntity
  8
0
  6
Continuous
 62
     7
370
    25
100
AcDbLine
 10
525.0
 20
387.5
 30
0.0
 11
525.7421875
 21
379.4921875
 31
0.0
  0
SPLINE
  5
B0
330
1F
100
AcDbEntity
  8
0
  6
Continuous
 62
     7
370
    25
100
AcDbSpline
210
0.0
220
0.0
230
1.0
 70
     8
 71
     3
 72
    23
 73
    19
 74
     0
 42
0.00000001
 43
0.00000001
 40
0.0
 40
0.0
 40
0.0
 40
0.0
 40
0.0703056542007541
 40
0.1385176632412667
 40
0.2048881922381892
 40
0.2695833406193428
 40
0.3328130237506806
 40
0.3947739511985097
 40
0.4556719511183802
 40
0.5158685825785638
 40
0.5754822798282382
 40
0.6349709001764503
 40
0.6943830454679124
 40
0.7539561621236149
 40
0.8138305394943803
 40
0.8747936310812731
 40
0.9366373576433843
 40
1.0
 40
1.0
 40
1.0
 40
1.0
 10
677.51953125
 20
317.1875000000001
 30
0.0
 10
676.9241336045701
 20
316.3336758229416
 30
0.0
 10
675.7510687709964
 20
314.651453657889
 30
0.0
 10
673.8424554795827
 20
312.2918692815442
 30
0.0
 10
671.8898030944682
 20
310.0804433662793
 30
0.0
 10
669.8823880467859
 20
308.0183850462457
 30
0.0
 10
667.7841616671263
 20
306.14538404115
 30
0.0
 10
665.6332868989884
 20
304.4233165608332
 30
0.0
 10
663.4264789907452
 20
302.8471433253337
 30
0.0
 10
661.1323972482869
 20
301.4681366920017
 30
0.0
 10
658.7867538256172
 20
300.2225217291601
 30
0.0
 10
656.3581243245857
 20
299.1753213040921
 30
0.0
 10
653.8735147848563
 20
298.2743479807777
 30
0.0
 10
651.3318759123812
 20
297.5258976627146
 30
0.0
 10
648.7194272713396
 20
296.9618362284957
 30
0.0
 10
646.04501194496
 20
296.5566074508691
 30
0.0
 10
643.2997405030696
 20
296.2880240468424
 30
0.0
 10
641.4459514569127
 20
296.2627767763364
 30
0.0
 10
640.5078124999999
 20
296.2500000000001
 30
0.0
  0
SPLINE
  5
B1
330
1F
100
AcDbEntity
  8
0
  6
Continuous
 62
     7
370
    25
100
AcDbSpline
210
0.0
220
0.0
230
1.0
 70
     8
 71
     3
 72
    15
 73
    11
 74
     0
 42
0.00000001
 43
0.00000001
 40
0.0
 40
0.0
 40
0.0
 40
0.0
 40
0.1291233919393471
 40
0.2557480157499682
 40
0.3801072175986345
 40
0.503786493176727
 40
0.6266448903468967
 40
0.7496698597505106
 40
0.8739450820239175
 40
1.0
 40
1.0
 40
1.0
 40
1.0
 10
690.0
 20
358.2617187500001
 30
0.0
 10
689.9631263124882
 20
356.3851953530689
 30
0.0
 10
689.89009250914
 20
352.6684626366686
 30
0.0
 10
689.2877489865429
 20
347.1710901723338
 30
0.0
 10
688.3104241514377
 20
341.8117553370777
 30
0.0
 10
686.9475602066259
 20
336.5918166458144
 30
0.0
 10
685.1753738067332
 20
331.5175177595141
 30
0.0
 10
683.0446577968339
 20
326.5747110605564
 30
0.0
 10
680.5077179119158
 20
321.7703286787147
 30
0.0
 10
678.5203032422274
 20
318.7223326947868
 30
0.0
 10
677.51953125
 20
317.1875000000001
 30
0.0
  0
SPLINE
  5
B2
330
1F
100
AcDbEntity
  8
0
  6
Continuous
 62
     7
370
    25
100
AcDbSpline
210
0.0
220
0.0
230
1.0
 70
     8
 71
     3
 72
    15
 73
    11
 74
     0
 42
0.00000001
 43
0.00000001
 40
0.0
 40
0.0
 40
0.0
 40
0.0
 40
0.1078297277436142
 40
0.217363516287982
 40
0.330764221113807
 40
0.4486914534156301
 40
0.5735720177229016
 40
0.7065828939293781
 40
0.8485797806226769
 40
1.0
 40
1.0
 40
1.0
 40
1.0
 10
678.9257812499999
 20
390.2539062500001
 30
0.0
 10
679.8188076412852
 20
389.3727799053459
 30
0.0
 10
681.6189731486048
 20
387.5966025507728
 30
0.0
 10
683.8548314210739
 20
384.4518800760541
 30
0.0
 10
685.7842354582593
 20
380.9861849167229
 30
0.0
 10
687.3198045135023
 20
377.133042507356
 30
0.0
 10
688.5247742526439
 20
372.9315723481587
 30
0.0
 10
689.4021710818444
 20
368.3641190868501
 30
0.0
 10
689.8999945596552
 20
363.4290759450773
 30
0.0
 10
689.9659586890541
 20
360.0206591880393
 30
0.0
 10
690.0
 20
358.2617187500001
 30
0.0
  0
SPLINE
  5
B3
330
1F
100
AcDbEntity
  8
0
  6
Continuous
 62
     7
370
    25
100
AcDbSpline
210
0.0
220
0.0
230
1.0
 70
     8
 71
     3
 72
    15
 73
    11
 74
     0
 42
0.00000001
 43
0.00000001
 40
0.0
 40
0.0
 40
0.0
 40
0.0
 40
0.1522888466184087
 40
0.2955147372437109
 40
0.4292602589701059
 40
0.5554701275415138
 40
0.6738704185725293
 40
0.7868485559586244
 40
0.8949572435314416
 40
1.0
 40
1.0
 40
1.0
 40
1.0
 10
646.4843749999999
 20
400.0
 30
0.0
 10
648.243135939338
 20
399.9699008466178
 30
0.0
 10
651.655991105057
 20
399.9114937892364
 30
0.0
 10
656.5978901050254
 20
399.4659118656552
 30
0.0
 10
661.1970101456193
 20
398.7123979287321
 30
0.0
 10
665.4390507244481
 20
397.645121958656
 30
0.0
 10
669.3450302708438
 20
396.2822485278517
 30
0.0
 10
672.8893533766039
 20
394.5951448900576
 30
0.0
 10
676.1245542484667
 20
392.6398542382042
 30
0.0
 10
678.001035904976
 20
391.0415590515595
 30
0.0
 10
678.9257812499999
 20
390.2539062500001
 30
0.0
  0
SPLINE
  5
B4
330
1F
100
AcDbEntity
  8
0
  6
Continuous
 62
     7
370
    25
100
AcDbSpline
210
0.0
220
0.0
230
1.0
 70
     8
 71
     3
 72
    23
 73
    19
 74
     0
 42
0.00000001
 43
0.00000001
 40
0.0
 40
0.0
 40
0.0
 40
0.0
 40
0.0703623911895588
 40
0.1388441904503429
 40
0.2053027188129629
 40
0.2701965865765149
 40
0.3337256647288557
 40
0.3960817235235689
 40
0.4568639466726686
 40
0.5174919968088015
 40
0.5771913984413902
 40
0.6367988840816172
 40
0.6959414503469437
 40
0.7555505219464265
 40
0.8155909936085343
 40
0.876223721413874
 40
0.937361077235803
 40
1.0
 40
1.0
 40
1.0
 40
1.0
 10
608.5937499999999
 20
379.3359375000001
 30
0.0
 10
609.2298281289042
 20
380.1760441593436
 30
0.0
 10
610.4849837792142
 20
381.8338037527359
 30
0.0
 10
612.4869355051109
 20
384.1680647727051
 30
0.0
 10
614.5095430673489
 20
386.3747065385671
 30
0.0
 10
616.6292423774812
 20
388.3829445639283
 30
0.0
 10
618.7978088447936
 20
390.2435893254238
 30
0.0
 10
621.0185169108306
 20
391.9438753103988
 30
0.0
 10
623.3062508240308
 20
393.4744725720089
 30
0.0
 10
625.6331797517198
 20
394.8714935118815
 30
0.0
 10
628.0566432106777
 20
396.0538434487063
 30
0.0
 10
630.5110252150886
 20
397.1111932827472
 30
0.0
 10
633.0233233203742
 20
398.0243195211124
 30
0.0
 10
635.6060102114443
 20
398.7354077557422
 30
0.0
 10
638.2447662990381
 20
399.3142866998679
 30
0.0
 10
640.9429557759629
 20
399.6848071126514
 30
0.0
 10
643.6921272906014
 20
399.964053704899
 30
0.0
 10
645.5461286159035
 20
399.987921386313
 30
0.0
 10
646.4843749999999
 20
400.0
 30
0.0
  0
SPLINE
  5
B5
330
1F
100
AcDbEntity
  8
0
  6
Continuous
 62
     7
370
    25
100
AcDbSpline
210
0.0
220
0.0
230
1.0
 70
     8
 71
     3
 72
    15
 73
    11
 74
     0
 42
0.00000001
 43
0.00000001
 40
0.0
 40
0.0
 40
0.0
 40
0.0
 40
0.1269892163773809
 40
0.252090092263309
 40
0.3755727652148069
 40
0.4983134859650549
 40
0.6215656154465733
 40
0.745741259246484
 40
0.8714397295302195
 40
1.0
 40
1.0
 40
1.0
 40
1.0
 10
594.9999999999999
 20
337.9296875000001
 30
0.0
 10
595.0401770641479
 20
339.8066379112197
 30
0.0
 10
595.1199337560693
 20
343.5326283207667
 30
0.0
 10
595.7924723613344
 20
349.0493881374819
 30
0.0
 10
596.8349044202383
 20
354.440882399073
 30
0.0
 10
598.3319977450877
 20
359.6977735742323
 30
0.0
 10
600.246004399257
 20
364.828355697135
 30
0.0
 10
602.6084429661903
 20
369.8151841944065
 30
0.0
 10
605.3567956349646
 20
374.6938456593435
 30
0.0
 10
607.5066991575209
 20
377.7770060857181
 30
0.0
 10
608.5937499999999
 20
379.3359375000001
 30
0.0
  0
SPLINE
  5
B6
330
1F
100
AcDbEntity
  8
0
  6
Continuous
 62
     7
370
    25
100
AcDbSpline
210
0.0
220
0.0
230
1.0
 70
     8
 71
     3
 72
    15
 73
    11
 74
     0
 42
0.00000001
 43
0.00000001
 40
0.0
 40
0.0
 40
0.0
 40
0.0
 40
0.1287757178207419
 40
0.253118902672465
 40
0.375208895999629
 40
0.4959594141290322
 40
0.6174756608541471
 40
0.740916328444372
 40
0.8679698520076834
 40
1.0
 40
1.0
 40
1.0
 40
1.0
 10
608.80859375
 20
307.3828125000001
 30
0.0
 10
607.7030385134514
 20
308.3804234561367
 30
0.0
 10
605.5299818762635
 20
310.3413070356237
 30
0.0
 10
602.7353069870713
 20
313.6693652617904
 30
0.0
 10
600.3217825598347
 20
317.1668821438942
 30
0.0
 10
598.3877453921428
 20
320.9159939760545
 30
0.0
 10
596.8428524422005
 20
324.8575608943796
 30
0.0
 10
595.7811546404592
 20
329.0303635089443
 30
0.0
 10
595.116492643998
 20
333.4095632603174
 30
0.0
 10
595.0393249746195
 20
336.4038077113526
 30
0.0
 10
594.9999999999999
 20
337.9296875000001
 30
0.0
  0
SPLINE
  5
B7
330
1F
100
AcDbEntity
  8
0
  6
Continuous
 62
     7
370
    25
100
AcDbSpline
210
0.0
220
0.0
230
1.0
 70
     8
 71
     3
 72
    15
 73
    11
 74
     0
 42
0.00000001
 43
0.00000001
 40
0.0
 40
0.0
 40
0.0
 40
0.0
 40
0.1337845522193499
 40
0.2632654445582399
 40
0.3886668003712376
 40
0.5123021354047046
 40
0.6337867592283521
 40
0.7548991984909209
 40
0.8764117900747711
 40
1.0
 40
1.0
 40
1.0
 40
1.0
 10
640.5078124999999
 20
296.2500000000001
 30
0.0
 10
638.9761876348
 20
296.2820591991461
 30
0.0
 10
635.9622081106755
 20
296.3451462983318
 30
0.0
 10
631.541339030087
 20
296.8933685375962
 30
0.0
 10
627.2875284964267
 20
297.7380355202974
 30
0.0
 10
623.2261163854968
 20
298.9786739118629
 30
0.0
 10
619.3298466781271
 20
300.5402539525373
 30
0.0
 10
615.6332111256869
 20
302.4736050315354
 30
0.0
 10
612.077491609595
 20
304.7091935082578
 30
0.0
 10
609.9043607036286
 20
306.486588921418
 30
0.0
 10
608.80859375
 20
307.3828125000001
 30
0.0
  0
SPLINE
  5
B8
330
1F
100
AcDbEntity
  8
0
  6
Continuous
 62
     7
370
    25
100
AcDbSpline
210
0.0
220
0.0
230
1.0
 70
     8
 71
     3
 72
    15
 73
    11
 74
     0
 42
0.00000001
 43
0.00000001
 40
0.0
 40
0.0
 40
0.0
 40
0.0
 40
0.1203608497460907
 40
0.2379124536451225
 40
0.3548608879474393
 40
0.4731443711990239
 40
0.5950773476406743
 40
0.7226017675670369
 40
0.8573896040118378
 40
0.9999999999999999
 40
0.9999999999999999
 40
0.9999999999999999
 40
0.9999999999999999
 10
646.4648437499999
 20
386.2500000000001
 30
0.0
 10
645.139787373254
 20
386.200788970991
 30
0.0
 10
642.5206016955625
 20
386.1035155080448
 30
0.0
 10
638.6741013060536
 20
385.3390872266685
 30
0.0
 10
634.9928613633479
 20
384.0769520267422
 30
0.0
 10
631.4641358260375
 20
382.3210853474394
 30
0.0
 10
628.1010077214974
 20
380.0497761058186
 30
0.0
 10
624.9156220966343
 20
377.2588898246597
 30
0.0
 10
621.8442127647315
 20
374.0172363849533
 30
0.0
 10
620.0328063217772
 20
371.5575124908826
 30
0.0
 10
619.1015624999999
 20
370.2929687500001
 30
0.0
  0
SPLINE
  5
B9
330
1F
100
AcDbEntity
  8
0
  6
Continuous
 62
     7
370
    25
100
AcDbSpline
210
0.0
220
0.0
230
1.0
 70
     8
 71
     3
 72
    15
 73
    11
 74
     0
 42
0.00000001
 43
0.00000001
 40
0.0
 40
0.0
 40
0.0
 40
0.0
 40
0.0961064185220034
 40
0.1984462054538612
 40
0.3076426048601221
 40
0.4251405515638613
 40
0.5525460758650802
 40
0.6906147826351366
 40
0.8389971758958764
 40
0.9999999999999999
 40
0.9999999999999999
 40
0.9999999999999999
 40
0.9999999999999999
 10
669.1992187499999
 20
380.1757812500001
 30
0.0
 10
668.6074415870723
 20
380.6704910645437
 30
0.0
 10
667.3855051725928
 20
381.6919970888733
 30
0.0
 10
665.2196962155929
 20
382.8899273877615
 30
0.0
 10
662.8098487150711
 20
383.9638292311757
 30
0.0
 10
660.0879257083726
 20
384.782829279442
 30
0.0
 10
657.0908430672175
 20
385.4420308566296
 30
0.0
 10
653.8092673374625
 20
385.9306819830997
 30
0.0
 10
650.2321866816637
 20
386.1927565803134
 30
0.0
 10
647.7543171164408
 20
386.2304069163789
 30
0.0
 10
646.4648437499999
 20
386.2500000000001
 30
0.0
  0
SPLINE
  5
BA
330
1F
100
AcDbEntity
  8
0
  6
Continuous
 62
     7
370
    25
100
AcDbSpline
210
0.0
220
0.0
230
1.0
 70
     8
 71
     3
 72
    15
 73
    11
 74
     0
 42
0.00000001
 43
0.00000001
 40
0.0
 40
0.0
 40
0.0
 40
0.0
 40
0.158886814762877
 40
0.3052015219739059
 40
0.4412905987228435
 40
0.5672296985568609
 40
0.684438927385404
 40
0.7948511997011382
 40
0.8987325763371578
 40
1.0
 40
1.0
 40
1.0
 40
1.0
 10
676.2499999999999
 20
358.2031250000001
 30
0.0
 10
676.2280925994891
 20
359.4604357643928
 30
0.0
 10
676.1860112475003
 20
361.8755710886142
 30
0.0
 10
675.8505977151443
 20
365.3548034215586
 30
0.0
 10
675.3137489341422
 20
368.5433651963588
 30
0.0
 10
674.5656760590459
 20
371.454539223316
 30
0.0
 10
673.563268199614
 20
374.0729588638096
 30
0.0
 10
672.3602818386167
 20
376.4086481153452
 30
0.0
 10
670.9298881663012
 20
378.4718069653886
 30
0.0
 10
669.7711872663369
 20
379.6126352012717
 30
0.0
 10
669.19921875
 20
380.1757812500001
 30
0.0
  0
SPLINE
  5
BB
330
1F
100
AcDbEntity
  8
0
  6
Continuous
 62
     7
370
    25
100
AcDbSpline
210
0.0
220
0.0
230
1.0
 70
     8
 71
     3
 72
    15
 73
    11
 74
     0
 42
0.00000001
 43
0.00000001
 40
0.0
 40
0.0
 40
0.0
 40
0.0
 40
0.1248007239742307
 40
0.2481903224050207
 40
0.3713762455855234
 40
0.4942533340366485
 40
0.6180506121430925
 40
0.7428844248375733
 40
0.8700312398002633
 40
1.0
 40
1.0
 40
1.0
 40
1.0
 10
666.9531249999999
 20
326.0156250000001
 30
0.0
 10
667.7033141006023
 20
327.2146217412088
 30
0.0
 10
669.19520989106
 20
329.5990581313746
 30
0.0
 10
671.0543645384472
 20
333.3789686531838
 30
0.0
 10
672.6659923149233
 20
337.2433871711875
 30
0.0
 10
673.9786175673232
 20
341.22606502352
 30
0.0
 10
674.9962240859516
 20
345.313355996447
 30
0.0
 10
675.7086498706851
 20
349.5119245404693
 30
0.0
 10
676.1844863690178
 20
353.8171587512059
 30
0.0
 10
676.2280029192166
 20
356.7304779730922
 30
0.0
 10
676.2499999999999
 20
358.2031250000001
 30
0.0
  0
SPLINE
  5
BC
330
1F
100
AcDbEntity
  8
0
  6
Continuous
 62
     7
370
    25
100
AcDbSpline
210
0.0
220
0.0
230
1.0
 70
     8
 71
     3
 72
    15
 73
    11
 74
     0
 42
0.00000001
 43
0.00000001
 40
0.0
 40
0.0
 40
0.0
 40
0.0
 40
0.1217250031922317
 40
0.2394151448219012
 40
0.3565765489975656
 40
0.4744279483078036
 40
0.595972795994506
 40
0.7230512514156979
 40
0.8571059093558356
 40
1.0
 40
1.0
 40
1.0
 40
1.0
 10
640.5273437499999
 20
310.0000000000001
 30
0.0
 10
641.8396357304897
 20
310.0482018157578
 30
0.0
 10
644.4207206868929
 20
310.1430076847058
 30
0.0
 10
648.2009749853991
 20
310.9139582077023
 30
0.0
 10
651.802696278261
 20
312.1608915827522
 30
0.0
 10
655.2127995712741
 20
313.9564631224978
 30
0.0
 10
658.4602995537497
 20
316.2191494717475
 30
0.0
 10
661.5172080902656
 20
319.0005973266276
 30
0.0
 10
664.3838226533394
 20
322.2901099292151
 30
0.0
 10
666.0786593949875
 20
324.7476407961983
 30
0.0
 10
666.9531249999999
 20
326.0156250000001
 30
0.0
  0
SPLINE
  5
BD
330
1F
100
AcDbEntity
  8
0
  6
Continuous
 62
     7
370
    25
100
AcDbSpline
210
0.0
220
0.0
230
1.0
 70
     8
 71
     3
 72
    15
 73
    11
 74
     0
 42
0.00000001
 43
0.00000001
 40
0.0
 40
0.0
 40
0.0
 40
0.0
 40
0.1211957542994002
 40
0.2411437834910558
 40
0.3610230311934858
 40
0.4826209969231176
 40
0.6060260585991586
 40
0.7334713553275126
 40
0.8642588069139279
 40
1.0
 40
1.0
 40
1.0
 40
1.0
 10
618.1835937499999
 20
317.4609375000001
 30
0.0
 10
618.9459931926297
 20
316.8573759108022
 30
0.0
 10
620.4629430824176
 20
315.656466472758
 30
0.0
 10
622.9534314076127
 20
314.1719265460335
 30
0.0
 10
625.5361247107605
 20
312.8518622700178
 30
0.0
 10
628.2847338066014
 20
311.838092145964
 30
0.0
 10
631.1528460004757
 20
311.0000895478073
 30
0.0
 10
634.1613712067898
 20
310.4274878314959
 30
0.0
 10
637.3022253578147
 20
310.0634218644244
 30
0.0
 10
639.4390657402977
 20
310.0214009571105
 30
0.0
 10
640.5273437499999
 20
310.0000000000001
 30
0.0
  0
SPLINE
  5
BE
330
1F
100
AcDbEntity
  8
0
  6
Continuous
 62
     7
370
    25
100
AcDbSpline
210
0.0
220
0.0
230
1.0
 70
     8
 71
     3
 72
    15
 73
    11
 74
     0
 42
0.00000001
 43
0.00000001
 40
0.0
 40
0.0
 40
0.0
 40
0.0
 40
0.1322103007463423
 40
0.2589069200205316
 40
0.3825599772747754
 40
0.5037629173348882
 40
0.6241535406601387
 40
0.7460889529284328
 40
0.8710901958417321
 40
1.0
 40
1.0
 40
1.0
 40
1.0
 10
608.7499999999999
 20
337.98828125
 30
0.0
 10
608.782215730592
 20
336.9582365673167
 30
0.0
 10
608.8453036710681
 20
334.9411040536503
 30
0.0
 10
609.2762597290225
 20
331.9843755821014
 30
0.0
 10
610.0207678219334
 20
329.1811209091708
 30
0.0
 10
611.0594106343925
 20
326.5251815542051
 30
0.0
 10
612.4014285229264
 20
324.0233891579927
 30
0.0
 10
614.0380111416483
 20
321.6703622174325
 30
0.0
 10
615.9506785163355
 20
319.4422174467843
 30
0.0
 10
617.4316893943488
 20
318.1281070366178
 30
0.0
 10
618.1835937499999
 20
317.4609375000001
 30
0.0
  0
SPLINE
  5
BF
330
1F
100
AcDbEntity
  8
0
  6
Continuous
 62
     7
370
    25
100
AcDbSpline
210
0.0
220
0.0
230
1.0
 70
     8
 71
     3
 72
    15
 73
    11
 74
     0
 42
0.00000001
 43
0.00000001
 40
0.0
 40
0.0
 40
0.0
 40
0.0
 40
0.1285357980626429
 40
0.2548208160871273
 40
0.3787883161919658
 40
0.5017288996661471
 40
0.6251541082793247
 40
0.748704072862975
 40
0.8730167267683274
 40
1.0
 40
1.0
 40
1.0
 40
1.0
 10
619.1015624999999
 20
370.2929687500001
 30
0.0
 10
618.2751954281845
 20
369.0679014368783
 30
0.0
 10
616.636931731989
 20
366.6392188659795
 30
0.0
 10
614.5360031987611
 20
362.8202315775816
 30
0.0
 10
612.7423010865026
 20
358.920455710588
 30
0.0
 10
611.2931809913728
 20
354.9136802789631
 30
0.0
 10
610.1627275932864
 20
350.8114513660958
 30
0.0
 10
609.3394964707021
 20
346.6214506654116
 30
0.0
 10
608.8330610065987
 20
342.3367368858658
 30
0.0
 10
608.7778824701052
 20
339.4479997055925
 30
0.0
 10
608.7499999999999
 20
337.98828125
 30
0.0
  0
SPLINE
  5
C0
330
1F
100
AcDbEntity
  8
0
  6
Continuous
 62
     7
370
    25
100
AcDbSpline
210
0.0
220
0.0
230
1.0
 70
     8
 71
     3
 72
    15
 73
    11
 74
     0
 42
0.00000001
 43
0.00000001
 40
0.0
 40
0.0
 40
0.0
 40
0.0
 40
0.1265886291627653
 40
0.2455563781406104
 40
0.3624116248538916
 40
0.4781409928592094
 40
0.5985230094485893
 40
0.7221506883651768
 40
0.8553286324047069
 40
1.0
 40
1.0
 40
1.0
 40
1.0
 10
766.2499999999999
 20
308.3984375000001
 30
0.0
 10
766.2413059529625
 20
308.0717437887959
 30
0.0
 10
766.224441257326
 20
307.4380239593357
 30
0.0
 10
766.0189989557654
 20
306.5222704580029
 30
0.0
 10
765.6925581920784
 20
305.6720598937363
 30
0.0
 10
765.1997736598822
 20
304.9041403291631
 30
0.0
 10
764.62804721662
 20
304.1697627652077
 30
0.0
 10
763.8772429482192
 20
303.5447599189729
 30
0.0
 10
763.0137733328096
 20
302.9714815110236
 30
0.0
 10
762.3676666566021
 20
302.6614355896615
 30
0.0
 10
762.0312499999998
 20
302.5000000000001
 30
0.0
  0
SPLINE
  5
C1
330
1F
100
AcDbEntity
  8
0
  6
Continuous
 62
     7
370
    25
100
AcDbSpline
210
0.0
220
0.0
230
1.0
 70
     8
 71
     3
 72
    11
 73
     7
 74
     0
 42
0.00000001
 43
0.00000001
 40
0.0
 40
0.0
 40
0.0
 40
0.0
 40
0.2546009596042174
 40
0.4995014095755991
 40
0.7455900627757689
 40
1.0
 40
1.0
 40
1.0
 40
1.0
 10
764.6289062499998
 20
312.8710937500001
 30
0.0
 10
764.8755995142573
 20
312.5401540634794
 30
0.0
 10
765.3595868229494
 20
311.8908837694532
 30
0.0
 10
765.8697011258564
 20
310.7907102074486
 30
0.0
 10
766.202451783339
 20
309.6223923319936
 30
0.0
 10
766.2339758879746
 20
308.8109196227583
 30
0.0
 10
766.2499999999999
 20
308.3984375000001
 30
0.0
  0
SPLINE
  5
C2
330
1F
100
AcDbEntity
  8
0
  6
Continuous
 62
     7
370
    25
100
AcDbSpline
210
0.0
220
0.0
230
1.0
 70
     8
 71
     3
 72
    11
 73
     7
 74
     0
 42
0.00000001
 43
0.00000001
 40
0.0
 40
0.0
 40
0.0
 40
0.0
 40
0.2551112995054252
 40
0.4982466901935331
 40
0.7423817280926015
 40
1.0
 40
1.0
 40
1.0
 40
1.0
 10
759.9414062499999
 20
315.0000000000001
 30
0.0
 10
760.3937345707969
 20
314.9738485389148
 30
0.0
 10
761.277157175577
 20
314.9227732672401
 30
0.0
 10
762.5404271989436
 20
314.5155288954372
 30
0.0
 10
763.6901073777423
 20
313.840306263582
 30
0.0
 10
764.3104169241369
 20
313.1999009622696
 30
0.0
 10
764.6289062499998
 20
312.8710937500001
 30
0.0
  0
SPLINE
  5
C3
330
1F
100
AcDbEntity
  8
0
  6
Continuous
 62
     7
370
    25
100
AcDbSpline
210
0.0
220
0.0
230
1.0
 70
     8
 71
     3
 72
     9
 73
     5
 74
     0
 42
0.00000001
 43
0.00000001
 40
0.0
 40
0.0
 40
0.0
 40
0.0
 40
0.5229966614202602
 40
1.0
 40
1.0
 40
1.0
 40
1.0
 10
757.8710937499999
 20
314.7070312500001
 30
0.0
 10
758.2276046726726
 20
314.7899064595669
 30
0.0
 10
758.9092742682386
 20
314.9483686748738
 30
0.0
 10
759.6080756553457
 20
314.9833254849078
 30
0.0
 10
759.9414062499999
 20
315.0000000000001
 30
0.0
  0
SPLINE
  5
C4
330
1F
100
AcDbEntity
  8
0
  6
Continuous
 62
     7
370
    25
100
AcDbSpline
210
0.0
220
0.0
230
1.0
 70
     8
 71
     3
 72
    15
 73
    11
 74
     0
 42
0.00000001
 43
0.00000001
 40
0.0
 40
0.0
 40
0.0
 40
0.0
 40
0.1003294703206373
 40
0.2075709589774705
 40
0.3215632056279402
 40
0.4424676497766588
 40
0.5704438619918818
 40
0.7061593993770159
 40
0.8490972381073619
 40
1.0
 40
1.0
 40
1.0
 40
1.0
 10
715.0
 20
307.5000000000002
 30
0.0
 10
716.4587110483177
 20
307.5129708500605
 30
0.0
 10
719.4766284179864
 20
307.5398061535579
 30
0.0
 10
724.1443889542534
 20
307.8413945491524
 30
0.0
 10
729.0882558447735
 20
308.3994166243625
 30
0.0
 10
734.3054978097148
 20
309.1869036702919
 30
0.0
 10
739.8049214140483
 20
310.2026644102481
 30
0.0
 10
745.5751798978254
 20
311.490176624143
 30
0.0
 10
751.6451576814959
 20
312.9611900594119
 30
0.0
 10
755.7586148974992
 20
314.1146620778206
 30
0.0
 10
757.8710937499999
 20
314.7070312500001
 30
0.0
  0
SPLINE
  5
C5
330
1F
100
AcDbEntity
  8
0
  6
Continuous
 62
     7
370
    25
100
AcDbSpline
210
0.0
220
0.0
230
1.0
 70
     8
 71
     3
 72
    11
 73
     7
 74
     0
 42
0.00000001
 43
0.00000001
 40
0.0
 40
0.0
 40
0.0
 40
0.0
 40
0.2742684501036874
 40
0.5318659923866214
 40
0.7750700303554179
 40
1.0
 40
1.0
 40
1.0
 40
1.0
 10
715.3320312499999
 20
317.1289062500001
 30
0.0
 10
715.261169550567
 20
316.250342903928
 30
0.0
 10
715.1237533509396
 20
314.5466180833865
 30
0.0
 10
715.0181576613633
 20
312.0582009776929
 30
0.0
 10
714.9375479070313
 20
309.7267049700027
 30
0.0
 10
714.979731528637
 20
308.2226644260054
 30
0.0
 10
714.9999999999999
 20
307.5000000000001
 30
0.0
  0
LINE
  5
C6
330
1F
100
AcDbEntity
  8
0
  6
Continuous
 62
     7
370
    25
100
AcDbLine
 10
716.03515625
 20
327.109375
 30
0.0
 11
715.33203125
 21
317.12890625
 31
0.0
  0
SPLINE
  5
C7
330
1F
100
AcDbEntity
  8
0
  6
Continuous
 62
     7
370
    25
100
AcDbSpline
210
0.0
220
0.0
230
1.0
 70
     8
 71
     3
 72
    15
 73
    11
 74
     0
 42
0.00000001
 43
0.00000001
 40
0.0
 40
0.0
 40
0.0
 40
0.0
 40
0.135897356337582
 40
0.2686121141702272
 40
0.398146127640137
 40
0.5245023876267231
 40
0.6479737956534933
 40
0.7685724504106072
 40
0.8857158123417076
 40
1.0
 40
1.0
 40
1.0
 40
1.0
 10
717.4999999999998
 20
394.4921875000001
 30
0.0
 10
717.4981473334774
 20
391.4387802430421
 30
0.0
 10
717.4944853882797
 20
385.4034738852288
 30
0.0
 10
717.4081398293335
 20
376.4581143477414
 30
0.0
 10
717.2943181935871
 20
367.7275123514828
 30
0.0
 10
717.1355825328936
 20
359.2053324324546
 30
0.0
 10
716.9488848220578
 20
350.8844572280206
 30
0.0
 10
716.6867767596112
 20
342.7727623523874
 30
0.0
 10
716.4049688918722
 20
334.8682170184617
 30
0.0
 10
716.1574076311608
 20
329.6742660977345
 30
0.0
 10
716.0351562499998
 20
327.1093750000001
 30
0.0
  0
SPLINE
  5
C8
330
1F
100
AcDbEntity
  8
0
  6
Continuous
 62
     7
370
    25
100
AcDbSpline
210
0.0
220
0.0
230
1.0
 70
     8
 71
     3
 72
    15
 73
    11
 74
     0
 42
0.00000001
 43
0.00000001
 40
0.0
 40
0.0
 40
0.0
 40
0.0
 40
0.1327581551892122
 40
0.2572409366763411
 40
0.3804904628602788
 40
0.5067420195660023
 40
0.6315937178104892
 40
0.751656846166273
 40
0.8726602710309769
 40
1.0
 40
1.0
 40
1.0
 40
1.0
 10
710.5859374999999
 20
401.2500000000001
 30
0.0
 10
711.0638487381307
 20
401.230923710484
 30
0.0
 10
711.9898809985946
 20
401.1939602367415
 30
0.0
 10
713.3154312622561
 20
400.8063106191812
 30
0.0
 10
714.5050362662973
 20
400.1661945378142
 30
0.0
 10
715.5554347551388
 20
399.3126154187632
 30
0.0
 10
716.4096719401323
 20
398.2787250211152
 30
0.0
 10
717.0565056757063
 20
397.1260775368018
 30
0.0
 10
717.4420498327232
 20
395.8444416606511
 30
0.0
 10
717.4803574798519
 20
394.9505413036919
 30
0.0
 10
717.4999999999998
 20
394.4921875000001
 30
0.0
  0
SPLINE
  5
C9
330
1F
100
AcDbEntity
  8
0
  6
Continuous
 62
     7
370
    25
100
AcDbSpline
210
0.0
220
0.0
230
1.0
 70
     8
 71
     3
 72
    15
 73
    11
 74
     0
 42
0.00000001
 43
0.00000001
 40
0.0
 40
0.0
 40
0.0
 40
0.0
 40
0.1280005861553873
 40
0.2496319845798372
 40
0.3719165883194639
 40
0.4974162315743831
 40
0.6229158748292982
 40
0.7468050312037091
 40
0.8701840772804788
 40
1.0
 40
1.0
 40
1.0
 40
1.0
 10
703.7499999999999
 20
394.4726562500001
 30
0.0
 10
703.7693278289123
 20
394.9311921647901
 30
0.0
 10
703.8070217523072
 20
395.8254476822705
 30
0.0
 10
704.198665327207
 20
397.1100486965127
 30
0.0
 10
704.8331517952757
 20
398.2766916152549
 30
0.0
 10
705.6948012101885
 20
399.3049309186038
 30
0.0
 10
706.7265697398883
 20
400.1727751047476
 30
0.0
 10
707.9107481648565
 20
400.8008850407823
 30
0.0
 10
709.2138487197766
 20
401.1931145548193
 30
0.0
 10
710.1208881371663
 20
401.2307195128938
 30
0.0
 10
710.5859374999999
 20
401.2500000000001
 30
0.0
  0
SPLINE
  5
CA
330
1F
100
AcDbEntity
  8
0
  6
Continuous
 62
     7
370
    25
100
AcDbSpline
210
0.0
220
0.0
230
1.0
 70
     8
 71
     3
 72
    15
 73
    11
 74
     0
 42
0.00000001
 43
0.00000001
 40
0.0
 40
0.0
 40
0.0
 40
0.0
 40
0.1143997513149511
 40
0.231696568181009
 40
0.3521778490629606
 40
0.4755657500316923
 40
0.6021559925407949
 40
0.731659574366109
 40
0.8643695466662782
 40
1.0
 40
1.0
 40
1.0
 40
1.0
 10
702.3437499999998
 20
327.6757812500001
 30
0.0
 10
702.4572389542254
 20
330.2212324553866
 30
0.0
 10
702.6870908631522
 20
335.3765960115238
 30
0.0
 10
702.9838693957462
 20
343.215004405545
 30
0.0
 10
703.2106006665575
 20
351.2559791956987
 30
0.0
 10
703.4079954491672
 20
359.5047325293632
 30
0.0
 10
703.5612753333511
 20
367.9554098672723
 30
0.0
 10
703.6846993870976
 20
376.6142537340913
 30
0.0
 10
703.7375542139923
 20
385.4751914698713
 30
0.0
 10
703.7458214126654
 20
391.4518191290132
 30
0.0
 10
703.7499999999999
 20
394.4726562500001
 30
0.0
  0
LINE
  5
CB
330
1F
100
AcDbEntity
  8
0
  6
Continuous
 62
     7
370
    25
100
AcDbLine
 10
701.25
 20
305.91796875
 30
0.0
 11
702.34375
 21
327.67578125
 31
0.0
  0
SPLINE
  5
CC
330
1F
100
AcDbEntity
  8
0
  6
Continuous
 62
     7
370
    25
100
AcDbSpline
210
0.0
220
0.0
230
1.0
 70
     8
 71
     3
 72
    15
 73
    11
 74
     0
 42
0.00000001
 43
0.00000001
 40
0.0
 40
0.0
 40
0.0
 40
0.0
 40
0.1055153451451702
 40
0.213269992174832
 40
0.3244467035057921
 40
0.4404068100267968
 40
0.5644266821467986
 40
0.6982627046750732
 40
0.8426964683183993
 40
1.0
 40
1.0
 40
1.0
 40
1.0
 10
705.1953124999999
 20
295.7812500000001
 30
0.0
 10
704.8798574790168
 20
296.0249657929216
 30
0.0
 10
704.242252685477
 20
296.51756964289
 30
0.0
 10
703.4487506951276
 20
297.4569671140479
 30
0.0
 10
702.7524734153253
 20
298.5142426326348
 30
0.0
 10
702.2195184030096
 20
299.7292388463853
 30
0.0
 10
701.7478602506699
 20
301.0605230379698
 30
0.0
 10
701.4873129862355
 20
302.5579010432643
 30
0.0
 10
701.2710466132487
 20
304.1864496882288
 30
0.0
 10
701.2572122268851
 20
305.3246139816089
 30
0.0
 10
701.2499999999998
 20
305.9179687500001
 30
0.0
  0
SPLINE
  5
CD
330
1F
100
AcDbEntity
  8
0
  6
Continuous
 62
     7
370
    25
100
AcDbSpline
210
0.0
220
0.0
230
1.0
 70
     8
 71
     3
 72
    11
 73
     7
 74
     0
 42
0.00000001
 43
0.00000001
 40
0.0
 40
0.0
 40
0.0
 40
0.0
 40
0.3123181268528193
 40
0.5815380935167194
 40
0.8083261785269984
 40
1.0
 40
1.0
 40
1.0
 40
1.0
 10
714.7460937499999
 20
293.7500000000001
 30
0.0
 10
713.7159574122956
 20
293.7759810066536
 30
0.0
 10
711.7978378080078
 20
293.8243577858984
 30
0.0
 10
709.1532392762203
 20
294.1748495798539
 30
0.0
 10
706.9458132061433
 20
294.7768766047509
 30
0.0
 10
705.7452313860183
 20
295.4657266204759
 30
0.0
 10
705.1953124999999
 20
295.7812500000001
 30
0.0
  0
SPLINE
  5
CE
330
1F
100
AcDbEntity
  8
0
  6
Continuous
 62
     7
370
    25
100
AcDbSpline
210
0.0
220
0.0
230
1.0
 70
     8
 71
     3
 72
    15
 73
    11
 74
     0
 42
0.00000001
 43
0.00000001
 40
0.0
 40
0.0
 40
0.0
 40
0.0
 40
0.1510479726814156
 40
0.2945131447045169
 40
0.4301847647948913
 40
0.5582217280127226
 40
0.6795538841512759
 40
0.7940810770950979
 40
0.9003304442660263
 40
0.9999999999999999
 40
0.9999999999999999
 40
0.9999999999999999
 40
0.9999999999999999
 10
738.6914062499999
 20
296.2890625000001
 30
0.0
 10
737.4937067682981
 20
296.0924798225797
 30
0.0
 10
735.1584338447027
 20
295.7091831685846
 30
0.0
 10
731.7437665188922
 20
295.1704755173903
 30
0.0
 10
728.4995143586605
 20
294.74377626445
 30
0.0
 10
725.4250838740169
 20
294.3971906267494
 30
0.0
 10
722.516970181049
 20
294.088324104553
 30
0.0
 10
719.773929709677
 20
293.9021690215096
 30
0.0
 10
717.2017407354598
 20
293.7741082520911
 30
0.0
 10
715.5470180687781
 20
293.7578630542165
 30
0.0
 10
714.7460937499999
 20
293.7500000000001
 30
0.0
  0
SPLINE
  5
CF
330
1F
100
AcDbEntity
  8
0
  6
Continuous
 62
     7
370
    25
100
AcDbSpline
210
0.0
220
0.0
230
1.0
 70
     8
 71
     3
 72
    15
 73
    11
 74
     0
 42
0.00000001
 43
0.00000001
 40
0.0
 40
0.0
 40
0.0
 40
0.0
 40
0.0896117954197901
 40
0.1883747170094934
 40
0.2978145722127184
 40
0.4175994647563105
 40
0.5473163962161299
 40
0.6878382963662193
 40
0.8384500383637784
 40
1.0
 40
1.0
 40
1.0
 40
1.0
 10
762.0312499999998
 20
302.5000000000001
 30
0.0
 10
761.3706634025556
 20
302.2049196356079
 30
0.0
 10
759.9820313282744
 20
301.584625400044
 30
0.0
 10
757.7137976034877
 20
300.7846640235889
 30
0.0
 10
755.2007254425894
 20
299.9524447943683
 30
0.0
 10
752.4054668251514
 20
299.1880507261315
 30
0.0
 10
749.3522607550414
 20
298.4222215546792
 30
0.0
 10
746.0357601294713
 20
297.6877419466149
 30
0.0
 10
742.455108022257
 20
296.9610629421372
 30
0.0
 10
739.9749420408524
 20
296.5182349135291
 30
0.0
 10
738.6914062499999
 20
296.2890625000001
 30
0.0
  0
SPLINE
  5
D0
330
1F
100
AcDbEntity
  8
0
  6
Continuous
 62
     7
370
    25
100
AcDbSpline
210
0.0
220
0.0
230
1.0
 70
     8
 71
     3
 72
    23
 73
    19
 74
     0
 42
0.00000001
 43
0.00000001
 40
0.0
 40
0.0
 40
0.0
 40
0.0
 40
0.0625824463190473
 40
0.1249627365961409
 40
0.1868934888153941
 40
0.2486741844122469
 40
0.3112917881236431
 40
0.3742401276240757
 40
0.4376066324451137
 40
0.5021758380271475
 40
0.566592220384579
 40
0.629704519758196
 40
0.6923587884109864
 40
0.7539191538292862
 40
0.8151959658330217
 40
0.8764727778367555
 40
0.9383107544837653
 40
0.9999999999999999
 40
0.9999999999999999
 40
0.9999999999999999
 40
0.9999999999999999
 10
859.9999999999999
 20
338.8281250000001
 30
0.0
 10
859.9868814622395
 20
337.8964873424015
 30
0.0
 10
859.9606867626853
 20
336.0362214362712
 30
0.0
 10
859.6903257156899
 20
333.2656128883016
 30
0.0
 10
859.292081305494
 20
330.5233575124226
 30
0.0
 10
858.6893019494113
 20
327.8148522005229
 30
0.0
 10
857.9602907915122
 20
325.122168210521
 30
0.0
 10
857.0321593689973
 20
322.4659675303816
 30
0.0
 10
855.9575610941671
 20
319.8347949670357
 30
0.0
 10
854.7102539641838
 20
317.2563679253847
 30
0.0
 10
853.3352556951908
 20
314.7485388930217
 30
0.0
 10
851.8270196254902
 20
312.3509274817757
 30
0.0
 10
850.1846194263165
 20
310.0965449419792
 30
0.0
 10
848.4480926623968
 20
307.9480426228228
 30
0.0
 10
846.5605297239614
 20
305.9586727537342
 30
0.0
 10
844.5644331897728
 20
304.0739694091398
 30
0.0
 10
842.4443399117064
 20
302.3174926299225
 30
0.0
 10
840.9443863048929
 20
301.253841485481
 30
0.0
 10
840.1953124999998
 20
300.7226562500001
 30
0.0
  0
SPLINE
  5
D1
330
1F
100
AcDbEntity
  8
0
  6
Continuous
 62
     7
370
    25
100
AcDbSpline
210
0.0
220
0.0
230
1.0
 70
     8
 71
     3
 72
    15
 73
    11
 74
     0
 42
0.00000001
 43
0.00000001
 40
0.0
 40
0.0
 40
0.0
 40
0.0
 40
0.1388038509135754
 40
0.271381553810946
 40
0.3987432801155639
 40
0.5218065002284816
 40
0.6424494248719198
 40
0.7612045059159409
 40
0.8802543789110326
 40
1.0
 40
1.0
 40
1.0
 40
1.0
 10
844.6093749999999
 20
373.0664062500001
 30
0.0
 10
845.8372286521317
 20
371.7718992758515
 30
0.0
 10
848.2378596848786
 20
369.2409513824657
 30
0.0
 10
851.3703973331192
 20
365.1751512864056
 30
0.0
 10
854.0183697352248
 20
361.021527879804
 30
0.0
 10
856.2188360433636
 20
356.7830207897898
 30
0.0
 10
857.896718305818
 20
352.4291988060006
 30
0.0
 10
859.1231163150015
 20
347.9837958795738
 30
0.0
 10
859.86930593615
 20
343.4367655298348
 30
0.0
 10
859.956350774887
 20
340.3673195282329
 30
0.0
 10
859.9999999999999
 20
338.8281250000001
 30
0.0
  0
SPLINE
  5
D2
330
1F
100
AcDbEntity
  8
0
  6
Continuous
 62
     7
370
    25
100
AcDbSpline
210
0.0
220
0.0
230
1.0
 70
     8
 71
     3
 72
    15
 73
    11
 74
     0
 42
0.00000001
 43
0.00000001
 40
0.0
 40
0.0
 40
0.0
 40
0.0
 40
0.1296698925510145
 40
0.2571407284223115
 40
0.3828083044051629
 40
0.5072765331469609
 40
0.6305906403739574
 40
0.7537942152740192
 40
0.8765601596375491
 40
0.9999999999999999
 40
0.9999999999999999
 40
0.9999999999999999
 40
0.9999999999999999
 10
812.8906249999999
 20
392.6367187500001
 30
0.0
 10
814.4207770963048
 20
392.0876547844048
 30
0.0
 10
817.4551316168499
 20
390.998838365373
 30
0.0
 10
821.8544819394223
 20
389.0733250077663
 30
0.0
 10
826.0779476331802
 20
386.9338610741816
 30
0.0
 10
830.1535163193415
 20
384.6255038978767
 30
0.0
 10
834.0277923230649
 20
382.0472276302391
 30
0.0
 10
837.7343834773213
 20
379.2728020673458
 30
0.0
 10
841.298975767341
 20
376.3104692008012
 30
0.0
 10
843.5038968742474
 20
374.1497319695371
 30
0.0
 10
844.6093749999999
 20
373.0664062500001
 30
0.0
  0
SPLINE
  5
D3
330
1F
100
AcDbEntity
  8
0
  6
Continuous
 62
     7
370
    25
100
AcDbSpline
210
0.0
220
0.0
230
1.0
 70
     8
 71
     3
 72
    15
 73
    11
 74
     0
 42
0.00000001
 43
0.00000001
 40
0.0
 40
0.0
 40
0.0
 40
0.0
 40
0.2061329585812185
 40
0.3892389998951842
 40
0.5492727358346253
 40
0.6863001055092985
 40
0.8002455064086048
 40
0.889841084139405
 40
0.9563457308263834
 40
1.0
 40
1.0
 40
1.0
 40
1.0
 10
801.2304687499998
 20
398.1054687500001
 30
0.0
 10
802.0230630727594
 20
397.7113679050972
 30
0.0
 10
803.5197117583309
 20
396.9671908468352
 30
0.0
 10
805.6570071170543
 20
395.9695165786945
 30
0.0
 10
807.5028117618231
 20
395.049987489903
 30
0.0
 10
809.1132960726861
 20
394.3277440353049
 30
0.0
 10
810.4271935518584
 20
393.6844881766381
 30
0.0
 10
811.4953058915195
 20
393.2330536358573
 30
0.0
 10
812.2675027470922
 20
392.8569442251767
 30
0.0
 10
812.7137744487911
 20
392.6992217283379
 30
0.0
 10
812.8906249999999
 20
392.6367187500001
 30
0.0
  0
SPLINE
  5
D4
330
1F
100
AcDbEntity
  8
0
  6
Continuous
 62
     7
370
    25
100
AcDbSpline
210
0.0
220
0.0
230
1.0
 70
     8
 71
     3
 72
    15
 73
    11
 74
     0
 42
0.00000001
 43
0.00000001
 40
0.0
 40
0.0
 40
0.0
 40
0.0
 40
0.0451288902837254
 40
0.1125390343275291
 40
0.2020930078784799
 40
0.3145494356911587
 40
0.451288006020345
 40
0.6117256750825726
 40
0.7936136891058324
 40
1.0
 40
1.0
 40
1.0
 40
1.0
 10
790.7617187499999
 20
402.5000000000001
 30
0.0
 10
790.9315437365711
 20
402.4769966213394
 30
0.0
 10
791.3550405226264
 20
402.4196325247601
 30
0.0
 10
792.0969737212105
 20
402.2148327066038
 30
0.0
 10
793.0492341086509
 20
401.8421264450567
 30
0.0
 10
794.2504937892995
 20
401.3836775495817
 30
0.0
 10
795.6689830058067
 20
400.7462397242766
 30
0.0
 10
797.3204440087317
 20
399.9865317131593
 30
0.0
 10
799.2090418414878
 20
399.1089552990544
 30
0.0
 10
800.5289008013823
 20
398.4537445133834
 30
0.0
 10
801.2304687499999
 20
398.1054687500001
 30
0.0
  0
SPLINE
  5
D5
330
1F
100
AcDbEntity
  8
0
  6
Continuous
 62
     7
370
    25
100
AcDbSpline
210
0.0
220
0.0
230
1.0
 70
     8
 71
     3
 72
    15
 73
    11
 74
     0
 42
0.00000001
 43
0.00000001
 40
0.0
 40
0.0
 40
0.0
 40
0.0
 40
0.1072688017705736
 40
0.2221897642654405
 40
0.3517384370046439
 40
0.4996381110431599
 40
0.6480134106400782
 40
0.7761636482234295
 40
0.8927311982294307
 40
1.0
 40
1.0
 40
1.0
 40
1.0
 10
782.5
 20
393.8867187500001
 30
0.0
 10
782.53730245797
 20
394.3467771805807
 30
0.0
 10
782.6145683936945
 20
395.2997129135407
 30
0.0
 10
783.1707152654976
 20
396.7200488694021
 30
0.0
 10
784.0526265578117
 20
398.1566030260367
 30
0.0
 10
785.2321041254039
 20
399.5536639438536
 30
0.0
 10
786.5406131164
 20
400.8262585435502
 30
0.0
 10
787.938459894341
 20
401.7725603364329
 30
0.0
 10
789.337855611376
 20
402.3963016442713
 30
0.0
 10
790.3004269485004
 20
402.466404635369
 30
0.0
 10
790.7617187499998
 20
402.5000000000001
 30
0.0
  0
LINE
  5
D6
330
1F
100
AcDbEntity
  8
0
  6
Continuous
 62
     7
370
    25
100
AcDbLine
 10
782.5
 20
347.96875
 30
0.0
 11
782.5
 21
393.88671875
 31
0.0
  0
SPLINE
  5
D7
330
1F
100
AcDbEntity
  8
0
  6
Continuous
 62
     7
370
    25
100
AcDbSpline
210
0.0
220
0.0
230
1.0
 70
     8
 71
     3
 72
    23
 73
    19
 74
     0
 42
0.00000001
 43
0.00000001
 40
0.0
 40
0.0
 40
0.0
 40
0.0
 40
0.0443811767986789
 40
0.0939553386403413
 40
0.1487388121640575
 40
0.2087139482049899
 40
0.2734365545017213
 40
0.3438210563470166
 40
0.4189598089706275
 40
0.4997588250101195
 40
0.5805785278046437
 40
0.6561697761702651
 40
0.726099964492832
 40
0.7912789856926197
 40
0.8512671276957627
 40
0.9060404288169172
 40
0.9556213343721055
 40
1.0
 40
1.0
 40
1.0
 40
1.0
 10
781.2499999999999
 20
306.6210937500001
 30
0.0
 10
781.2573874606898
 20
307.233058063115
 30
0.0
 10
781.2730267794475
 20
308.5285918551847
 30
0.0
 10
781.2791173722104
 20
310.5798415719825
 30
0.0
 10
781.3567331950198
 20
312.8448369734436
 30
0.0
 10
781.3960381587771
 20
315.3197013174373
 30
0.0
 10
781.5148525455552
 20
318.0074410312259
 30
0.0
 10
781.5920588360534
 20
320.9058130353529
 30
0.0
 10
781.7499579837131
 20
324.0229568470361
 30
0.0
 10
781.8646041395392
 20
327.2858825214901
 30
0.0
 10
782.04057643812
 20
330.5524536447914
 30
0.0
 10
782.1369145238878
 20
333.6723135202246
 30
0.0
 10
782.2754980442198
 20
336.5747332729492
 30
0.0
 10
782.333756720717
 20
339.2646115544741
 30
0.0
 10
782.4322515398327
 20
341.7442301634488
 30
0.0
 10
782.4528645402146
 20
344.0105513844379
 30
0.0
 10
782.5099153382157
 20
346.0609698028145
 30
0.0
 10
782.5031808232445
 20
347.3567374327292
 30
0.0
 10
782.4999999999999
 20
347.9687500000001
 30
0.0
  0
SPLINE
  5
D8
330
1F
100
AcDbEntity
  8
0
  6
Continuous
 62
     7
370
    25
100
AcDbSpline
210
0.0
220
0.0
230
1.0
 70
     8
 71
     3
 72
    15
 73
    11
 74
     0
 42
0.00000001
 43
0.00000001
 40
0.0
 40
0.0
 40
0.0
 40
0.0
 40
0.1298935723293215
 40
0.2515525138410677
 40
0.3740235507549409
 40
0.4999622129676445
 40
0.6261449163091934
 40
0.7485182276722024
 40
0.871948419074472
 40
1.0
 40
1.0
 40
1.0
 40
1.0
 10
787.9101562499998
 20
299.8632812500001
 30
0.0
 10
787.4514929228352
 20
299.8820174166929
 30
0.0
 10
786.5632433282943
 20
299.9183019667809
 30
0.0
 10
785.2916258740677
 20
300.3122940579517
 30
0.0
 10
784.1440172486203
 20
300.947036795495
 30
0.0
 10
783.1369606556065
 20
301.8096099738973
 30
0.0
 10
782.2875988726275
 20
302.8320316556402
 30
0.0
 10
781.70674896684
 20
304.0140445745806
 30
0.0
 10
781.3063504498541
 20
305.2802434515379
 30
0.0
 10
781.2690122004501
 20
306.1687013606863
 30
0.0
 10
781.2499999999998
 20
306.6210937500001
 30
0.0
  0
LINE
  5
D9
330
1F
100
AcDbEntity
  8
0
  6
Continuous
 62
     7
370
    25
100
AcDbLine
 10
788.57421875
 20
299.86328125
 30
0.0
 11
787.91015625
 21
299.86328125
 31
0.0
  0
SPLINE
  5
DA
330
1F
100
AcDbEntity
  8
0
  6
Continuous
 62
     7
370
    25
100
AcDbSpline
210
0.0
220
0.0
230
1.0
 70
     8
 71
     3
 72
    11
 73
     7
 74
     0
 42
0.00000001
 43
0.00000001
 40
0.0
 40
0.0
 40
0.0
 40
0.0
 40
0.2967811759485267
 40
0.5618369741477489
 40
0.7950514456667969
 40
1.0
 40
1.0
 40
1.0
 40
1.0
 10
799.8046874999999
 20
295.2539062500001
 30
0.0
 10
798.6332342802917
 20
295.5532071127894
 30
0.0
 10
796.4155540982082
 20
296.1198141105946
 30
0.0
 10
793.3699656777126
 20
297.2214841148307
 30
0.0
 10
790.7446219950751
 20
298.3908268472335
 30
0.0
 10
789.265888782236
 20
299.3940354605191
 30
0.0
 10
788.5742187499999
 20
299.8632812500002
 30
0.0
  0
SPLINE
  5
DB
330
1F
100
AcDbEntity
  8
0
  6
Continuous
 62
     7
370
    25
100
AcDbSpline
210
0.0
220
0.0
230
1.0
 70
     8
 71
     3
 72
    11
 73
     7
 74
     0
 42
0.00000001
 43
0.00000001
 40
0.0
 40
0.0
 40
0.0
 40
0.0
 40
0.2245418617916589
 40
0.4641955670476251
 40
0.7235531687138582
 40
0.9999999999999999
 40
0.9999999999999999
 40
0.9999999999999999
 40
0.9999999999999999
 10
810.8203125
 20
293.7500000000002
 30
0.0
 10
809.9863127874369
 20
293.7714603025785
 30
0.0
 10
808.2621845273355
 20
293.8158252029355
 30
0.0
 10
805.588060354142
 20
294.1066440018508
 30
0.0
 10
802.7435302197706
 20
294.5690392149859
 30
0.0
 10
800.804912175908
 20
295.0208141884451
 30
0.0
 10
799.8046874999998
 20
295.2539062500001
 30
0.0
  0
SPLINE
  5
DC
330
1F
100
AcDbEntity
  8
0
  6
Continuous
 62
     7
370
    25
100
AcDbSpline
210
0.0
220
0.0
230
1.0
 70
     8
 71
     3
 72
    15
 73
    11
 74
     0
 42
0.00000001
 43
0.00000001
 40
0.0
 40
0.0
 40
0.0
 40
0.0
 40
0.1030300348839818
 40
0.2102917445197068
 40
0.3238971926249068
 40
0.4436514344534622
 40
0.5704735151746729
 40
0.7049519796503002
 40
0.8481696776811845
 40
1.0
 40
1.0
 40
1.0
 40
1.0
 10
840.1953124999998
 20
300.7226562500001
 30
0.0
 10
839.308548238481
 20
300.154925532709
 30
0.0
 10
837.4985983171546
 20
298.9961461234715
 30
0.0
 10
834.4861572949645
 20
297.612827233957
 30
0.0
 10
831.2272265740679
 20
296.3925767160991
 30
0.0
 10
827.6735334682123
 20
295.4294381564674
 30
0.0
 10
823.8556376318247
 20
294.672183702823
 30
0.0
 10
819.7594916939104
 20
294.1256790901987
 30
0.0
 10
815.3821799766844
 20
293.8237338368201
 30
0.0
 10
812.3702417385141
 20
293.7750516329419
 30
0.0
 10
810.8203124999999
 20
293.7500000000001
 30
0.0
  0
SPLINE
  5
DD
330
1F
100
AcDbEntity
  8
0
  6
Continuous
 62
     7
370
    25
100
AcDbSpline
210
0.0
220
0.0
230
1.0
 70
     8
 71
     3
 72
    23
 73
    19
 74
     0
 42
0.00000001
 43
0.00000001
 40
0.0
 40
0.0
 40
0.0
 40
0.0
 40
0.0309812792195768
 40
0.0663157999208555
 40
0.1057233830868012
 40
0.14923070281845
 40
0.197402908664837
 40
0.2494257185919705
 40
0.3053304567727558
 40
0.3656330753709372
 40
0.4305983068836126
 40
0.4991944053269516
 40
0.5721945360589881
 40
0.6490759398109572
 40
0.7306412585240291
 40
0.8158454268393398
 40
0.9059831639676051
 40
1.0
 40
1.0
 40
1.0
 40
1.0
 10
826.4843749999998
 20
370.0585937500001
 30
0.0
 10
826.1921181477271
 20
370.2485107686201
 30
0.0
 10
825.5665388485811
 20
370.6550304258334
 30
0.0
 10
824.5536144005046
 20
371.2786887568093
 30
0.0
 10
823.4008992329075
 20
371.9432365180442
 30
0.0
 10
822.0994946333328
 20
372.6369990945176
 30
0.0
 10
820.6911598088933
 20
373.4314685670774
 30
0.0
 10
819.1192627835887
 20
374.2153331396318
 30
0.0
 10
817.4373115991641
 20
375.0827802466901
 30
0.0
 10
815.6204898853772
 20
376.0067928361452
 30
0.0
 10
813.6551295656685
 20
376.952457574277
 30
0.0
 10
811.5575635260767
 20
377.9525266796505
 30
0.0
 10
809.3342420005916
 20
379.0003144607603
 30
0.0
 10
806.9871455402543
 20
380.1277111109785
 30
0.0
 10
804.4941140384792
 20
381.2672727449554
 30
0.0
 10
801.8648213492648
 20
382.4672004675861
 30
0.0
 10
799.0999561801691
 20
383.7073867472438
 30
0.0
 10
797.2132329349292
 20
384.5631204206421
 30
0.0
 10
796.2499999999998
 20
385.0000000000001
 30
0.0
  0
SPLINE
  5
DE
330
1F
100
AcDbEntity
  8
0
  6
Continuous
 62
     7
370
    25
100
AcDbSpline
210
0.0
220
0.0
230
1.0
 70
     8
 71
     3
 72
    23
 73
    19
 74
     0
 42
0.00000001
 43
0.00000001
 40
0.0
 40
0.0
 40
0.0
 40
0.0
 40
0.0585191293077769
 40
0.1163126965026549
 40
0.1736736115520586
 40
0.2307791487345381
 40
0.2876974249067132
 40
0.3453699122163506
 40
0.4039931990600754
 40
0.4629666594567573
 40
0.5232362072662714
 40
0.5854544172049182
 40
0.6490565230918653
 40
0.7146574986283639
 40
0.7824536516272942
 40
0.8526228684078389
 40
0.9246194256856642
 40
1.0
 40
1.0
 40
1.0
 40
1.0
 10
846.2499999999999
 20
338.6914062500001
 30
0.0
 10
846.2350139525379
 20
339.447178447103
 30
0.0
 10
846.205227665373
 20
340.9493522358559
 30
0.0
 10
845.9651065655518
 20
343.1823615361935
 30
0.0
 10
845.5665397057264
 20
345.3714764707696
 30
0.0
 10
845.0562730397038
 20
347.5278359089967
 30
0.0
 10
844.3278487834559
 20
349.6241142467496
 30
0.0
 10
843.5032760114669
 20
351.7050366641076
 30
0.0
 10
842.4774767119139
 20
353.7253040600883
 30
0.0
 10
841.323342558189
 20
355.7126346619785
 30
0.0
 10
840.0017963319478
 20
357.6495482389331
 30
0.0
 10
838.5462142174044
 20
359.563323172084
 30
0.0
 10
836.9127833726798
 20
361.4209267926876
 30
0.0
 10
835.132481194446
 20
363.2394715393591
 30
0.0
 10
833.1943917233664
 20
365.0171585233032
 30
0.0
 10
831.1080624548426
 20
366.7500704019437
 30
0.0
 10
828.8650948957492
 20
368.4435799840501
 30
0.0
 10
827.290003843648
 20
369.5120776835527
 30
0.0
 10
826.4843749999998
 20
370.0585937500001
 30
0.0
  0
SPLINE
  5
DF
330
1F
100
AcDbEntity
  8
0
  6
Continuous
 62
     7
370
    25
100
AcDbSpline
210
0.0
220
0.0
230
1.0
 70
     8
 71
     3
 72
    15
 73
    11
 74
     0
 42
0.00000001
 43
0.00000001
 40
0.0
 40
0.0
 40
0.0
 40
0.0
 40
0.1219523720223573
 40
0.2438016702589742
 40
0.3676264098305022
 40
0.4957263841230042
 40
0.6247548082954124
 40
0.7502051183909852
 40
0.8750766230556659
 40
1.0
 40
1.0
 40
1.0
 40
1.0
 10
832.4414062499999
 20
312.0507812500001
 30
0.0
 10
833.4665348329856
 20
312.7985215277517
 30
0.0
 10
835.5159255632972
 20
314.2933700953737
 30
0.0
 10
838.1989559091861
 20
317.0355705750638
 30
0.0
 10
840.5586212779094
 20
320.1296311576667
 30
0.0
 10
842.5700140836456
 20
323.5490003541446
 30
0.0
 10
844.1996582687466
 20
327.1840970236382
 30
0.0
 10
845.3848630645394
 20
330.9508726389901
 30
0.0
 10
846.1145450283929
 20
334.7959157371014
 30
0.0
 10
846.2048420924499
 20
337.3927296613422
 30
0.0
 10
846.2499999999999
 20
338.6914062500001
 30
0.0
  0
SPLINE
  5
E0
330
1F
100
AcDbEntity
  8
0
  6
Continuous
 62
     7
370
    25
100
AcDbSpline
210
0.0
220
0.0
230
1.0
 70
     8
 71
     3
 72
    15
 73
    11
 74
     0
 42
0.00000001
 43
0.00000001
 40
0.0
 40
0.0
 40
0.0
 40
0.0
 40
0.160573342122793
 40
0.3092042782024103
 40
0.4479470184506673
 40
0.5763224677949467
 40
0.695033594501118
 40
0.8045665763893795
 40
0.9057323087148593
 40
1.0
 40
1.0
 40
1.0
 40
1.0
 10
810.8203124999999
 20
307.5000000000001
 30
0.0
 10
812.0185773822384
 20
307.5151986024582
 30
0.0
 10
814.3259879592978
 20
307.5444654336804
 30
0.0
 10
817.6631427092011
 20
307.761607051447
 30
0.0
 10
820.7472648937853
 20
308.1068304401443
 30
0.0
 10
823.5887722359718
 20
308.5829689176634
 30
0.0
 10
826.1745074187113
 20
309.2257945550119
 30
0.0
 10
828.506472244405
 20
310.0063335744546
 30
0.0
 10
830.6063845814763
 20
310.9026631520137
 30
0.0
 10
831.8442968594745
 20
311.6771877881358
 30
0.0
 10
832.4414062499999
 20
312.0507812500001
 30
0.0
  0
SPLINE
  5
E1
330
1F
100
AcDbEntity
  8
0
  6
Continuous
 62
     7
370
    25
100
AcDbSpline
210
0.0
220
0.0
230
1.0
 70
     8
 71
     3
 72
    15
 73
    11
 74
     0
 42
0.00000001
 43
0.00000001
 40
0.0
 40
0.0
 40
0.0
 40
0.0
 40
0.1143793972628961
 40
0.2295387615684174
 40
0.3469363769417779
 40
0.469521613528625
 40
0.5935319950598356
 40
0.7239216906575179
 40
0.859607084608754
 40
1.0
 40
1.0
 40
1.0
 40
1.0
 10
796.3671874999999
 20
311.3281250000002
 30
0.0
 10
796.8573140568623
 20
311.0206957899182
 30
0.0
 10
797.8409094032811
 20
310.4037409725223
 30
0.0
 10
799.4127555933678
 20
309.6164226421171
 30
0.0
 10
801.0930728583463
 20
308.9782307232281
 30
0.0
 10
802.8513347855111
 20
308.4277816879604
 30
0.0
 10
804.716350969456
 20
308.0253003206772
 30
0.0
 10
806.6636551346014
 20
307.7041042478597
 30
0.0
 10
808.7144070296154
 20
307.5342411650606
 30
0.0
 10
810.1104094119421
 20
307.5115427350169
 30
0.0
 10
810.8203124999999
 20
307.5000000000001
 30
0.0
  0
SPLINE
  5
E2
330
1F
100
AcDbEntity
  8
0
  6
Continuous
 62
     7
370
    25
100
AcDbSpline
210
0.0
220
0.0
230
1.0
 70
     8
 71
     3
 72
     9
 73
     5
 74
     0
 42
0.00000001
 43
0.00000001
 40
0.0
 40
0.0
 40
0.0
 40
0.0
 40
0.4028693102417144
 40
1.0
 40
1.0
 40
1.0
 40
1.0
 10
794.9999999999998
 20
312.1679687500001
 30
0.0
 10
795.1905571796381
 20
312.0667085025732
 30
0.0
 10
795.6635571694461
 20
311.8153608698481
 30
0.0
 10
796.1041161888588
 20
311.5102913642827
 30
0.0
 10
796.3671874999998
 20
311.3281250000001
 30
0.0
  0
LINE
  5
E3
330
1F
100
AcDbEntity
  8
0
  6
Continuous
 62
     7
370
    25
100
AcDbLine
 10
796.25
 20
347.65625
 30
0.0
 11
795.0
 21
312.16796875
 31
0.0
  0
LINE
  5
E4
330
1F
100
AcDbEntity
  8
0
  6
Continuous
 62
     7
370
    25
100
AcDbLine
 10
796.25
 20
385.0
 30
0.0
 11
796.25
 21
347.65625
 31
0.0
  0
ENDSEC
  0
SECTION
  2
OBJECTS
  0
DICTIONARY
  5
C
330
0
100
AcDbDictionary
281
     1
  3
ACAD_GROUP
350
D
  3
ACAD_LAYOUT
350
1A
  3
ACAD_MLINESTYLE
350
17
  3
ACAD_PLOTSETTINGS
350
19
  3
ACAD_PLOTSTYLENAME
350
E
  3
ACAD_SCALELIST
350
47
  3
DWGPROPS
350
E5
  0
DICTIONARY
  5
D
102
{ACAD_REACTORS
330
C
102
}
330
C
100
AcDbDictionary
281
     1
  0
DICTIONARY
  5
1A
102
{ACAD_REACTORS
330
C
102
}
330
C
100
AcDbDictionary
281
     1
  3
Layout1
350
1E
  3
Layout2
350
26
  3
Model
350
22
  0
DICTIONARY
  5
17
102
{ACAD_REACTORS
330
C
102
}
330
C
100
AcDbDictionary
281
     1
  3
Standard
350
18
  0
DICTIONARY
  5
19
102
{ACAD_REACTORS
330
C
102
}
330
C
100
AcDbDictionary
281
     1
  0
ACDBDICTIONARYWDFLT
  5
E
102
{ACAD_REACTORS
330
C
102
}
330
C
100
AcDbDictionary
281
     1
  3
Normal
350
F
100
AcDbDictionaryWithDefault
340
F
  0
DICTIONARY
  5
47
102
{ACAD_REACTORS
330
C
102
}
330
C
100
AcDbDictionary
281
     1
  3
A0
350
48
  3
A1
350
49
  3
A2
350
4A
  3
A3
350
4B
  3
A4
350
4C
  3
A5
350
4D
  3
A6
350
4E
  3
A7
350
4F
  3
A8
350
50
  3
A9
350
51
  3
B0
350
52
  3
B1
350
53
  3
B2
350
54
  3
B3
350
55
  3
B4
350
56
  3
B5
350
57
  3
B6
350
58
  0
XRECORD
  5
E5
102
{ACAD_REACTORS
330
C
102
}
330
C
100
AcDbXrecord
280
     1
  1
DWGPROPS COOKIE
  2

  3

  4

  6

  7

  8
Harold
  9

300
=
301
=
302
=
303
=
304
=
305
=
306
=
307
=
308
=
309
=
 40
0.0
 41
2460979.134107084
 42
2460979.134143681
  1

 90
        0
  0
LAYOUT
  5
1E
102
{ACAD_REACTORS
330
1A
102
}
330
1A
100
AcDbPlotSettings
  1

  2
none_device
  4

  6

 40
0.0
 41
0.0
 42
0.0
 43
0.0
 44
0.0
 45
0.0
 46
0.0
 47
0.0
 48
0.0
 49
0.0
140
0.0
141
0.0
142
1.0
143
1.0
 70
   688
 72
     1
 73
     0
 74
     5
  7

 75
    16
147
1.0
148
0.0
149
0.0
100
AcDbLayout
  1
Layout1
 70
     1
 71
     1
 10
0.0
 20
0.0
 11
420.0
 21
297.0
 12
0.0
 22
0.0
 32
0.0
 14
1.0000000000E+20
 24
1.0000000000E+20
 34
1.0000000000E+20
 15
-1.0000000000E+20
 25
-1.0000000000E+20
 35
-1.0000000000E+20
146
0.0
 13
0.0
 23
0.0
 33
0.0
 16
1.0
 26
0.0
 36
0.0
 17
0.0
 27
1.0
 37
0.0
 76
     0
330
1B
  0
LAYOUT
  5
26
102
{ACAD_REACTORS
330
1A
102
}
330
1A
100
AcDbPlotSettings
  1

  2
none_device
  4

  6

 40
0.0
 41
0.0
 42
0.0
 43
0.0
 44
0.0
 45
0.0
 46
0.0
 47
0.0
 48
0.0
 49
0.0
140
0.0
141
0.0
142
1.0
143
1.0
 70
   688
 72
     1
 73
     0
 74
     5
  7

 75
    16
147
1.0
148
0.0
149
0.0
100
AcDbLayout
  1
Layout2
 70
     1
 71
     2
 10
0.0
 20
0.0
 11
0.0
 21
0.0
 12
0.0
 22
0.0
 32
0.0
 14
0.0
 24
0.0
 34
0.0
 15
0.0
 25
0.0
 35
0.0
146
0.0
 13
0.0
 23
0.0
 33
0.0
 16
1.0
 26
0.0
 36
0.0
 17
0.0
 27
1.0
 37
0.0
 76
     0
330
23
  0
LAYOUT
  5
22
102
{ACAD_REACTORS
330
1A
102
}
330
1A
100
AcDbPlotSettings
  1

  2
none_device
  4
ANSI_A_(11.00_x_8.50_Inches)
  6

 40
6.35
 41
19.05
 42
6.35000508
 43
19.05000254
 44
279.4
 45
215.9
 46
-160.85820254
 47
-86.17902627
 48
0.0
 49
0.0
140
0.0
141
0.0
142
0.0198
143
1.0
 70
  1696
 72
     0
 73
     0
 74
     0
  7

 75
     0
147
0.0179189148
148
-1300.4909072572
149
0.0
100
AcDbLayout
  1
Model
 70
     1
 71
     0
 10
0.0
 20
0.0
 11
420.0
 21
297.0
 12
0.0
 22
0.0
 32
0.0
 14
310.0
 24
293.75
 34
0.0
 15
860.0
 25
402.5
 35
0.0
146
0.0
 13
0.0
 23
0.0
 33
0.0
 16
1.0
 26
0.0
 36
0.0
 17
0.0
 27
1.0
 37
0.0
 76
     0
330
1F
331
29
  0
MLINESTYLE
  5
18
102
{ACAD_REACTORS
330
17
102
}
330
17
100
AcDbMlineStyle
  2
Standard
 70
     0
  3

 62
   256
 51
90.0
 52
90.0
 71
     2
 49
0.5
 62
   256
  6
BYLAYER
 49
-0.5
 62
   256
  6
BYLAYER
  0
ACDBPLACEHOLDER
  5
F
102
{ACAD_REACTORS
330
E
102
}
330
E
  0
SCALE
  5
48
102
{ACAD_REACTORS
330
47
102
}
330
47
100
AcDbScale
 70
     0
300
1:1
140
1.0
141
1.0
290
     1
  0
SCALE
  5
49
102
{ACAD_REACTORS
330
47
102
}
330
47
100
AcDbScale
 70
     0
300
1:2
140
1.0
141
2.0
290
     0
  0
SCALE
  5
4A
102
{ACAD_REACTORS
330
47
102
}
330
47
100
AcDbScale
 70
     0
300
1:4
140
1.0
141
4.0
290
     0
  0
SCALE
  5
4B
102
{ACAD_REACTORS
330
47
102
}
330
47
100
AcDbScale
 70
     0
300
1:5
140
1.0
141
5.0
290
     0
  0
SCALE
  5
4C
102
{ACAD_REACTORS
330
47
102
}
330
47
100
AcDbScale
 70
     0
300
1:8
140
1.0
141
8.0
290
     0
  0
SCALE
  5
4D
102
{ACAD_REACTORS
330
47
102
}
330
47
100
AcDbScale
 70
     0
300
1:10
140
1.0
141
10.0
290
     0
  0
SCALE
  5
4E
102
{ACAD_REACTORS
330
47
102
}
330
47
100
AcDbScale
 70
     0
300
1:16
140
1.0
141
16.0
290
     0
  0
SCALE
  5
4F
102
{ACAD_REACTORS
330
47
102
}
330
47
100
AcDbScale
 70
     0
300
1:20
140
1.0
141
20.0
290
     0
  0
SCALE
  5
50
102
{ACAD_REACTORS
330
47
102
}
330
47
100
AcDbScale
 70
     0
300
1:30
140
1.0
141
30.0
290
     0
  0
SCALE
  5
51
102
{ACAD_REACTORS
330
47
102
}
330
47
100
AcDbScale
 70
     0
300
1:40
140
1.0
141
40.0
290
     0
  0
SCALE
  5
52
102
{ACAD_REACTORS
330
47
102
}
330
47
100
AcDbScale
 70
     0
300
1:50
140
1.0
141
50.0
290
     0
  0
SCALE
  5
53
102
{ACAD_REACTORS
330
47
102
}
330
47
100
AcDbScale
 70
     0
300
1:100
140
1.0
141
100.0
290
     0
  0
SCALE
  5
54
102
{ACAD_REACTORS
330
47
102
}
330
47
100
AcDbScale
 70
     0
300
2:1
140
2.0
141
1.0
290
     0
  0
SCALE
  5
55
102
{ACAD_REACTORS
330
47
102
}
330
47
100
AcDbScale
 70
     0
300
4:1
140
4.0
141
1.0
290
     0
  0
SCALE
  5
56
102
{ACAD_REACTORS
330
47
102
}
330
47
100
AcDbScale
 70
     0
300
8:1
140
8.0
141
1.0
290
     0
  0
SCALE
  5
57
102
{ACAD_REACTORS
330
47
102
}
330
47
100
AcDbScale
 70
     0
300
10:1
140
10.0
141
1.0
290
     0
  0
SCALE
  5
58
102
{ACAD_REACTORS
330
47
102
}
330
47
100
AcDbScale
 70
     0
300
100:1
140
100.0
141
1.0
290
     0
  0
ENDSEC
  0
EOF
